<svg width="47" height="13" viewBox="0 0 47 13" fill="none" xmlns="http://www.w3.org/2000/svg">
<mask id="mask0_12343_58749" style="mask-type:alpha" maskUnits="userSpaceOnUse" x="0" y="0" width="47" height="13">
<rect width="47" height="13" fill="url(#paint0_linear_12343_58749)"/>
</mask>
<g mask="url(#mask0_12343_58749)">
<path fill-rule="evenodd" clip-rule="evenodd" d="M1 2C1.55228 2 2 1.55228 2 1C2 0.447715 1.55228 0 1 0C0.447715 0 0 0.447715 0 1C0 1.55228 0.447715 2 1 2ZM1 5C1.55228 5 2 4.55228 2 4C2 3.44772 1.55228 3 1 3C0.447715 3 0 3.44772 0 4C0 4.55228 0.447715 5 1 5ZM2 7C2 7.55228 1.55228 8 1 8C0.447715 8 0 7.55228 0 7C0 6.44772 0.447715 6 1 6C1.55228 6 2 6.44772 2 7ZM4 2C4.55228 2 5 1.55228 5 1C5 0.447715 4.55228 0 4 0C3.44772 0 3 0.447715 3 1C3 1.55228 3.44772 2 4 2ZM5 4C5 4.55228 4.55228 5 4 5C3.44772 5 3 4.55228 3 4C3 3.44772 3.44772 3 4 3C4.55228 3 5 3.44772 5 4ZM4 8C4.55228 8 5 7.55228 5 7C5 6.44772 4.55228 6 4 6C3.44772 6 3 6.44772 3 7C3 7.55228 3.44772 8 4 8ZM8 1C8 1.55228 7.55228 2 7 2C6.44772 2 6 1.55228 6 1C6 0.447715 6.44772 0 7 0C7.55228 0 8 0.447715 8 1ZM7 5C7.55228 5 8 4.55228 8 4C8 3.44772 7.55228 3 7 3C6.44772 3 6 3.44772 6 4C6 4.55228 6.44772 5 7 5ZM8 7C8 7.55228 7.55228 8 7 8C6.44772 8 6 7.55228 6 7C6 6.44772 6.44772 6 7 6C7.55228 6 8 6.44772 8 7ZM10 2C10.5523 2 11 1.55228 11 1C11 0.447715 10.5523 0 10 0C9.44771 0 9 0.447715 9 1C9 1.55228 9.44771 2 10 2ZM11 4C11 4.55228 10.5523 5 10 5C9.44771 5 9 4.55228 9 4C9 3.44772 9.44771 3 10 3C10.5523 3 11 3.44772 11 4ZM10 8C10.5523 8 11 7.55228 11 7C11 6.44772 10.5523 6 10 6C9.44771 6 9 6.44772 9 7C9 7.55228 9.44771 8 10 8ZM14 1C14 1.55228 13.5523 2 13 2C12.4477 2 12 1.55228 12 1C12 0.447715 12.4477 0 13 0C13.5523 0 14 0.447715 14 1ZM13 5C13.5523 5 14 4.55228 14 4C14 3.44772 13.5523 3 13 3C12.4477 3 12 3.44772 12 4C12 4.55228 12.4477 5 13 5ZM14 7C14 7.55228 13.5523 8 13 8C12.4477 8 12 7.55228 12 7C12 6.44772 12.4477 6 13 6C13.5523 6 14 6.44772 14 7ZM16 2C16.5523 2 17 1.55228 17 1C17 0.447715 16.5523 0 16 0C15.4477 0 15 0.447715 15 1C15 1.55228 15.4477 2 16 2ZM17 4C17 4.55228 16.5523 5 16 5C15.4477 5 15 4.55228 15 4C15 3.44772 15.4477 3 16 3C16.5523 3 17 3.44772 17 4ZM16 8C16.5523 8 17 7.55228 17 7C17 6.44772 16.5523 6 16 6C15.4477 6 15 6.44772 15 7C15 7.55228 15.4477 8 16 8ZM20 1C20 1.55228 19.5523 2 19 2C18.4477 2 18 1.55228 18 1C18 0.447715 18.4477 0 19 0C19.5523 0 20 0.447715 20 1ZM19 5C19.5523 5 20 4.55228 20 4C20 3.44772 19.5523 3 19 3C18.4477 3 18 3.44772 18 4C18 4.55228 18.4477 5 19 5ZM20 7C20 7.55228 19.5523 8 19 8C18.4477 8 18 7.55228 18 7C18 6.44772 18.4477 6 19 6C19.5523 6 20 6.44772 20 7ZM22 2C22.5523 2 23 1.55228 23 1C23 0.447715 22.5523 0 22 0C21.4477 0 21 0.447715 21 1C21 1.55228 21.4477 2 22 2ZM23 4C23 4.55228 22.5523 5 22 5C21.4477 5 21 4.55228 21 4C21 3.44772 21.4477 3 22 3C22.5523 3 23 3.44772 23 4ZM22 8C22.5523 8 23 7.55228 23 7C23 6.44772 22.5523 6 22 6C21.4477 6 21 6.44772 21 7C21 7.55228 21.4477 8 22 8ZM26 1C26 1.55228 25.5523 2 25 2C24.4477 2 24 1.55228 24 1C24 0.447715 24.4477 0 25 0C25.5523 0 26 0.447715 26 1ZM25 5C25.5523 5 26 4.55228 26 4C26 3.44772 25.5523 3 25 3C24.4477 3 24 3.44772 24 4C24 4.55228 24.4477 5 25 5ZM26 7C26 7.55228 25.5523 8 25 8C24.4477 8 24 7.55228 24 7C24 6.44772 24.4477 6 25 6C25.5523 6 26 6.44772 26 7ZM28 2C28.5523 2 29 1.55228 29 1C29 0.447715 28.5523 0 28 0C27.4477 0 27 0.447715 27 1C27 1.55228 27.4477 2 28 2ZM29 4C29 4.55228 28.5523 5 28 5C27.4477 5 27 4.55228 27 4C27 3.44772 27.4477 3 28 3C28.5523 3 29 3.44772 29 4ZM28 8C28.5523 8 29 7.55228 29 7C29 6.44772 28.5523 6 28 6C27.4477 6 27 6.44772 27 7C27 7.55228 27.4477 8 28 8ZM32 1C32 1.55228 31.5523 2 31 2C30.4477 2 30 1.55228 30 1C30 0.447715 30.4477 0 31 0C31.5523 0 32 0.447715 32 1ZM31 5C31.5523 5 32 4.55228 32 4C32 3.44772 31.5523 3 31 3C30.4477 3 30 3.44772 30 4C30 4.55228 30.4477 5 31 5ZM32 7C32 7.55228 31.5523 8 31 8C30.4477 8 30 7.55228 30 7C30 6.44772 30.4477 6 31 6C31.5523 6 32 6.44772 32 7ZM34 2C34.5523 2 35 1.55228 35 1C35 0.447715 34.5523 0 34 0C33.4477 0 33 0.447715 33 1C33 1.55228 33.4477 2 34 2ZM35 4C35 4.55228 34.5523 5 34 5C33.4477 5 33 4.55228 33 4C33 3.44772 33.4477 3 34 3C34.5523 3 35 3.44772 35 4ZM34 8C34.5523 8 35 7.55228 35 7C35 6.44772 34.5523 6 34 6C33.4477 6 33 6.44772 33 7C33 7.55228 33.4477 8 34 8ZM38 1C38 1.55228 37.5523 2 37 2C36.4477 2 36 1.55228 36 1C36 0.447715 36.4477 0 37 0C37.5523 0 38 0.447715 38 1ZM37 5C37.5523 5 38 4.55228 38 4C38 3.44772 37.5523 3 37 3C36.4477 3 36 3.44772 36 4C36 4.55228 36.4477 5 37 5ZM38 7C38 7.55228 37.5523 8 37 8C36.4477 8 36 7.55228 36 7C36 6.44772 36.4477 6 37 6C37.5523 6 38 6.44772 38 7ZM40 2C40.5523 2 41 1.55228 41 1C41 0.447715 40.5523 0 40 0C39.4477 0 39 0.447715 39 1C39 1.55228 39.4477 2 40 2ZM41 4C41 4.55228 40.5523 5 40 5C39.4477 5 39 4.55228 39 4C39 3.44772 39.4477 3 40 3C40.5523 3 41 3.44772 41 4ZM40 8C40.5523 8 41 7.55228 41 7C41 6.44772 40.5523 6 40 6C39.4477 6 39 6.44772 39 7C39 7.55228 39.4477 8 40 8ZM44 1C44 1.55228 43.5523 2 43 2C42.4477 2 42 1.55228 42 1C42 0.447715 42.4477 0 43 0C43.5523 0 44 0.447715 44 1ZM43 5C43.5523 5 44 4.55228 44 4C44 3.44772 43.5523 3 43 3C42.4477 3 42 3.44772 42 4C42 4.55228 42.4477 5 43 5ZM44 7C44 7.55228 43.5523 8 43 8C42.4477 8 42 7.55228 42 7C42 6.44772 42.4477 6 43 6C43.5523 6 44 6.44772 44 7ZM46 2C46.5523 2 47 1.55228 47 1C47 0.447715 46.5523 0 46 0C45.4477 0 45 0.447715 45 1C45 1.55228 45.4477 2 46 2ZM47 4C47 4.55228 46.5523 5 46 5C45.4477 5 45 4.55228 45 4C45 3.44772 45.4477 3 46 3C46.5523 3 47 3.44772 47 4ZM46 8C46.5523 8 47 7.55228 47 7C47 6.44772 46.5523 6 46 6C45.4477 6 45 6.44772 45 7C45 7.55228 45.4477 8 46 8ZM5 10C5 10.5523 4.55228 11 4 11C3.44772 11 3 10.5523 3 10C3 9.44771 3.44772 9 4 9C4.55228 9 5 9.44771 5 10ZM7 11C7.55228 11 8 10.5523 8 10C8 9.44771 7.55228 9 7 9C6.44772 9 6 9.44771 6 10C6 10.5523 6.44772 11 7 11ZM11 10C11 10.5523 10.5523 11 10 11C9.44771 11 9 10.5523 9 10C9 9.44771 9.44771 9 10 9C10.5523 9 11 9.44771 11 10ZM13 11C13.5523 11 14 10.5523 14 10C14 9.44771 13.5523 9 13 9C12.4477 9 12 9.44771 12 10C12 10.5523 12.4477 11 13 11ZM17 10C17 10.5523 16.5523 11 16 11C15.4477 11 15 10.5523 15 10C15 9.44771 15.4477 9 16 9C16.5523 9 17 9.44771 17 10ZM19 11C19.5523 11 20 10.5523 20 10C20 9.44771 19.5523 9 19 9C18.4477 9 18 9.44771 18 10C18 10.5523 18.4477 11 19 11ZM23 10C23 10.5523 22.5523 11 22 11C21.4477 11 21 10.5523 21 10C21 9.44771 21.4477 9 22 9C22.5523 9 23 9.44771 23 10ZM25 11C25.5523 11 26 10.5523 26 10C26 9.44771 25.5523 9 25 9C24.4477 9 24 9.44771 24 10C24 10.5523 24.4477 11 25 11ZM29 10C29 10.5523 28.5523 11 28 11C27.4477 11 27 10.5523 27 10C27 9.44771 27.4477 9 28 9C28.5523 9 29 9.44771 29 10ZM31 11C31.5523 11 32 10.5523 32 10C32 9.44771 31.5523 9 31 9C30.4477 9 30 9.44771 30 10C30 10.5523 30.4477 11 31 11ZM35 10C35 10.5523 34.5523 11 34 11C33.4477 11 33 10.5523 33 10C33 9.44771 33.4477 9 34 9C34.5523 9 35 9.44771 35 10ZM37 11C37.5523 11 38 10.5523 38 10C38 9.44771 37.5523 9 37 9C36.4477 9 36 9.44771 36 10C36 10.5523 36.4477 11 37 11ZM41 10C41 10.5523 40.5523 11 40 11C39.4477 11 39 10.5523 39 10C39 9.44771 39.4477 9 40 9C40.5523 9 41 9.44771 41 10ZM43 11C43.5523 11 44 10.5523 44 10C44 9.44771 43.5523 9 43 9C42.4477 9 42 9.44771 42 10C42 10.5523 42.4477 11 43 11ZM47 10C47 10.5523 46.5523 11 46 11C45.4477 11 45 10.5523 45 10C45 9.44771 45.4477 9 46 9C46.5523 9 47 9.44771 47 10ZM1 11C1.55228 11 2 10.5523 2 10C2 9.44771 1.55228 9 1 9C0.447715 9 0 9.44771 0 10C0 10.5523 0.447715 11 1 11Z" fill="#FC9657"/>
</g>
<defs>
<linearGradient id="paint0_linear_12343_58749" x1="13.5" y1="6.5" x2="32" y2="6.5" gradientUnits="userSpaceOnUse">
<stop stop-color="white" stop-opacity="0"/>
<stop offset="0.525" stop-color="#AAAAAA" stop-opacity="0.46"/>
<stop offset="1" stop-color="white" stop-opacity="0"/>
</linearGradient>
</defs>
</svg>
