<svg width="1920" height="1080" viewBox="0 0 1920 1080" fill="none" xmlns="http://www.w3.org/2000/svg">
<g opacity="0.4" filter="url(#filter0_f_17896_158476)">
<path d="M106 1054L647.5 1030L670 1050.5H952.5H1249.5L1272 1030L1813.5 1054" stroke="url(#paint0_linear_17896_158476)" stroke-width="10"/>
</g>
<g filter="url(#filter1_d_17896_158476)">
<path d="M106 1054L647.5 1030L670 1050.5H952.5H1249.5L1272 1030L1813.5 1054" stroke="url(#paint1_linear_17896_158476)" stroke-width="2" shape-rendering="crispEdges"/>
</g>
<path opacity="0.4" d="M106 1061L644.5 1037L667 1057.5H952.5H1252.5L1275 1037L1813.5 1061" stroke="url(#paint2_linear_17896_158476)" stroke-width="2"/>
<path d="M667 1057H952.5H1252.5" stroke="url(#paint3_linear_17896_158476)" stroke-width="2"/>
<g filter="url(#filter2_f_17896_158476)">
<path d="M554.5 1065.5C569.3 1065.1 615.5 1057.67 635 1054L645.5 1067C621.5 1067.67 566.9 1068.3 554.5 1065.5Z" fill="url(#paint4_linear_17896_158476)"/>
</g>
<g filter="url(#filter3_dd_17896_158476)">
<path d="M628 1055H635L645.5 1067H638.5L628 1055Z" fill="#FDFEFF"/>
<path d="M615.5 1056.71H622.5L631.5 1067H624.5L615.5 1056.71Z" fill="#FDFEFF"/>
<path d="M603.29 1058.19H610.29L617.999 1067H610.999L603.29 1058.19Z" fill="#FDFEFF"/>
<path d="M591.275 1060.79H598.275L603.714 1067H596.714L591.275 1060.79Z" fill="#FDFEFF"/>
<path d="M579.5 1062.5H586.5L590.444 1066.99H583.444L579.5 1062.5Z" fill="#FDFEFF"/>
<path d="M566.248 1063.92H573.248L575.948 1067H568.948L566.248 1063.92Z" fill="#FDFEFF"/>
<path d="M554 1065H561L563.068 1066.99H556.068L554 1065Z" fill="#FDFEFF"/>
</g>
<g filter="url(#filter4_f_17896_158476)">
<path d="M1365 1065.5C1350.2 1065.1 1304 1057.67 1284.5 1054L1274 1067C1298 1067.67 1352.6 1068.3 1365 1065.5Z" fill="url(#paint5_linear_17896_158476)"/>
</g>
<g filter="url(#filter5_dd_17896_158476)">
<path d="M1291.5 1055H1284.5L1274 1067H1281L1291.5 1055Z" fill="#FDFEFF"/>
<path d="M1304 1056.71H1297L1288 1067H1295L1304 1056.71Z" fill="#FDFEFF"/>
<path d="M1316.21 1058.19H1309.21L1301.5 1067H1308.5L1316.21 1058.19Z" fill="#FDFEFF"/>
<path d="M1328.23 1060.79H1321.23L1315.79 1067H1322.79L1328.23 1060.79Z" fill="#FDFEFF"/>
<path d="M1340 1062.5H1333L1329.06 1066.99H1336.06L1340 1062.5Z" fill="#FDFEFF"/>
<path d="M1353.25 1063.92H1346.25L1343.55 1067H1350.55L1353.25 1063.92Z" fill="#FDFEFF"/>
<path d="M1365.5 1065H1358.5L1356.43 1066.99H1363.43L1365.5 1065Z" fill="#FDFEFF"/>
</g>
<mask id="mask0_17896_158476" style="mask-type:alpha" maskUnits="userSpaceOnUse" x="1" y="5" width="105" height="1061">
<path opacity="0.6" d="M105 13L33.5 22.5L9 51.5V1030.5L31 1057.5L105 1054" stroke="url(#paint6_linear_17896_158476)" stroke-width="15"/>
</mask>
<g mask="url(#mask0_17896_158476)">
<g opacity="0.6" filter="url(#filter6_f_17896_158476)">
<path d="M105 13L33.5 22.5L9 51.5V1030.5L31 1057.5L105 1054" stroke="url(#paint7_linear_17896_158476)" stroke-width="15"/>
</g>
</g>
<mask id="mask1_17896_158476" style="mask-type:alpha" maskUnits="userSpaceOnUse" x="8" y="12" width="98" height="1047">
<path d="M105 13L33.5 22.5L9 51.5V1030.5L31 1057.5L105 1054" stroke="url(#paint8_linear_17896_158476)" stroke-width="2"/>
</mask>
<g mask="url(#mask1_17896_158476)">
<path d="M105 13L33.5 22.5L9 51.5V1030.5L31 1057.5L105 1054" stroke="url(#paint9_linear_17896_158476)" stroke-width="2"/>
</g>
<g filter="url(#filter7_f_17896_158476)">
<path d="M9.18483 23.1854L6.3632 38.7349L13.0739 27.0745L24.7344 20.3638L9.18483 23.1854Z" fill="#C4D6E5"/>
</g>
<path opacity="0.4" d="M9.17848 23.1922L7.76427 34.5059C9.76737 28.4966 14.4829 23.7811 20.4922 21.778L9.17848 23.1922Z" fill="#C5D6E5"/>
<g filter="url(#filter8_f_17896_158476)">
<path d="M9.18483 1057.55L6.3632 1042L13.0739 1053.66L24.7344 1060.37L9.18483 1057.55Z" fill="#C4D6E5"/>
</g>
<path opacity="0.4" d="M9.17848 1057.54L7.76427 1046.23C9.76737 1052.24 14.4829 1056.95 20.4922 1058.96L9.17848 1057.54Z" fill="#C5D6E5"/>
<path opacity="0.5" d="M21 43V1040" stroke="url(#paint10_linear_17896_158476)" stroke-width="2"/>
<rect opacity="0.8" x="20" y="555" width="26" height="2" transform="rotate(-90 20 555)" fill="#C3D8ED"/>
<g filter="url(#filter9_d_17896_158476)">
<path d="M31 542L25 536L25 548L31 542Z" fill="#FDFEFF"/>
</g>
<mask id="mask2_17896_158476" style="mask-type:alpha" maskUnits="userSpaceOnUse" x="1814" y="5" width="105" height="1061">
<path opacity="0.6" d="M1815 13L1886.5 22.5L1911 51.5V1030.5L1889 1057.5L1815 1054" stroke="url(#paint11_linear_17896_158476)" stroke-width="15"/>
</mask>
<g mask="url(#mask2_17896_158476)">
<g opacity="0.6" filter="url(#filter10_f_17896_158476)">
<path d="M1815 13L1886.5 22.5L1911 51.5V1030.5L1889 1057.5L1815 1054" stroke="url(#paint12_linear_17896_158476)" stroke-width="15"/>
</g>
</g>
<mask id="mask3_17896_158476" style="mask-type:alpha" maskUnits="userSpaceOnUse" x="1814" y="12" width="98" height="1047">
<path d="M1815 13L1886.5 22.5L1911 51.5V1030.5L1889 1057.5L1815 1054" stroke="url(#paint13_linear_17896_158476)" stroke-width="2"/>
</mask>
<g mask="url(#mask3_17896_158476)">
<path d="M1815 13L1886.5 22.5L1911 51.5V1030.5L1889 1057.5L1815 1054" stroke="url(#paint14_linear_17896_158476)" stroke-width="2"/>
</g>
<g filter="url(#filter11_f_17896_158476)">
<path d="M1910.82 23.1854L1913.64 38.7349L1906.93 27.0745L1895.27 20.3638L1910.82 23.1854Z" fill="#C4D6E5"/>
</g>
<path opacity="0.4" d="M1910.82 23.1922L1912.24 34.5059C1910.23 28.4966 1905.52 23.7811 1899.51 21.778L1910.82 23.1922Z" fill="#C5D6E5"/>
<g filter="url(#filter12_f_17896_158476)">
<path d="M1910.82 1057.55L1913.64 1042L1906.93 1053.66L1895.27 1060.37L1910.82 1057.55Z" fill="#C4D6E5"/>
</g>
<path opacity="0.4" d="M1910.82 1057.54L1912.24 1046.23C1910.23 1052.24 1905.52 1056.95 1899.51 1058.96L1910.82 1057.54Z" fill="#C5D6E5"/>
<path opacity="0.5" d="M1899 43V1040" stroke="url(#paint15_linear_17896_158476)" stroke-width="2"/>
<rect opacity="0.8" width="26" height="2" transform="matrix(4.37114e-08 -1 -1 -4.37114e-08 1900 555)" fill="#C3D8ED"/>
<g filter="url(#filter13_d_17896_158476)">
<path d="M1889 542L1895 536L1895 548L1889 542Z" fill="#FDFEFF"/>
</g>
<defs>
<filter id="filter0_f_17896_158476" x="99.7773" y="1018.91" width="1719.95" height="46.0817" filterUnits="userSpaceOnUse" color-interpolation-filters="sRGB">
<feFlood flood-opacity="0" result="BackgroundImageFix"/>
<feBlend mode="normal" in="SourceGraphic" in2="BackgroundImageFix" result="shape"/>
<feGaussianBlur stdDeviation="3" result="effect1_foregroundBlur_17896_158476"/>
</filter>
<filter id="filter1_d_17896_158476" x="85.957" y="1008.98" width="1747.59" height="66.0164" filterUnits="userSpaceOnUse" color-interpolation-filters="sRGB">
<feFlood flood-opacity="0" result="BackgroundImageFix"/>
<feColorMatrix in="SourceAlpha" type="matrix" values="0 0 0 0 0 0 0 0 0 0 0 0 0 0 0 0 0 0 127 0" result="hardAlpha"/>
<feOffset/>
<feGaussianBlur stdDeviation="10"/>
<feComposite in2="hardAlpha" operator="out"/>
<feColorMatrix type="matrix" values="0 0 0 0 0.105363 0 0 0 0 0.325397 0 0 0 0 0.69598 0 0 0 1 0"/>
<feBlend mode="normal" in2="BackgroundImageFix" result="effect1_dropShadow_17896_158476"/>
<feBlend mode="normal" in="SourceGraphic" in2="effect1_dropShadow_17896_158476" result="shape"/>
</filter>
<filter id="filter2_f_17896_158476" x="550.5" y="1050" width="99" height="21.5713" filterUnits="userSpaceOnUse" color-interpolation-filters="sRGB">
<feFlood flood-opacity="0" result="BackgroundImageFix"/>
<feBlend mode="normal" in="SourceGraphic" in2="BackgroundImageFix" result="shape"/>
<feGaussianBlur stdDeviation="2" result="effect1_foregroundBlur_17896_158476"/>
</filter>
<filter id="filter3_dd_17896_158476" x="534" y="1035" width="131.5" height="52" filterUnits="userSpaceOnUse" color-interpolation-filters="sRGB">
<feFlood flood-opacity="0" result="BackgroundImageFix"/>
<feColorMatrix in="SourceAlpha" type="matrix" values="0 0 0 0 0 0 0 0 0 0 0 0 0 0 0 0 0 0 127 0" result="hardAlpha"/>
<feOffset/>
<feGaussianBlur stdDeviation="10"/>
<feComposite in2="hardAlpha" operator="out"/>
<feColorMatrix type="matrix" values="0 0 0 0 0.145098 0 0 0 0 0.403922 0 0 0 0 0.792157 0 0 0 1 0"/>
<feBlend mode="normal" in2="BackgroundImageFix" result="effect1_dropShadow_17896_158476"/>
<feColorMatrix in="SourceAlpha" type="matrix" values="0 0 0 0 0 0 0 0 0 0 0 0 0 0 0 0 0 0 127 0" result="hardAlpha"/>
<feOffset/>
<feGaussianBlur stdDeviation="10"/>
<feComposite in2="hardAlpha" operator="out"/>
<feColorMatrix type="matrix" values="0 0 0 0 0.145098 0 0 0 0 0.403922 0 0 0 0 0.792157 0 0 0 1 0"/>
<feBlend mode="normal" in2="effect1_dropShadow_17896_158476" result="effect2_dropShadow_17896_158476"/>
<feBlend mode="normal" in="SourceGraphic" in2="effect2_dropShadow_17896_158476" result="shape"/>
</filter>
<filter id="filter4_f_17896_158476" x="1270" y="1050" width="99" height="21.5713" filterUnits="userSpaceOnUse" color-interpolation-filters="sRGB">
<feFlood flood-opacity="0" result="BackgroundImageFix"/>
<feBlend mode="normal" in="SourceGraphic" in2="BackgroundImageFix" result="shape"/>
<feGaussianBlur stdDeviation="2" result="effect1_foregroundBlur_17896_158476"/>
</filter>
<filter id="filter5_dd_17896_158476" x="1254" y="1035" width="131.5" height="52" filterUnits="userSpaceOnUse" color-interpolation-filters="sRGB">
<feFlood flood-opacity="0" result="BackgroundImageFix"/>
<feColorMatrix in="SourceAlpha" type="matrix" values="0 0 0 0 0 0 0 0 0 0 0 0 0 0 0 0 0 0 127 0" result="hardAlpha"/>
<feOffset/>
<feGaussianBlur stdDeviation="10"/>
<feComposite in2="hardAlpha" operator="out"/>
<feColorMatrix type="matrix" values="0 0 0 0 0.145098 0 0 0 0 0.403922 0 0 0 0 0.792157 0 0 0 1 0"/>
<feBlend mode="normal" in2="BackgroundImageFix" result="effect1_dropShadow_17896_158476"/>
<feColorMatrix in="SourceAlpha" type="matrix" values="0 0 0 0 0 0 0 0 0 0 0 0 0 0 0 0 0 0 127 0" result="hardAlpha"/>
<feOffset/>
<feGaussianBlur stdDeviation="10"/>
<feComposite in2="hardAlpha" operator="out"/>
<feColorMatrix type="matrix" values="0 0 0 0 0.145098 0 0 0 0 0.403922 0 0 0 0 0.792157 0 0 0 1 0"/>
<feBlend mode="normal" in2="effect1_dropShadow_17896_158476" result="effect2_dropShadow_17896_158476"/>
<feBlend mode="normal" in="SourceGraphic" in2="effect2_dropShadow_17896_158476" result="shape"/>
</filter>
<filter id="filter6_f_17896_158476" x="-4.5" y="-0.434692" width="116.488" height="1071.61" filterUnits="userSpaceOnUse" color-interpolation-filters="sRGB">
<feFlood flood-opacity="0" result="BackgroundImageFix"/>
<feBlend mode="normal" in="SourceGraphic" in2="BackgroundImageFix" result="shape"/>
<feGaussianBlur stdDeviation="3" result="effect1_foregroundBlur_17896_158476"/>
</filter>
<filter id="filter7_f_17896_158476" x="4.36328" y="18.3638" width="22.3711" height="22.3712" filterUnits="userSpaceOnUse" color-interpolation-filters="sRGB">
<feFlood flood-opacity="0" result="BackgroundImageFix"/>
<feBlend mode="normal" in="SourceGraphic" in2="BackgroundImageFix" result="shape"/>
<feGaussianBlur stdDeviation="1" result="effect1_foregroundBlur_17896_158476"/>
</filter>
<filter id="filter8_f_17896_158476" x="4.36328" y="1040" width="22.3711" height="22.3712" filterUnits="userSpaceOnUse" color-interpolation-filters="sRGB">
<feFlood flood-opacity="0" result="BackgroundImageFix"/>
<feBlend mode="normal" in="SourceGraphic" in2="BackgroundImageFix" result="shape"/>
<feGaussianBlur stdDeviation="1" result="effect1_foregroundBlur_17896_158476"/>
</filter>
<filter id="filter9_d_17896_158476" x="21" y="533" width="14" height="20" filterUnits="userSpaceOnUse" color-interpolation-filters="sRGB">
<feFlood flood-opacity="0" result="BackgroundImageFix"/>
<feColorMatrix in="SourceAlpha" type="matrix" values="0 0 0 0 0 0 0 0 0 0 0 0 0 0 0 0 0 0 127 0" result="hardAlpha"/>
<feOffset dy="1"/>
<feGaussianBlur stdDeviation="2"/>
<feComposite in2="hardAlpha" operator="out"/>
<feColorMatrix type="matrix" values="0 0 0 0 0.11336 0 0 0 0 0.384977 0 0 0 0 0.728743 0 0 0 1 0"/>
<feBlend mode="normal" in2="BackgroundImageFix" result="effect1_dropShadow_17896_158476"/>
<feBlend mode="normal" in="SourceGraphic" in2="effect1_dropShadow_17896_158476" result="shape"/>
</filter>
<filter id="filter10_f_17896_158476" x="1808.01" y="-0.434692" width="116.488" height="1071.61" filterUnits="userSpaceOnUse" color-interpolation-filters="sRGB">
<feFlood flood-opacity="0" result="BackgroundImageFix"/>
<feBlend mode="normal" in="SourceGraphic" in2="BackgroundImageFix" result="shape"/>
<feGaussianBlur stdDeviation="3" result="effect1_foregroundBlur_17896_158476"/>
</filter>
<filter id="filter11_f_17896_158476" x="1893.27" y="18.3638" width="22.3711" height="22.3712" filterUnits="userSpaceOnUse" color-interpolation-filters="sRGB">
<feFlood flood-opacity="0" result="BackgroundImageFix"/>
<feBlend mode="normal" in="SourceGraphic" in2="BackgroundImageFix" result="shape"/>
<feGaussianBlur stdDeviation="1" result="effect1_foregroundBlur_17896_158476"/>
</filter>
<filter id="filter12_f_17896_158476" x="1893.27" y="1040" width="22.3711" height="22.3712" filterUnits="userSpaceOnUse" color-interpolation-filters="sRGB">
<feFlood flood-opacity="0" result="BackgroundImageFix"/>
<feBlend mode="normal" in="SourceGraphic" in2="BackgroundImageFix" result="shape"/>
<feGaussianBlur stdDeviation="1" result="effect1_foregroundBlur_17896_158476"/>
</filter>
<filter id="filter13_d_17896_158476" x="1885" y="533" width="14" height="20" filterUnits="userSpaceOnUse" color-interpolation-filters="sRGB">
<feFlood flood-opacity="0" result="BackgroundImageFix"/>
<feColorMatrix in="SourceAlpha" type="matrix" values="0 0 0 0 0 0 0 0 0 0 0 0 0 0 0 0 0 0 127 0" result="hardAlpha"/>
<feOffset dy="1"/>
<feGaussianBlur stdDeviation="2"/>
<feComposite in2="hardAlpha" operator="out"/>
<feColorMatrix type="matrix" values="0 0 0 0 0.11336 0 0 0 0 0.384977 0 0 0 0 0.728743 0 0 0 1 0"/>
<feBlend mode="normal" in2="BackgroundImageFix" result="effect1_dropShadow_17896_158476"/>
<feBlend mode="normal" in="SourceGraphic" in2="effect1_dropShadow_17896_158476" result="shape"/>
</filter>
<linearGradient id="paint0_linear_17896_158476" x1="106.5" y1="1054" x2="1813.5" y2="1054" gradientUnits="userSpaceOnUse">
<stop stop-color="#1B53B1" stop-opacity="0"/>
<stop offset="0.317642" stop-color="#1B53B1"/>
<stop offset="0.400495" stop-color="#1B53B1" stop-opacity="0.2"/>
<stop offset="0.567368" stop-color="#1B53B1" stop-opacity="0.2"/>
<stop offset="0.683434" stop-color="#1B53B1"/>
<stop offset="1" stop-color="#1B53B1" stop-opacity="0"/>
</linearGradient>
<linearGradient id="paint1_linear_17896_158476" x1="106.5" y1="1054" x2="1813.5" y2="1054" gradientUnits="userSpaceOnUse">
<stop stop-color="#D9E1EB" stop-opacity="0"/>
<stop offset="0.317642" stop-color="#D9E1EB"/>
<stop offset="0.400495" stop-color="#D9E1EB" stop-opacity="0.2"/>
<stop offset="0.567368" stop-color="#D9E1EB" stop-opacity="0.2"/>
<stop offset="0.683434" stop-color="#D9E1EB"/>
<stop offset="1" stop-color="#D9E1EB" stop-opacity="0"/>
</linearGradient>
<linearGradient id="paint2_linear_17896_158476" x1="106.5" y1="1061" x2="1813.5" y2="1061" gradientUnits="userSpaceOnUse">
<stop stop-color="#D9E1EB" stop-opacity="0"/>
<stop offset="0.317642" stop-color="#D9E1EB"/>
<stop offset="0.400495" stop-color="#D9E1EB" stop-opacity="0.2"/>
<stop offset="0.567368" stop-color="#D9E1EB" stop-opacity="0.2"/>
<stop offset="0.683434" stop-color="#D9E1EB"/>
<stop offset="1" stop-color="#D9E1EB" stop-opacity="0"/>
</linearGradient>
<linearGradient id="paint3_linear_17896_158476" x1="667.5" y1="1058" x2="1252.5" y2="1058" gradientUnits="userSpaceOnUse">
<stop stop-color="#D9E1EB" stop-opacity="0"/>
<stop offset="0.5" stop-color="#D9E1EB" stop-opacity="0.8"/>
<stop offset="1" stop-color="#D9E1EB" stop-opacity="0"/>
</linearGradient>
<linearGradient id="paint4_linear_17896_158476" x1="640" y1="1060" x2="555" y2="1065.5" gradientUnits="userSpaceOnUse">
<stop stop-color="#2669CB"/>
<stop offset="1" stop-color="#2669CB" stop-opacity="0.2"/>
</linearGradient>
<linearGradient id="paint5_linear_17896_158476" x1="1279.5" y1="1060" x2="1364.5" y2="1065.5" gradientUnits="userSpaceOnUse">
<stop stop-color="#2669CB"/>
<stop offset="1" stop-color="#2669CB" stop-opacity="0.2"/>
</linearGradient>
<linearGradient id="paint6_linear_17896_158476" x1="9" y1="462" x2="105" y2="462" gradientUnits="userSpaceOnUse">
<stop offset="0.489771" stop-color="white"/>
<stop offset="1" stop-color="white" stop-opacity="0"/>
</linearGradient>
<linearGradient id="paint7_linear_17896_158476" x1="57" y1="13" x2="57" y2="1057.5" gradientUnits="userSpaceOnUse">
<stop offset="0.0084924" stop-color="#1F447E"/>
<stop offset="0.0375921" stop-color="#1F447E" stop-opacity="0.1"/>
<stop offset="0.48906" stop-color="#1F447E"/>
<stop offset="0.701203" stop-color="#1F447E"/>
<stop offset="0.971738" stop-color="#1F447E" stop-opacity="0.1"/>
<stop offset="1" stop-color="#1F447E" stop-opacity="0.7"/>
</linearGradient>
<linearGradient id="paint8_linear_17896_158476" x1="9" y1="462" x2="105" y2="462" gradientUnits="userSpaceOnUse">
<stop offset="0.489771" stop-color="white"/>
<stop offset="1" stop-color="white" stop-opacity="0"/>
</linearGradient>
<linearGradient id="paint9_linear_17896_158476" x1="57" y1="13" x2="57" y2="1057.5" gradientUnits="userSpaceOnUse">
<stop offset="0.0084924" stop-color="#B9C9D7"/>
<stop offset="0.0375921" stop-color="#B9C9D7" stop-opacity="0.1"/>
<stop offset="0.48906" stop-color="#B2BBC8"/>
<stop offset="0.701203" stop-color="#B2BBC8"/>
<stop offset="0.971738" stop-color="#B2BBC8" stop-opacity="0.1"/>
<stop offset="1" stop-color="#B2BBC8" stop-opacity="0.7"/>
</linearGradient>
<linearGradient id="paint10_linear_17896_158476" x1="21.5" y1="43" x2="21.5" y2="1040" gradientUnits="userSpaceOnUse">
<stop stop-color="#B2BBC8" stop-opacity="0"/>
<stop offset="0.159596" stop-color="#B2BBC8" stop-opacity="0.7"/>
<stop offset="0.5" stop-color="#B2BBC8"/>
<stop offset="0.837871" stop-color="#B2BBC8" stop-opacity="0.7"/>
<stop offset="1" stop-color="#B2BBC8" stop-opacity="0"/>
</linearGradient>
<linearGradient id="paint11_linear_17896_158476" x1="1911" y1="462" x2="1815" y2="462" gradientUnits="userSpaceOnUse">
<stop offset="0.489771" stop-color="white"/>
<stop offset="1" stop-color="white" stop-opacity="0"/>
</linearGradient>
<linearGradient id="paint12_linear_17896_158476" x1="1863" y1="13" x2="1863" y2="1057.5" gradientUnits="userSpaceOnUse">
<stop offset="0.0084924" stop-color="#1F447E"/>
<stop offset="0.0375921" stop-color="#1F447E" stop-opacity="0.1"/>
<stop offset="0.48906" stop-color="#1F447E"/>
<stop offset="0.701203" stop-color="#1F447E"/>
<stop offset="0.971738" stop-color="#1F447E" stop-opacity="0.1"/>
<stop offset="1" stop-color="#1F447E" stop-opacity="0.7"/>
</linearGradient>
<linearGradient id="paint13_linear_17896_158476" x1="1911" y1="462" x2="1815" y2="462" gradientUnits="userSpaceOnUse">
<stop offset="0.489771" stop-color="white"/>
<stop offset="1" stop-color="white" stop-opacity="0"/>
</linearGradient>
<linearGradient id="paint14_linear_17896_158476" x1="1863" y1="13" x2="1863" y2="1057.5" gradientUnits="userSpaceOnUse">
<stop offset="0.0084924" stop-color="#B9C9D7"/>
<stop offset="0.0375921" stop-color="#B9C9D7" stop-opacity="0.1"/>
<stop offset="0.48906" stop-color="#B2BBC8"/>
<stop offset="0.701203" stop-color="#B2BBC8"/>
<stop offset="0.971738" stop-color="#B2BBC8" stop-opacity="0.1"/>
<stop offset="1" stop-color="#B2BBC8" stop-opacity="0.7"/>
</linearGradient>
<linearGradient id="paint15_linear_17896_158476" x1="1898.5" y1="43" x2="1898.5" y2="1040" gradientUnits="userSpaceOnUse">
<stop stop-color="#B2BBC8" stop-opacity="0"/>
<stop offset="0.159596" stop-color="#B2BBC8" stop-opacity="0.7"/>
<stop offset="0.5" stop-color="#B2BBC8"/>
<stop offset="0.837871" stop-color="#B2BBC8" stop-opacity="0.7"/>
<stop offset="1" stop-color="#B2BBC8" stop-opacity="0"/>
</linearGradient>
</defs>
</svg>
