<svg viewBox="0 0 838 418" fill="none" xmlns="http://www.w3.org/2000/svg">
  <g clip-path="url(#clip0_535_44214)">
    <rect width="838" height="418" fill="#020150" />
    <g filter="url(#filter0_i_535_44214)">
      <path fill-rule="evenodd" clip-rule="evenodd"
        d="M838 0H552.45L538.222 16.3865H430.715H299.942L285.739 0H0V406.501C0 412.852 11.9377 418 26.6636 418H811.336C826.062 418 838 412.852 838 406.501V0Z"
        fill="#02004D" fill-opacity="0.5" />
    </g>
    <path
      d="M285.282 1L299.187 17.041L299.485 17.3867H538.678L538.978 17.042L552.906 1H837V406.501C837 407.753 836.416 409.028 835.19 410.277C833.961 411.531 832.132 412.706 829.794 413.714C825.121 415.729 818.596 417 811.336 417H26.6641C19.4042 417 12.8788 415.729 8.20605 413.714C5.86819 412.706 4.03924 411.531 2.80957 410.277C1.58428 409.028 1 407.753 1 406.501V1H285.282Z"
      stroke="#0D53B7" stroke-width="2" />
    <path fill-rule="evenodd" clip-rule="evenodd" d="M0 0H8.09999V18.473H0V0Z" fill="#0E5FFF" />
    <path d="M295 0H544C544 8.28428 536.754 15 527.814 15H311.186C302.246 15 295 8.28428 295 0Z"
      fill="url(#paint0_linear_535_44214)" />
    <path fill-rule="evenodd" clip-rule="evenodd"
      d="M295.324 3C296.823 9.84672 303.355 15 311.186 15H527.814C535.645 15 542.176 9.84672 543.676 3C543.888 2.03067 544 1.0274 544 0H295C295 1.0274 295.112 2.03067 295.324 3ZM298.645 3C300.082 8.17567 305.152 12 311.186 12H527.814C533.848 12 538.918 8.17567 540.355 3H298.645Z"
      fill="#3D7FFF" />
  </g>
  <defs>
    <filter id="filter0_i_535_44214" x="0" y="0" width="838" height="418"
      filterUnits="userSpaceOnUse" color-interpolation-filters="sRGB">
      <feFlood flood-opacity="0" result="BackgroundImageFix" />
      <feBlend mode="normal" in="SourceGraphic" in2="BackgroundImageFix" result="shape" />
      <feColorMatrix in="SourceAlpha" type="matrix"
        values="0 0 0 0 0 0 0 0 0 0 0 0 0 0 0 0 0 0 127 0" result="hardAlpha" />
      <feOffset />
      <feGaussianBlur stdDeviation="17" />
      <feComposite in2="hardAlpha" operator="arithmetic" k2="-1" k3="1" />
      <feColorMatrix type="matrix"
        values="0 0 0 0 0.0666667 0 0 0 0 0.156863 0 0 0 0 1 0 0 0 0.66 0" />
      <feBlend mode="normal" in2="shape" result="effect1_innerShadow_535_44214" />
    </filter>
    <linearGradient id="paint0_linear_535_44214" x1="294.999" y1="7.5" x2="294.999" y2="0"
      gradientUnits="userSpaceOnUse">
      <stop stop-color="#0C56F1" />
      <stop offset="1" stop-color="#040763" />
    </linearGradient>
    <clipPath id="clip0_535_44214">
      <rect width="838" height="418" fill="white" />
    </clipPath>
  </defs>
</svg>