<svg viewBox="0 0 901 87" fill="none" xmlns="http://www.w3.org/2000/svg"
  xmlns:xlink="http://www.w3.org/1999/xlink">
  <g clip-path="url(#clip0_535_44105)">
    <g clip-path="url(#clip1_535_44105)">
      <g clip-path="url(#clip2_535_44105)">
        <path d="M810.977 66.168H1102.06L1122.2 86.448H1260.78L1280.74 73.978H1379.69H1414"
          stroke="url(#paint0_linear_535_44105)" stroke-width="4" stroke-linecap="round"
          stroke-linejoin="round" />
      </g>
    </g>
    <g clip-path="url(#clip3_535_44105)">
      <path fill-rule="evenodd" clip-rule="evenodd"
        d="M830 12H724.997L685.008 70.0234H793.824L830 12Z" fill="url(#paint1_linear_535_44105)" />
      <path
        d="M758 36C760.761 36 763 38.2386 763 41C763 43.7614 760.761 46 758 46C755.239 46 753 43.7614 753 41C753 38.2386 755.239 36 758 36Z"
        stroke="#00FFF4" stroke-width="2" />
      <path fill-rule="evenodd" clip-rule="evenodd"
        d="M738 41C738 44.3137 735.314 47 732 47C728.686 47 726 44.3137 726 41C726 37.6863 728.686 35 732 35C735.314 35 738 37.6863 738 41Z"
        fill="#00FFF4" />
      <path fill-rule="evenodd" clip-rule="evenodd"
        d="M790 41C790 44.3137 787.314 47 784 47C780.686 47 778 44.3137 778 41C778 37.6863 780.686 35 784 35C787.314 35 790 37.6863 790 41Z"
        fill="#00FFF4" />
    </g>
    <path fill-rule="evenodd" clip-rule="evenodd"
      d="M810 61H818.03L849.9 13H841.87L810 61ZM822.323 61H830.354L862.224 13H854.194L822.323 61ZM842.677 61H834.647L866.517 13H874.547L842.677 61ZM846.971 61H855.001L886.871 13H878.841L846.971 61ZM867.324 61H859.294L891.164 13H899.194L867.324 61ZM871.618 61H879.648L911.518 13H903.488L871.618 61ZM891.971 61H883.941L915.811 13H923.841L891.971 61ZM896.265 61H904.295L936.165 13H928.135L896.265 61ZM916.618 61H908.588L940.458 13H948.488L916.618 61ZM920.912 61H928.942L960.812 13H952.782L920.912 61ZM941.265 61H933.235L965.105 13H973.135L941.265 61ZM945.559 61H953.589L985.459 13H977.429L945.559 61ZM965.912 61H957.882L989.752 13H997.782L965.912 61ZM970.206 61H978.236L1010.11 13H1002.08L970.206 61ZM982.529 61H990.559L1022.43 13H1014.4L982.529 61ZM994.853 61H1002.88L1034.75 13H1026.72L994.853 61ZM1015.21 61H1007.18L1039.05 13H1047.08L1015.21 61ZM1019.5 61H1027.53L1059.4 13H1051.37L1019.5 61ZM1039.85 61H1031.82L1063.69 13H1071.72L1039.85 61ZM1044.15 61H1052.18L1084.05 13H1076.02L1044.15 61ZM1064.5 61H1056.47L1088.34 13H1096.37L1064.5 61ZM1068.79 61H1076.82L1108.69 13H1100.66L1068.79 61ZM1089.15 61H1081.12L1112.99 13H1121.02L1089.15 61ZM1093.44 61H1101.47L1133.34 13H1125.31L1093.44 61ZM1113.8 61H1105.77L1137.64 13H1145.67L1113.8 61ZM1118.09 61H1126.12L1157.99 13H1149.96L1118.09 61ZM1138.44 61H1130.41L1162.28 13H1170.31L1138.44 61ZM1142.73 61H1150.76L1182.63 13H1174.6L1142.73 61ZM1163.09 61H1155.06L1186.93 13H1194.96L1163.09 61ZM1167.38 61H1175.41L1207.28 13H1199.25L1167.38 61ZM1179.71 61H1187.74L1219.61 13H1211.58L1179.71 61ZM1192.03 61H1200.06L1231.93 13H1223.9L1192.03 61ZM1212.38 61H1204.35L1236.22 13H1244.25L1212.38 61ZM1216.68 61H1224.71L1256.58 13H1248.55L1216.68 61ZM1237.03 61H1229L1260.87 13H1268.9L1237.03 61Z"
      fill="url(#paint2_linear_535_44105)" />
  </g>
  <g clip-path="url(#clip4_535_44105)">
    <g clip-path="url(#clip5_535_44105)">
      <g clip-path="url(#clip6_535_44105)">
        <path d="M97.02 66.168H-194.06L-214.2 86.448H-352.77L-372.73 73.978H-471.69H-506"
          stroke="url(#paint3_linear_535_44105)" stroke-width="4" stroke-linecap="round"
          stroke-linejoin="round" />
      </g>
    </g>
    <g clip-path="url(#clip7_535_44105)">
      <path fill-rule="evenodd" clip-rule="evenodd"
        d="M78 12H183.003L222.992 70.0234H114.176L78 12Z" fill="url(#paint4_linear_535_44105)" />
      <path
        d="M150 36C152.761 36 155 38.2386 155 41C155 43.7614 152.761 46 150 46C147.239 46 145 43.7614 145 41C145 38.2386 147.239 36 150 36Z"
        stroke="#00FFF4" stroke-width="2" />
      <path fill-rule="evenodd" clip-rule="evenodd"
        d="M182 41C182 44.3137 179.314 47 176 47C172.686 47 170 44.3137 170 41C170 37.6863 172.686 35 176 35C179.314 35 182 37.6863 182 41Z"
        fill="#00FFF4" />
      <path fill-rule="evenodd" clip-rule="evenodd"
        d="M130 41C130 44.3137 127.314 47 124 47C120.686 47 118 44.3137 118 41C118 37.6863 120.686 35 124 35C127.314 35 130 37.6863 130 41Z"
        fill="#00FFF4" />
    </g>
    <path fill-rule="evenodd" clip-rule="evenodd"
      d="M-360.901 13L-329.031 61H-321.001L-352.871 13H-360.901ZM-348.577 13L-316.707 61H-308.677L-340.547 13H-348.577ZM-304.383 61L-336.253 13H-328.223L-296.353 61H-304.383ZM-323.93 13L-292.06 61H-284.03L-315.9 13H-323.93ZM-311.606 13L-279.736 61H-271.706L-303.576 13H-311.606ZM-299.283 13L-267.413 61H-259.383L-291.253 13H-299.283ZM-255.09 61L-286.959 13H-278.929L-247.06 61H-255.09ZM-274.636 13L-242.766 61H-234.736L-266.606 13H-274.636ZM-230.443 61L-262.312 13H-254.283L-222.413 61H-230.443ZM-249.989 13L-218.119 61H-210.089L-241.959 13H-249.989ZM-205.796 61L-237.666 13H-229.636L-197.766 61H-205.796ZM-225.342 13L-193.472 61H-185.441L-217.312 13H-225.342ZM-181.149 61L-213.019 13H-204.989L-173.118 61H-181.149ZM-200.695 13L-168.825 61H-160.795L-192.665 13H-200.695ZM-156.502 61L-188.372 13H-180.342L-148.471 61H-156.502ZM-176.048 13L-144.178 61H-136.148L-168.018 13H-176.048ZM-131.855 61L-163.725 13H-155.695L-123.824 61H-131.855ZM-151.401 13L-119.531 61H-111.501L-143.371 13H-151.401ZM-107.208 61L-139.077 13H-131.047L-99.1765 61H-107.208ZM-126.754 13L-94.8835 61H-86.8535L-118.724 13H-126.754ZM-114.43 13L-82.5595 61H-74.5295L-106.4 13H-114.43ZM-102.107 13L-70.2365 61H-62.2065L-94.0765 13H-102.107ZM-57.9125 61L-89.7825 13H-81.7525L-49.8825 61H-57.9125ZM-77.4595 13L-45.5895 61H-37.5595L-69.4295 13H-77.4595ZM-33.2655 61L-65.1355 13H-57.1055L-25.2355 61H-33.2655ZM-52.8125 13L-20.9425 61H-12.9125L-44.7825 13H-52.8125ZM-8.61853 61L-40.4885 13H-32.4585L-0.588531 61H-8.61853ZM-28.1655 13L3.70447 61H11.7345L-20.1355 13H-28.1655ZM16.0285 61L-15.8415 13H-7.81152L24.0585 61H16.0285ZM-3.51852 13L28.3515 61H36.3815L4.51147 13H-3.51852ZM40.6755 61L8.80548 13H16.8355L48.7055 61H40.6755ZM21.1285 13L52.9985 61H61.0285L29.1585 13H21.1285ZM65.3225 61L33.4525 13H41.4825L73.3525 61H65.3225ZM45.7765 13L77.6465 61H85.6765L53.8065 13H45.7765ZM89.9695 61L58.0995 13H66.1295L97.9995 61H89.9695Z"
      fill="url(#paint5_linear_535_44105)" />
  </g>
  <path fill-rule="evenodd" clip-rule="evenodd" d="M188 0L231.827 65.1665H674.987L719.878 0H188Z"
    fill="url(#paint6_linear_535_44105)" />
  <!-- 线条 -->
  <path d="M-506 3H188.08L231.47 68.17H674.99L720.3 3H1414"
    stroke="#0E5FFF"
    stroke-width="4" />
  <!-- 流光效果 -->
  <path
    id="item_line01"
    d="M-506 3H188.08L231.47 68.17H674.99L720.3 3H1414"
  />
  <mask id="item_line01-mask">
    <circle cx="0" cy="0" r="120" fill="url(#light-line-gradient)">
      <animateMotion
        dur="5s"
        path="M-506 3H188.08L231.47 68.17H674.99L720.3 3H1414"
        rotate="auto"
        repeatCount="indefinite"
      ></animateMotion>
    </circle>
  </mask>
  <use
    stroke-width="4"
    xlink:href="#item_line01"
    mask="url(#item_line01-mask)"
    stroke="#00F8C1"
  >
    <animate
      attributeName="stroke-dasharray"
      from="0, 100"
      to="1600, 0"
      dur="5s"
      repeatCount="indefinite"
    ></animate>
  </use>
  <defs>
    <!-- 光点动效透明度渐变 -->
    <radialGradient id="light-line-gradient" cx="50%" cy="50%" r="50%">
      <stop offset="0%" stop-color="#fff" stop-opacity="1"></stop>
      <stop offset="100%" stop-color="#fff" stop-opacity="0"></stop>
    </radialGradient>
    <linearGradient id="paint0_linear_535_44105" x1="1397.48" y1="76.8064" x2="824.096" y2="76.8064"
      gradientUnits="userSpaceOnUse">
      <stop stop-color="#00B5D7" stop-opacity="0.01" />
      <stop offset="0.330946" stop-color="#00C6D5" />
      <stop offset="1" stop-color="#0C50D9" />
    </linearGradient>
    <linearGradient id="paint1_linear_535_44105" x1="866.276" y1="21.6646" x2="691.937" y2="21.6646"
      gradientUnits="userSpaceOnUse">
      <stop stop-color="#0E5FFF" stop-opacity="0.01" />
      <stop offset="0.367133" stop-color="#0E5FFF" stop-opacity="0.59" />
      <stop offset="1" stop-color="#0E5FFF" />
    </linearGradient>
    <linearGradient id="paint2_linear_535_44105" x1="877.153" y1="61.2604" x2="966.522" y2="213.973"
      gradientUnits="userSpaceOnUse">
      <stop stop-color="#0E5FFF" />
      <stop offset="0.632867" stop-color="#0E5FFF" stop-opacity="0.59" />
      <stop offset="1" stop-color="#0E5FFF" stop-opacity="0.01" />
    </linearGradient>
    <linearGradient id="paint3_linear_535_44105" x1="80.4997" y1="76.8064" x2="-492.881"
      y2="76.8064" gradientUnits="userSpaceOnUse">
      <stop stop-color="#00B5D7" stop-opacity="0.01" />
      <stop offset="0.330946" stop-color="#00C6D5" />
      <stop offset="1" stop-color="#0C50D9" />
    </linearGradient>
    <linearGradient id="paint4_linear_535_44105" x1="41.724" y1="91.4322" x2="216.063" y2="91.4322"
      gradientUnits="userSpaceOnUse">
      <stop stop-color="#0E5FFF" stop-opacity="0.01" />
      <stop offset="0.367133" stop-color="#0E5FFF" stop-opacity="0.59" />
      <stop offset="1" stop-color="#0E5FFF" />
    </linearGradient>
    <linearGradient id="paint5_linear_535_44105" x1="-29.8312" y1="25.7517" x2="-119.199"
      y2="178.464" gradientUnits="userSpaceOnUse">
      <stop stop-color="#0E5FFF" />
      <stop offset="0.632867" stop-color="#0E5FFF" stop-opacity="0.59" />
      <stop offset="1" stop-color="#0E5FFF" stop-opacity="0.01" />
    </linearGradient>
    <linearGradient id="paint6_linear_535_44105" x1="188" y1="0" x2="188" y2="65.1665"
      gradientUnits="userSpaceOnUse">
      <stop stop-color="#0E5FFF" />
      <stop offset="1" stop-color="#0E5FFF" stop-opacity="0.43" />
    </linearGradient>
    <linearGradient id="paint7_linear_535_44105" x1="-506" y1="35.585" x2="1414" y2="35.585"
      gradientUnits="userSpaceOnUse">
      <stop stop-color="#0077FF" />
      <stop offset="0.24862" stop-color="#0E5FFF" stop-opacity="0.64" />
      <stop offset="0.387912" stop-color="#0E5FFF" />
      <stop offset="0.492594" stop-color="#00F8C1" />
      <stop offset="0.604246" stop-color="#0E5FFF" />
      <stop offset="1" stop-color="#0E5FFF" stop-opacity="0.01" />
    </linearGradient>
    <clipPath id="clip0_535_44105">
      <rect width="729" height="75" fill="white" transform="translate(685 12)" />
    </clipPath>
    <clipPath id="clip1_535_44105">
      <rect width="604" height="21" fill="white" transform="translate(810 66)" />
    </clipPath>
    <clipPath id="clip2_535_44105">
      <rect width="604" height="21" fill="white" transform="translate(810 66)" />
    </clipPath>
    <clipPath id="clip3_535_44105">
      <rect width="145" height="59" fill="white" transform="translate(685 12)" />
    </clipPath>
    <clipPath id="clip4_535_44105">
      <rect width="729" height="75" fill="white" transform="translate(-506 12)" />
    </clipPath>
    <clipPath id="clip5_535_44105">
      <rect width="604" height="21" fill="white" transform="translate(-506 66)" />
    </clipPath>
    <clipPath id="clip6_535_44105">
      <rect width="604" height="21" fill="white" transform="translate(-506 66)" />
    </clipPath>
    <clipPath id="clip7_535_44105">
      <rect width="145" height="59" fill="white" transform="translate(78 12)" />
    </clipPath>
  </defs>
</svg>