<svg width="38" height="38" viewBox="0 0 38 38" fill="none" xmlns="http://www.w3.org/2000/svg">
<g filter="url(#filter0_d_26549_63967)">
<path d="M12.2934 13.4415C12.1296 13.2296 12.1618 12.9263 12.3665 12.7536L17.8608 8.11785C17.951 8.04175 18.0652 8 18.1832 8H25.8177C25.9357 8 26.0499 8.04175 26.1401 8.11785L31.6344 12.7536C31.8389 12.9263 31.8712 13.2296 31.7074 13.4415L22.396 25.4882C22.1959 25.7472 21.805 25.7472 21.6048 25.4882L12.2934 13.4415Z" fill="url(#paint0_linear_26549_63967)"/>
</g>
<foreignObject x="3" y="8" width="25.623" height="23.6826"><div xmlns="http://www.w3.org/1999/xhtml" style="backdrop-filter:blur(1px);clip-path:url(#bgblur_0_26549_63967_clip_path);height:100%;width:100%"></div></foreignObject><g filter="url(#filter1_i_26549_63967)" data-figma-bg-blur-radius="2">
<path d="M6.10441 16.4415C5.94063 16.2296 5.97288 15.9263 6.17758 15.7536L11.6718 11.1179C11.762 11.0418 11.8762 11 11.9942 11H19.6287C19.7467 11 19.8609 11.0418 19.9511 11.1179L25.4453 15.7536C25.65 15.9263 25.6823 16.2296 25.5185 16.4415L16.2071 28.4883C16.0069 28.7473 15.616 28.7473 15.4159 28.4883L6.10441 16.4415Z" fill="white" fill-opacity="0.2"/>
<path d="M19.6289 10.5L19.7168 10.5039C19.921 10.522 20.1156 10.6023 20.2734 10.7354L25.7676 15.3711C26.177 15.7165 26.2415 16.3233 25.9141 16.7471L16.6025 28.7939C16.2022 29.3119 15.4209 29.3119 15.0205 28.7939L5.70898 16.7471C5.3815 16.3233 5.44606 15.7165 5.85547 15.3711L11.3496 10.7354C11.5299 10.5834 11.7582 10.5 11.9941 10.5H19.6289Z" stroke="url(#paint1_linear_26549_63967)"/>
</g>
<path d="M20.0494 17.3415C20.1288 17.1704 20.1051 16.9692 19.9882 16.8212L16.8188 12.81C16.5598 12.4821 16.7933 12 17.2111 12H17.9961C18.1141 12 18.2283 12.0418 18.3185 12.1179L23.8127 16.7536C24.0174 16.9263 24.0497 17.2296 23.8859 17.4415L16.9002 26.4792C16.5358 26.9507 15.8003 26.5037 16.051 25.963L20.0494 17.3415Z" fill="url(#paint2_linear_26549_63967)" fill-opacity="0.4"/>
<defs>
<filter id="filter0_d_26549_63967" x="9.18896" y="5" width="27.6228" height="25.6826" filterUnits="userSpaceOnUse" color-interpolation-filters="sRGB">
<feFlood flood-opacity="0" result="BackgroundImageFix"/>
<feColorMatrix in="SourceAlpha" type="matrix" values="0 0 0 0 0 0 0 0 0 0 0 0 0 0 0 0 0 0 127 0" result="hardAlpha"/>
<feOffset dx="1" dy="1"/>
<feGaussianBlur stdDeviation="2"/>
<feColorMatrix type="matrix" values="0 0 0 0 0.823529 0 0 0 0 0.647059 0 0 0 0 0.247059 0 0 0 0.4 0"/>
<feBlend mode="normal" in2="BackgroundImageFix" result="effect1_dropShadow_26549_63967"/>
<feBlend mode="normal" in="SourceGraphic" in2="effect1_dropShadow_26549_63967" result="shape"/>
</filter>
<filter id="filter1_i_26549_63967" x="3" y="8" width="25.623" height="23.6826" filterUnits="userSpaceOnUse" color-interpolation-filters="sRGB">
<feFlood flood-opacity="0" result="BackgroundImageFix"/>
<feBlend mode="normal" in="SourceGraphic" in2="BackgroundImageFix" result="shape"/>
<feColorMatrix in="SourceAlpha" type="matrix" values="0 0 0 0 0 0 0 0 0 0 0 0 0 0 0 0 0 0 127 0" result="hardAlpha"/>
<feOffset/>
<feGaussianBlur stdDeviation="1.5"/>
<feComposite in2="hardAlpha" operator="arithmetic" k2="-1" k3="1"/>
<feColorMatrix type="matrix" values="0 0 0 0 1 0 0 0 0 0.771574 0 0 0 0 0.134615 0 0 0 1 0"/>
<feBlend mode="normal" in2="shape" result="effect1_innerShadow_26549_63967"/>
</filter>
<clipPath id="bgblur_0_26549_63967_clip_path" transform="translate(-3 -8)"><path d="M6.10441 16.4415C5.94063 16.2296 5.97288 15.9263 6.17758 15.7536L11.6718 11.1179C11.762 11.0418 11.8762 11 11.9942 11H19.6287C19.7467 11 19.8609 11.0418 19.9511 11.1179L25.4453 15.7536C25.65 15.9263 25.6823 16.2296 25.5185 16.4415L16.2071 28.4883C16.0069 28.7473 15.616 28.7473 15.4159 28.4883L6.10441 16.4415Z"/>
</clipPath><linearGradient id="paint0_linear_26549_63967" x1="20" y1="24.5" x2="26" y2="8.5" gradientUnits="userSpaceOnUse">
<stop stop-color="#F4B61A"/>
<stop offset="1" stop-color="#FFEC1B"/>
</linearGradient>
<linearGradient id="paint1_linear_26549_63967" x1="21.811" y1="11" x2="9.31104" y2="30" gradientUnits="userSpaceOnUse">
<stop offset="0.0203046" stop-color="white"/>
<stop offset="1" stop-color="white" stop-opacity="0"/>
</linearGradient>
<linearGradient id="paint2_linear_26549_63967" x1="19.9952" y1="12" x2="16.5" y2="26.5" gradientUnits="userSpaceOnUse">
<stop stop-color="white"/>
<stop offset="1" stop-color="white" stop-opacity="0"/>
</linearGradient>
</defs>
</svg>
