<svg width="22" height="22" viewBox="0 0 22 22" fill="none" xmlns="http://www.w3.org/2000/svg">
<g id="&#230;&#183;&#187;&#229;&#138;&#160;&#230;&#140;&#137;&#233;&#146;&#174;">
<path d="M0.673738 20.2225C0.386418 19.7933 0.179953 19.3054 0.0761361 18.7806L0.56663 18.6836C0.52297 18.4629 0.5 18.2344 0.5 18V17.125H0V15.375H0.5V13.625H0V11.875H0.5V10.125H0V8.375H0.5V6.625H0V4.875H0.5V4C0.5 3.76561 0.52297 3.53708 0.56663 3.31639L0.0761362 3.21935C0.179953 2.69457 0.386418 2.2067 0.673738 1.77754L1.08922 2.0557C1.3449 1.6738 1.6738 1.3449 2.0557 1.08922L1.77754 0.673739C2.2067 0.386419 2.69457 0.179953 3.21935 0.0761362L3.31639 0.56663C3.53708 0.52297 3.76561 0.5 4 0.5H4.875V0H6.625V0.5H8.375V0H10.125V0.5H11.875V0H13.625V0.5H15.375V0H17.125V0.5H18C18.2344 0.5 18.4629 0.52297 18.6836 0.56663L18.7806 0.0761361C19.3054 0.179953 19.7933 0.386418 20.2225 0.673738L19.9443 1.08922C20.3262 1.3449 20.6551 1.6738 20.9108 2.0557L21.3263 1.77754C21.6136 2.2067 21.82 2.69457 21.9239 3.21935L21.4334 3.31639C21.477 3.53708 21.5 3.76561 21.5 4V4.875H22V6.625H21.5V8.375H22V10.125H21.5V11.875H22V13.625H21.5V15.375H22V17.125H21.5V18C21.5 18.2344 21.477 18.4629 21.4334 18.6836L21.9239 18.7806C21.82 19.3054 21.6136 19.7933 21.3263 20.2225L20.9108 19.9443C20.6551 20.3262 20.3262 20.6551 19.9443 20.9108L20.2225 21.3263C19.7933 21.6136 19.3054 21.82 18.7806 21.9239L18.6836 21.4334C18.4629 21.477 18.2344 21.5 18 21.5H17.125V22H15.375V21.5H13.625V22H11.875V21.5H10.125V22H8.375V21.5H6.625V22H4.875V21.5H4C3.76561 21.5 3.53708 21.477 3.31639 21.4334L3.21935 21.9239C2.69457 21.82 2.2067 21.6136 1.77754 21.3263L2.0557 20.9108C1.6738 20.6551 1.3449 20.3262 1.08922 19.9443L0.673738 20.2225Z" stroke="#FF4D4F" stroke-dasharray="2 2"/>
<rect id="Rectangle 798" x="6" y="10" width="10" height="2" rx="1" fill="#FF4D4F"/>
</g>
</svg>
