<svg width="16" height="17" viewBox="0 0 16 17" fill="none" xmlns="http://www.w3.org/2000/svg">
<g id="1_1 1">
<path id="Vector" d="M4.9375 10.5703H5.875C5.94375 10.5703 6 10.5141 6 10.4453V5.69531C6 5.62656 5.94375 5.57031 5.875 5.57031H4.9375C4.86875 5.57031 4.8125 5.62656 4.8125 5.69531V10.4453C4.8125 10.5141 4.86875 10.5703 4.9375 10.5703ZM8 9.78906C8.34531 9.78906 8.625 9.50938 8.625 9.17969C8.625 8.81875 8.34531 8.53906 8 8.53906C7.65469 8.53906 7.375 8.81875 7.375 9.17969C7.375 9.50938 7.65469 9.78906 8 9.78906ZM8 7.60156C8.34531 7.60156 8.625 7.32187 8.625 6.99219C8.625 6.63125 8.34531 6.35156 8 6.35156C7.65469 6.35156 7.375 6.63125 7.375 6.99219C7.375 7.32187 7.65469 7.60156 8 7.60156Z" fill="black"/>
<g id="Group 484">
<path id="Vector_2" d="M13.75 1.82031H2.25C1.97344 1.82031 1.75 2.04375 1.75 2.32031V13.8203C1.75 14.0969 1.97344 14.3203 2.25 14.3203H13.75C14.0266 14.3203 14.25 14.0969 14.25 13.8203V2.32031C14.25 2.04375 14.0266 1.82031 13.75 1.82031ZM13.125 13.1953H2.875V2.94531H13.125V13.1953Z" fill="black"/>
</g>
<path id="Vector_3" d="M10.125 10.5703H11.0625C11.1313 10.5703 11.1875 10.5141 11.1875 10.4453V5.69531C11.1875 5.62656 11.1313 5.57031 11.0625 5.57031H10.125C10.0562 5.57031 10 5.62656 10 5.69531V10.4453C10 10.5141 10.0562 10.5703 10.125 10.5703Z" fill="black"/>
</g>
</svg>
