<svg width="18" height="19" viewBox="0 0 18 19" fill="none" xmlns="http://www.w3.org/2000/svg">
<g id="delete">
<g id="Union">
<path d="M6.75 13.5703V6.82031H7.875V13.5703H6.75Z" fill="#C7C7C7"/>
<path d="M10.125 6.82031V13.5703H11.25V6.82031H10.125Z" fill="#C7C7C7"/>
<path d="M11.8125 3.44531H15.75V4.57031H14.625V15.8203C14.625 16.4416 14.1213 16.9453 13.5 16.9453H4.5C3.87868 16.9453 3.375 16.4416 3.375 15.8203V4.57031H2.25V3.44531H6.1875L6.1875 2.09531C6.1875 1.59826 6.59044 1.19531 7.0875 1.19531H10.9125C11.4096 1.19531 11.8125 1.59826 11.8125 2.09531V3.44531ZM7.3125 3.44531H10.6875L10.6875 2.32031L7.3125 2.32031V3.44531ZM4.5 4.57031V15.8203H13.5V4.57031H4.5Z" fill="#C7C7C7"/>
</g>
</g>
</svg>
