<svg width="16" height="16" viewBox="0 0 16 16" fill="none" xmlns="http://www.w3.org/2000/svg">
<g id="&#233;&#128;&#130;&#229;&#186;&#148;&#229;&#177;&#143;&#229;&#185;&#149; 1" clip-path="url(#clip0_5274_111926)">
<path id="Vector" d="M11.0761 4.30862L11.0785 4.29754L11.0761 4.28523V0.637523C11.0761 0.28432 11.353 -0.00365691 11.6914 3.51084e-05C11.7738 0.00147686 11.8552 0.0191429 11.9308 0.0520243C12.0064 0.0849057 12.0747 0.132358 12.132 0.191671C12.1892 0.250984 12.2343 0.320996 12.2645 0.397707C12.2946 0.474419 12.3094 0.556327 12.308 0.638754V3.69205H15.3613C15.5273 3.68941 15.6876 3.75269 15.8071 3.86803C15.9266 3.98336 15.9955 4.14135 15.9987 4.30739C15.9987 4.64582 15.7157 4.92272 15.3588 4.92272H11.7123C11.7085 4.92248 11.7048 4.92165 11.7012 4.92026C11.565 4.91998 11.4331 4.8721 11.3283 4.78489C11.305 4.76766 11.2791 4.75658 11.2582 4.73566C11.252 4.72951 11.2496 4.72212 11.2434 4.71597C11.1379 4.60641 11.078 4.46075 11.0761 4.30862ZM4.30737 3.51084e-05C4.22494 0.00147686 4.1436 0.0191429 4.06801 0.0520243C3.99241 0.0849057 3.92403 0.132358 3.86677 0.191671C3.80952 0.250984 3.76451 0.320996 3.73431 0.397707C3.70412 0.474419 3.68933 0.556327 3.6908 0.638754V3.69205H0.637504C0.555239 3.69058 0.47349 3.70534 0.396928 3.73547C0.320366 3.7656 0.25049 3.81052 0.191291 3.86766C0.132092 3.9248 0.0847306 3.99305 0.0519111 4.0685C0.0190916 4.14395 0.00145739 4.22512 1.56614e-05 4.30739C1.56614e-05 4.64582 0.28307 4.92272 0.639965 4.92272H4.28645C4.29024 4.92248 4.29398 4.92165 4.29752 4.92026C4.43376 4.91978 4.56559 4.87192 4.67041 4.78489C4.6938 4.76766 4.71964 4.75658 4.73933 4.73566C4.74549 4.72951 4.74795 4.72212 4.75287 4.71597C4.86009 4.6073 4.92097 4.46127 4.9227 4.30862L4.92024 4.29754L4.9227 4.284V0.637523C4.9245 0.555173 4.90997 0.473282 4.87995 0.396575C4.84994 0.319868 4.80504 0.249862 4.74783 0.190597C4.69063 0.131333 4.62225 0.0839809 4.54665 0.0512741C4.47106 0.0185673 4.38973 0.00115281 4.30737 3.51084e-05ZM15.3588 11.0761H11.7123L11.7012 11.0785L11.6926 11.0761C11.5587 11.0792 11.4298 11.1279 11.3271 11.2139C11.3037 11.2311 11.2779 11.2422 11.2582 11.2619C11.252 11.2681 11.2496 11.2754 11.2434 11.2816C11.1378 11.3916 11.0779 11.5377 11.0761 11.6902L11.0785 11.7025L11.0761 11.7148V15.3625C11.0761 15.7145 11.353 16.0037 11.6914 16C11.7738 15.9986 11.8552 15.9809 11.9308 15.948C12.0064 15.9151 12.0747 15.8677 12.132 15.8084C12.1892 15.749 12.2343 15.679 12.2645 15.6023C12.2946 15.5256 12.3094 15.4437 12.308 15.3613V12.3068H15.3613C15.5273 12.3094 15.6876 12.2461 15.8071 12.1308C15.9266 12.0154 15.9955 11.8575 15.9987 11.6914C15.9971 11.609 15.9793 11.5277 15.9463 11.4521C15.9133 11.3766 15.8657 11.3083 15.8062 11.2512C15.7468 11.194 15.6767 11.1492 15.5999 11.1191C15.5232 11.0891 15.4412 11.0744 15.3588 11.0761ZM4.7541 11.2816C4.74918 11.2754 4.74672 11.2681 4.74056 11.2619C4.72087 11.2422 4.6938 11.2311 4.67165 11.2139C4.56897 11.1279 4.44008 11.0792 4.30614 11.0761L4.29629 11.0785L4.28521 11.0761H0.639965C0.557538 11.0744 0.475596 11.0891 0.398822 11.1191C0.322047 11.1492 0.251943 11.194 0.192515 11.2512C0.133087 11.3083 0.0854994 11.3766 0.0524698 11.4521C0.0194401 11.5277 0.00161604 11.609 1.56614e-05 11.6914C-0.00244568 12.0299 0.285532 12.3068 0.637504 12.3068H3.6908V15.36C3.6908 15.7145 3.96893 16 4.30737 15.9988C4.6458 16.0025 4.9227 15.7145 4.9227 15.3613V11.7136L4.92024 11.7013L4.9227 11.689C4.92067 11.5366 4.86033 11.3908 4.7541 11.2816ZM7.99938 5.53806C7.34643 5.53822 6.72029 5.79776 6.25869 6.25958C5.7971 6.72141 5.53788 7.34768 5.53804 8.00063C5.5382 8.65358 5.79774 9.27973 6.25956 9.74132C6.72139 10.2029 7.34766 10.4621 8.00061 10.462C8.65357 10.4618 9.27971 10.2023 9.7413 9.74045C10.2029 9.27863 10.4621 8.65235 10.462 7.9994C10.4618 7.34645 10.2023 6.7203 9.74043 6.25871C9.27861 5.79712 8.65233 5.53789 7.99938 5.53806Z" fill="black"/>
</g>
<defs>
<clipPath id="clip0_5274_111926">
<rect width="16" height="16" fill="white"/>
</clipPath>
</defs>
</svg>
