<svg width="18" height="19" viewBox="0 0 18 19" fill="none" xmlns="http://www.w3.org/2000/svg">
<g id="queue">
<g id="Union">
<path d="M4.5 3.44531H14.625V13.5703H15.75V3.44531C15.75 2.82399 15.2463 2.32031 14.625 2.32031H4.5V3.44531Z" fill="#C7C7C7"/>
<path d="M7.40616 10.6641V13.9453L8.53116 13.9453V10.6641H11.6251V9.53909H8.53116V6.44534H7.40616V9.53909H4.12509V10.6641H7.40616Z" fill="#C7C7C7"/>
<path d="M2.25 14.6953C2.25 15.3166 2.75368 15.8203 3.375 15.8203L12.375 15.8203C12.9963 15.8203 13.5 15.3166 13.5 14.6953L13.5 5.69531C13.5 5.07399 12.9963 4.57031 12.375 4.57031H3.375C2.75368 4.57031 2.25 5.07399 2.25 5.69531V14.6953ZM3.375 5.69531L12.375 5.69531L12.375 14.6953L3.375 14.6953L3.375 5.69531Z" fill="#C7C7C7"/>
</g>
</g>
</svg>
