<svg width="18" height="19" viewBox="0 0 18 19" fill="none" xmlns="http://www.w3.org/2000/svg">
<g id="zoom-in">
<g id="Union">
<path d="M6.75 7.94531V10.1953H7.875V7.94531H10.125V6.82031H7.875V4.57031H6.75V6.82031H4.5V7.94531H6.75Z" fill="black" fill-opacity="0.9"/>
<path d="M10.6999 11.5657C9.779 12.3116 8.60595 12.7585 7.32852 12.7585C4.3684 12.7585 1.96875 10.3589 1.96875 7.3988C1.96875 4.4387 4.3684 2.03906 7.32852 2.03906C10.2886 2.03906 12.6883 4.4387 12.6883 7.3988C12.6883 8.67625 12.2414 9.84932 11.4954 10.7702L15.4681 14.7429L14.6726 15.5384L10.6999 11.5657ZM11.5633 7.3988C11.5633 5.06003 9.66732 3.16406 7.32852 3.16406C4.98971 3.16406 3.09375 5.06003 3.09375 7.3988C3.09375 9.73758 4.98971 11.6335 7.32852 11.6335C9.66732 11.6335 11.5633 9.73758 11.5633 7.3988Z" fill="black" fill-opacity="0.9"/>
</g>
</g>
</svg>
