<svg xmlns="http://www.w3.org/2000/svg" width="14" height="12" viewBox="0 0 14 12" fill="none">
  <path d="M12.4844 5.42969H7.50781V0.578125C7.50781 0.267188 7.25625 0.015625 6.94531 0.015625C6.63438 0.015625 6.38281 0.267188 6.38281 0.578125V5.42969H1.51562C1.20469 5.42969 0.953125 5.68125 0.953125 5.99219C0.953125 6.30312 1.20469 6.55469 1.51562 6.55469H6.38281V11.4219C6.38281 11.7328 6.63438 11.9844 6.94531 11.9844C7.25625 11.9844 7.50781 11.7328 7.50781 11.4219V6.55469H12.4844C12.7953 6.55469 13.0469 6.30312 13.0469 5.99219C13.0469 5.68125 12.7953 5.42969 12.4844 5.42969Z" fill="#FF7B00"/>
</svg>
