<svg width="18" height="18" viewBox="0 0 18 18" fill="none" xmlns="http://www.w3.org/2000/svg">
<path d="M15.3689 4.58933L9.68766 1.29308C9.47576 1.18266 9.24035 1.125 9.00141 1.125C8.76247 1.125 8.52706 1.18266 8.31516 1.29308L2.69016 4.58933C2.48308 4.69524 2.30936 4.8564 2.18824 5.05496C2.06712 5.25352 2.00332 5.48174 2.00391 5.71433V12.2056C2.00332 12.4382 2.06712 12.6664 2.18824 12.8649C2.30936 13.0635 2.48308 13.2247 2.69016 13.3306L8.31516 16.6493C8.51188 16.8008 8.75316 16.8829 9.00141 16.8829C9.24966 16.8829 9.49094 16.8008 9.68766 16.6493L15.3689 13.3531C15.576 13.2472 15.7497 13.086 15.8708 12.8874C15.992 12.6889 16.0558 12.4607 16.0552 12.2281V5.72558C16.0334 5.49681 15.9605 5.27586 15.8417 5.07915C15.7229 4.88245 15.5613 4.71503 15.3689 4.58933ZM12.7589 7.32308L9.68766 9.37058V13.0043C9.68766 13.1565 9.62721 13.3024 9.51961 13.41C9.41201 13.5176 9.26608 13.5781 9.11391 13.5781C9.03909 13.5781 8.96501 13.5632 8.89602 13.5342C8.82703 13.5052 8.76451 13.4628 8.71213 13.4094C8.65975 13.3559 8.61855 13.2926 8.59096 13.223C8.56336 13.1535 8.54991 13.0791 8.55141 13.0043V9.48308L5.36766 7.43558C5.30783 7.39126 5.25731 7.33558 5.21899 7.27174C5.18067 7.20789 5.15531 7.13713 5.14434 7.06348C5.12218 6.91474 5.16002 6.76329 5.24954 6.64245C5.33905 6.52161 5.47289 6.44128 5.62163 6.41913C5.77037 6.39698 5.92182 6.43482 6.04266 6.52433L9.11391 8.45933L12.1852 6.41183C12.3031 6.3211 12.4522 6.28082 12.5998 6.29979C12.7474 6.31877 12.8815 6.39546 12.9727 6.51308C13.0852 6.85058 13.0852 7.19933 12.7364 7.31183L12.7589 7.32308Z" fill="#FF7B00"/>
</svg>
