<svg width="95" height="86" viewBox="0 0 95 86" fill="none" xmlns="http://www.w3.org/2000/svg">
<g id="&#231;&#188;&#150;&#231;&#187;&#132;-11">
<g id="&#231;&#188;&#150;&#231;&#187;&#132;-8">
<g id="&#231;&#188;&#150;&#231;&#187;&#132;">
<path id="&#232;&#146;&#153;&#231;&#137;&#136;" fill-rule="evenodd" clip-rule="evenodd" d="M25.7334 80.4078V13.5169C25.7334 10.9679 27.7998 8.90152 30.3488 8.90152H90.3801C92.9292 8.90152 94.9955 10.9679 94.9955 13.5169V80.4078C94.9955 82.9568 92.9292 85.0232 90.3801 85.0232H30.3488C27.7998 85.0232 25.7334 82.9568 25.7334 80.4078Z" fill="url(#paint0_linear_10943_192023)"/>
<path id="&#231;&#159;&#169;&#229;&#189;&#162;" fill-rule="evenodd" clip-rule="evenodd" d="M53.3364 0.692291H67.7442C68.3827 0.692291 68.9003 1.2099 68.9003 1.84841C68.9003 1.90584 68.896 1.96319 68.8875 2.01999L68.1026 7.2501C68.0176 7.81601 67.5315 8.23464 66.9593 8.23464H54.1214C53.5491 8.23464 53.063 7.81601 52.978 7.2501L52.1931 2.01999C52.0984 1.38856 52.5334 0.799857 53.1649 0.705095C53.2217 0.696571 53.279 0.692291 53.3364 0.692291Z" fill="url(#paint1_linear_10943_192023)"/>
<path id="Fill-1" fill-rule="evenodd" clip-rule="evenodd" d="M31.9771 77.4734V21.3339C31.9771 20.666 32.5185 20.1246 33.1863 20.1246H87.52C88.1879 20.1246 88.7293 20.666 88.7293 21.3339V67.2293C88.7293 68.6467 88.0388 69.9753 86.8787 70.7898L75.6368 78.6827H33.1863C32.5185 78.6827 31.9771 78.1413 31.9771 77.4734Z" fill="white"/>
<path id="&#231;&#159;&#169;&#229;&#189;&#162;_2" d="M75.6922 4.96629H45.015C44.3191 4.96629 43.7549 5.53048 43.7549 6.22645V11.3967C43.7549 12.0926 44.3191 12.6568 45.015 12.6568H75.6922C76.3882 12.6568 76.9524 12.0926 76.9524 11.3967V6.22645C76.9524 5.53048 76.3882 4.96629 75.6922 4.96629Z" fill="url(#paint2_linear_10943_192023)"/>
<path id="&#231;&#159;&#169;&#229;&#189;&#162;_3" fill-rule="evenodd" clip-rule="evenodd" d="M76.3024 70.765H86.9132L75.6724 78.6827V71.3951C75.6724 71.0471 75.9545 70.765 76.3024 70.765Z" fill="url(#paint3_linear_10943_192023)"/>
<path id="&#232;&#183;&#175;&#229;&#190;&#132;-10" d="M39.8452 30.2206H80.8612" stroke="#E5E5E5" stroke-width="3.22472" stroke-linecap="round" stroke-linejoin="round"/>
<path id="&#232;&#183;&#175;&#229;&#190;&#132;-10&#229;&#164;&#135;&#228;&#187;&#189;" d="M39.8452 40.0634H80.8612" stroke="#E5E5E5" stroke-width="3.22472" stroke-linecap="round" stroke-linejoin="round"/>
<path id="&#232;&#183;&#175;&#229;&#190;&#132;-10&#229;&#164;&#135;&#228;&#187;&#189;-2" d="M39.8452 49.9062H63.0098" stroke="#E5E5E5" stroke-width="3.22472" stroke-linecap="round" stroke-linejoin="round"/>
</g>
<path id="&#232;&#183;&#175;&#229;&#190;&#132;-9" d="M55.6104 4.96629H65.4694" stroke="white" stroke-width="0.945123" stroke-linecap="round" stroke-linejoin="round"/>
</g>
<g id="&#228;&#186;&#186;&#231;&#137;&#169;/&#232;&#129;&#140;&#229;&#145;&#152;/&#231;&#148;&#183;/&#233;&#187;&#152;&#232;&#174;&#164;&#229;&#164;&#135;&#228;&#187;&#189;">
<g id="&#232;&#133;&#191;&#229;&#164;&#135;&#228;&#187;&#189;">
<path id="&#231;&#159;&#169;&#229;&#189;&#162;&#229;&#164;&#135;&#228;&#187;&#189;-14" fill-rule="evenodd" clip-rule="evenodd" d="M13.8192 53.8495L14.5741 50.9997H18.2012L18.7514 54.8335L15.0255 82.2451H11.8687L13.381 56.5836C13.4354 55.6599 13.5822 54.744 13.8192 53.8495Z" fill="#3A2721"/>
<path id="&#231;&#159;&#169;&#229;&#189;&#162;&#229;&#164;&#135;&#228;&#187;&#189;-15" fill-rule="evenodd" clip-rule="evenodd" d="M22.7999 54.5348L21.8546 50.9997H17.7362L17.7344 57.0604L21.3815 70.0428L21.1747 82.2451H24.3315L26.0492 70.6396C26.1317 70.0824 26.1118 69.5147 25.9907 68.9646L22.9463 55.1354C22.902 54.9341 22.8532 54.7339 22.7999 54.5348Z" fill="#3A2721"/>
<path id="&#232;&#183;&#175;&#229;&#190;&#132;" fill-rule="evenodd" clip-rule="evenodd" d="M22.2843 52.7719L20.5618 53.0828C18.9847 53.3674 17.3693 53.3656 15.7928 53.0774L14.1211 52.7719L14.3977 51.7392L16.3928 51.9982C17.5773 52.1519 18.7766 52.154 19.9617 52.0042L22.0593 51.7392L22.2843 52.7719Z" fill="#171717"/>
<path id="&#231;&#159;&#169;&#229;&#189;&#162;&#229;&#164;&#135;&#228;&#187;&#189;-16" fill-rule="evenodd" clip-rule="evenodd" d="M15.0246 82.2451H11.8678L11.7155 84.5923C11.7004 84.8245 11.8764 85.0249 12.1086 85.04C12.1177 85.0406 12.1268 85.0409 12.1359 85.0409H17.2886C17.4509 85.0409 17.5825 84.9093 17.5825 84.747C17.5825 84.7062 17.574 84.6659 17.5576 84.6285L17.4059 84.2844C17.1983 83.8132 16.7645 83.4805 16.2555 83.4022L14.8726 83.1896L15.0246 82.2451Z" fill="#171717"/>
<path id="&#231;&#159;&#169;&#229;&#189;&#162;&#229;&#164;&#135;&#228;&#187;&#189;-17" fill-rule="evenodd" clip-rule="evenodd" d="M24.3314 82.2451H21.1746V84.6196C21.1746 84.8522 21.3633 85.0409 21.596 85.0409H26.7335C26.8958 85.0409 27.0273 84.9093 27.0273 84.747C27.0273 84.7062 27.0188 84.6659 27.0024 84.6285L26.8508 84.2844C26.6435 83.814 26.2078 83.4842 25.6989 83.4124L24.1192 83.1896L24.3314 82.2451Z" fill="#171717"/>
</g>
<g id="&#228;&#186;&#186;&#231;&#137;&#169;/&#231;&#148;&#183;/&#228;&#184;&#138;&#232;&#186;&#171;/&#232;&#161;&#172;&#232;&#161;&#171;">
<g id="&#228;&#184;&#138;&#232;&#186;&#171;">
<g id="&#231;&#188;&#150;&#231;&#187;&#132;_2">
<path id="&#231;&#159;&#169;&#229;&#189;&#162;&#229;&#164;&#135;&#228;&#187;&#189;-19" fill-rule="evenodd" clip-rule="evenodd" d="M23.1938 45.2034H13.2824L14.3862 51.6935L16.5805 51.9724C17.8054 52.128 19.0454 52.1233 20.2692 51.9583L22.2319 51.6935L23.1938 45.2034Z" fill="#F6F6F6"/>
</g>
<g id="&#232;&#131;&#179;&#232;&#134;&#138;">
<g id="&#231;&#188;&#150;&#231;&#187;&#132;_3">
<path id="&#231;&#159;&#169;&#229;&#189;&#162;&#229;&#164;&#135;&#228;&#187;&#189;-5" fill-rule="evenodd" clip-rule="evenodd" d="M25.1698 48.0598L24.9311 46.9995L30.3124 45.1945C30.4936 45.1338 30.682 45.0975 30.8728 45.0866L31.4166 45.0557C31.5535 45.0479 31.6708 45.1526 31.6786 45.2895C31.6834 45.3732 31.6457 45.4535 31.5783 45.5033L27.1322 48.7903C26.5771 49.2007 25.7945 49.0834 25.3841 48.5283C25.2809 48.3887 25.2079 48.2292 25.1698 48.0598Z" fill="#FFB999"/>
<path id="&#232;&#183;&#175;&#229;&#190;&#132;-14" fill-rule="evenodd" clip-rule="evenodd" d="M30.1711 44.5826L31.5767 45.518L33.1911 44.3225L34.2985 44.2221L36.345 44.0978C36.4311 44.0921 36.4962 44.0177 36.4906 43.9316C36.4878 43.8901 36.4687 43.8515 36.4374 43.8242C36.1005 43.5316 35.7347 43.3552 35.3399 43.2949C35.1284 43.2626 34.7131 43.1992 34.094 43.1047L33.5258 42.9317C33.2359 42.8435 32.9238 42.8636 32.6476 42.9882L31.8709 43.3388C31.3702 43.5731 30.8677 43.8426 30.3636 44.1473C29.8594 44.452 29.7952 44.5971 30.1711 44.5826Z" fill="#FFB999"/>
<path id="&#232;&#183;&#175;&#229;&#190;&#132;_2" fill-rule="evenodd" clip-rule="evenodd" d="M36.2837 44.0916C35.4091 44.0115 34.8622 43.9548 34.6432 43.9214C34.4241 43.8879 34.1682 43.8221 33.8755 43.7239L33.1915 44.3225L33.4934 44.3895C33.7791 44.4528 34.0751 44.453 34.3608 44.39C34.6498 44.3263 34.9413 44.2745 35.2345 44.2345L36.2837 44.0916Z" fill="#FFA780"/>
</g>
</g>
<g id="&#231;&#188;&#150;&#231;&#187;&#132;-9">
<g id="&#232;&#131;&#179;&#232;&#134;&#138;&#229;&#164;&#135;&#228;&#187;&#189;">
<g id="&#231;&#188;&#150;&#231;&#187;&#132;_4">
<path id="&#231;&#159;&#169;&#229;&#189;&#162;&#229;&#164;&#135;&#228;&#187;&#189;-5_2" fill-rule="evenodd" clip-rule="evenodd" d="M11.7685 47.4451L12.1347 46.4218L7.18357 42.9662C6.76134 42.6715 6.19549 42.69 5.79335 43.0115C5.46707 43.2725 5.41407 43.7485 5.67497 44.0748C5.69663 44.1018 5.72013 44.1274 5.7453 44.1513L9.73175 47.931C10.2327 48.4059 11.0238 48.3849 11.4987 47.884C11.6182 47.758 11.7101 47.6085 11.7685 47.4451Z" fill="#FFB999"/>
<path id="&#232;&#183;&#175;&#229;&#190;&#132;-14_2" fill-rule="evenodd" clip-rule="evenodd" d="M7.22811 43.3843L5.71903 44.1414L4.26227 42.758L3.17538 42.5235L1.15934 42.1507C1.07457 42.1345 1.01895 42.0527 1.03509 41.968C1.04287 41.9271 1.06658 41.8911 1.10098 41.8678C1.47098 41.6185 1.85558 41.4879 2.25478 41.4762C2.46864 41.47 2.88855 41.4577 3.51451 41.4393L4.09958 41.3369C4.39808 41.2846 4.7054 41.3425 4.96436 41.4999L5.69257 41.9426C6.16099 42.2361 6.62684 42.5648 7.09014 42.9287C7.55344 43.2926 7.59943 43.4444 7.22811 43.3843Z" fill="#FFB999"/>
<path id="&#232;&#183;&#175;&#229;&#190;&#132;_3" fill-rule="evenodd" clip-rule="evenodd" d="M1.22123 42.152C2.09914 42.1791 2.64884 42.1895 2.87031 42.183C3.09179 42.1765 3.3538 42.1423 3.65634 42.0806L4.26231 42.758L3.95444 42.7877C3.66323 42.8157 3.36941 42.7798 3.09351 42.6826C2.8144 42.5841 2.53139 42.4971 2.2452 42.4217L1.22123 42.152Z" fill="#FFA780"/>
</g>
</g>
<path id="&#232;&#183;&#175;&#229;&#190;&#132;-4&#229;&#164;&#135;&#228;&#187;&#189;-2" fill-rule="evenodd" clip-rule="evenodd" d="M6.17538 41.7523L12.2713 46.5551L11.9402 47.6038C11.704 48.3518 10.9061 48.7667 10.1581 48.5305C9.96713 48.4702 9.79108 48.3702 9.6415 48.2371L4.49254 43.6545L6.17538 41.7523Z" fill="#F6F6F6"/>
</g>
<path id="&#231;&#159;&#169;&#229;&#189;&#162;&#229;&#164;&#135;&#228;&#187;&#189;-20" fill-rule="evenodd" clip-rule="evenodd" d="M24.1487 41.4425C22.1937 40.7801 20.2498 40.4489 18.317 40.4489C16.3696 40.4489 14.4839 40.7852 12.6602 41.4577C12.2989 41.5911 11.9934 41.8428 11.7935 42.1719L9.71395 45.6034L11.7576 47.8367L14.1533 45.3658H22.8208L23.3003 46.0917L26.4609 44.883L25.117 42.2754C24.9145 41.8827 24.5673 41.5842 24.1487 41.4425Z" fill="#F6F6F6"/>
<g id="&#232;&#132;&#150;&#229;&#173;&#144;">
<path id="&#232;&#146;&#153;&#231;&#137;&#136;_2" d="M19.7341 38.2737H17.0763L16.8555 40.4359L18.3523 41.6071L19.7495 40.4359L19.7341 38.2737Z" fill="#FFB999"/>
<g id="Mask group">
<mask id="mask0_10943_192023" style="mask-type:luminance" maskUnits="userSpaceOnUse" x="16" y="38" width="4" height="4">
<g id="Group">
<path id="Vector" d="M19.7341 38.2737H17.0763L16.8555 40.4359L18.3523 41.6071L19.7495 40.4359L19.7341 38.2737Z" fill="white"/>
</g>
</mask>
<g mask="url(#mask0_10943_192023)">
<path id="&#231;&#159;&#169;&#229;&#189;&#162;&#229;&#164;&#135;&#228;&#187;&#189;-7" fill-rule="evenodd" clip-rule="evenodd" d="M20.4512 38.1422L16.8443 38.2737L16.8828 39.8937L17.1121 39.9117C18.4738 40.0181 19.7746 39.3288 20.4512 38.1422Z" fill="#FF9667" fill-opacity="0.8"/>
</g>
</g>
</g>
<path id="&#232;&#183;&#175;&#229;&#190;&#132;-4" fill-rule="evenodd" clip-rule="evenodd" d="M27.7319 47.4552L25.1211 42.2848L22.7302 45.6318L24.5839 48.2465L27.7319 47.4552Z" fill="#F6F6F6"/>
<path id="&#232;&#183;&#175;&#229;&#190;&#132;-4_2" fill-rule="evenodd" clip-rule="evenodd" d="M30.7824 43.4134L24.1146 47.2942L24.7272 48.5495C25.0712 49.2544 25.9216 49.5471 26.6265 49.203C26.6841 49.1749 26.7397 49.143 26.793 49.1074L32.4652 45.3157L30.7824 43.4134Z" fill="#F6F6F6"/>
<g id="&#231;&#188;&#150;&#231;&#187;&#132;_5">
<path id="&#231;&#159;&#169;&#229;&#189;&#162;&#229;&#164;&#135;&#228;&#187;&#189;-4" fill-rule="evenodd" clip-rule="evenodd" d="M19.2553 42.502H18.2621L17.4121 52.6891L18.7578 54.4794L20.1052 52.6891L19.2553 42.502Z" fill="#A33300"/>
<path id="&#231;&#159;&#169;&#229;&#189;&#162;_4" fill-rule="evenodd" clip-rule="evenodd" d="M19.6626 41.1475H17.8567L18.263 42.502H19.2562L19.6626 41.1475Z" fill="#A33300"/>
</g>
<g id="&#231;&#188;&#150;&#231;&#187;&#132;-2">
<path id="&#232;&#183;&#175;&#229;&#190;&#132;-15" fill-rule="evenodd" clip-rule="evenodd" d="M19.7852 39.983L18.6965 41.1475L20.0491 42.031L20.5239 40.5033L19.7852 39.983Z" fill="white"/>
<path id="&#232;&#183;&#175;&#229;&#190;&#132;-15&#229;&#164;&#135;&#228;&#187;&#189;" fill-rule="evenodd" clip-rule="evenodd" d="M16.8608 39.983L18.6968 41.1475L17.5165 42.4041L16.1323 40.5033L16.8608 39.983Z" fill="white"/>
</g>
</g>
</g>
<g id="&#229;&#164;&#180;&#233;&#131;&#168;">
<path id="&#231;&#159;&#169;&#229;&#189;&#162;&#229;&#164;&#135;&#228;&#187;&#189;-18" fill-rule="evenodd" clip-rule="evenodd" d="M19.6831 33.9652H19.6433C19.4483 33.4434 18.8829 33.1615 18.3489 33.3197L16.817 33.7737L16.6038 33.8445C16.1676 33.9894 15.8876 34.4144 15.9265 34.8723L16.0442 36.2548C16.1108 37.0371 16.4816 37.762 17.0769 38.2737L19.4641 37.5087C20.0185 37.3311 20.4222 36.8517 20.5029 36.2751L20.6678 35.0972C20.7439 34.5534 20.3648 34.0509 19.821 33.9748C19.7753 33.9684 19.7293 33.9652 19.6831 33.9652Z" fill="#681E20"/>
<path id="&#231;&#159;&#169;&#229;&#189;&#162;&#229;&#164;&#135;&#228;&#187;&#189;-23" fill-rule="evenodd" clip-rule="evenodd" d="M16.9086 36.1967L17.2292 36.2598V37.375L16.9051 37.301C16.5948 37.23 16.3748 36.954 16.3748 36.6357C16.3748 36.3886 16.5751 36.1883 16.8222 36.1883C16.8512 36.1883 16.8801 36.1911 16.9086 36.1967Z" fill="#FFB999"/>
<path id="&#231;&#159;&#169;&#229;&#189;&#162;&#229;&#164;&#135;&#228;&#187;&#189;-22" fill-rule="evenodd" clip-rule="evenodd" d="M18.6722 34.2484C17.7318 34.2484 16.9695 35.0107 16.9695 35.951V37.5156C16.9695 38.456 17.7318 39.2183 18.6722 39.2183C19.6122 39.2166 20.3734 38.4543 20.3737 37.5143L20.3743 35.951C20.3746 35.011 19.6128 34.2487 18.6728 34.2484L18.6722 34.2484Z" fill="#FFB999"/>
<path id="&#232;&#183;&#175;&#229;&#190;&#132;-40" opacity="0.5" fill-rule="evenodd" clip-rule="evenodd" d="M20.2505 34.709C19.5205 35.5729 18.2604 35.7558 17.3149 35.1351L17.0182 34.9404L20.2505 34.709Z" fill="#F4956A"/>
<path id="&#230;&#164;&#173;&#229;&#156;&#134;&#229;&#189;&#162;&#229;&#164;&#135;&#228;&#187;&#189;-5" fill-rule="evenodd" clip-rule="evenodd" d="M20.3943 35.9153C20.8281 34.6994 20.2328 34.0915 18.6086 34.0915C16.9843 34.0915 16.3705 34.8128 16.7672 36.2555C16.78 35.9836 16.8251 35.7669 16.9026 35.6055C17.0188 35.3633 17.1939 34.9652 17.504 34.9652C17.8141 34.9652 17.8813 35.1435 18.7149 35.1435C19.2025 35.1435 19.6374 35.0542 20.0197 34.8757C20.0705 34.9196 20.1379 35.0235 20.2217 35.1875C20.3056 35.3516 20.3631 35.5942 20.3943 35.9153Z" fill="#681E20"/>
</g>
</g>
</g>
<defs>
<linearGradient id="paint0_linear_10943_192023" x1="3488.84" y1="7621.07" x2="3488.84" y2="8.90152" gradientUnits="userSpaceOnUse">
<stop stop-color="#E7E7E7"/>
<stop offset="1" stop-color="#DDDDDD"/>
</linearGradient>
<linearGradient id="paint1_linear_10943_192023" x1="1724.19" y1="377.81" x2="52.1802" y2="377.81" gradientUnits="userSpaceOnUse">
<stop stop-color="#FF8802"/>
<stop offset="1" stop-color="#FF5001"/>
</linearGradient>
<linearGradient id="paint2_linear_10943_192023" x1="3363.5" y1="389.493" x2="43.7549" y2="389.493" gradientUnits="userSpaceOnUse">
<stop stop-color="#FF8802"/>
<stop offset="1" stop-color="#FF5001"/>
</linearGradient>
<linearGradient id="paint3_linear_10943_192023" x1="637.713" y1="70.765" x2="637.713" y2="862.534" gradientUnits="userSpaceOnUse">
<stop stop-color="#F6F6F6"/>
<stop offset="1" stop-color="#EEEEEE"/>
</linearGradient>
</defs>
</svg>
