<svg xmlns="http://www.w3.org/2000/svg" width="48" height="48" viewBox="0 0 48 48" fill="none">
  <path d="M0.673738 46.2225C0.386418 45.7933 0.179953 45.3054 0.0761361 44.7806L0.56663 44.6836C0.52297 44.4629 0.5 44.2344 0.5 44V43H0V41H0.5V39H0V37H0.5V35H0V33H0.5V31H0V29H0.5V27H0V25H0.5V23H0V21H0.5V19H0V17H0.5V15H0V13H0.5V11H0V9H0.5V7H0V5H0.5V4C0.5 3.76561 0.52297 3.53708 0.56663 3.31639L0.0761362 3.21935C0.179953 2.69457 0.386418 2.2067 0.673738 1.77754L1.08922 2.0557C1.3449 1.6738 1.6738 1.3449 2.0557 1.08922L1.77754 0.673738C2.2067 0.386418 2.69457 0.179953 3.21935 0.0761362L3.31639 0.56663C3.53708 0.52297 3.76561 0.5 4 0.5H5V0H7V0.5H9V0H11V0.5H13V0H15V0.5H17V0H19V0.5H21V0H23V0.5H25V0H27V0.5H29V0H31V0.5H33V0H35V0.5H37V0H39V0.5H41V0H43V0.5H44C44.2344 0.5 44.4629 0.52297 44.6836 0.56663L44.7806 0.076136C45.3054 0.179953 45.7933 0.386418 46.2225 0.673737L45.9443 1.08922C46.3262 1.3449 46.6551 1.6738 46.9108 2.0557L47.3263 1.77754C47.6136 2.2067 47.82 2.69457 47.9239 3.21935L47.4334 3.31639C47.477 3.53708 47.5 3.76561 47.5 4V5H48V7H47.5V9H48V11H47.5V13H48V15H47.5V17H48V19H47.5V21H48V23H47.5V25H48V27H47.5V29H48V31H47.5V33H48V35H47.5V37H48V39H47.5V41H48V43H47.5V44C47.5 44.2344 47.477 44.4629 47.4334 44.6836L47.9239 44.7806C47.82 45.3054 47.6136 45.7933 47.3263 46.2225L46.9108 45.9443C46.6551 46.3262 46.3262 46.6551 45.9443 46.9108L46.2225 47.3263C45.7933 47.6136 45.3054 47.82 44.7806 47.9239L44.6836 47.4334C44.4629 47.477 44.2344 47.5 44 47.5H43V48H41V47.5H39V48H37V47.5H35V48H33V47.5H31V48H29V47.5H27V48H25V47.5H23V48H21V47.5H19V48H17V47.5H15V48H13V47.5H11V48H9V47.5H7V48H5V47.5H4C3.76561 47.5 3.53708 47.477 3.31639 47.4334L3.21935 47.9239C2.69457 47.82 2.2067 47.6136 1.77754 47.3263L2.0557 46.9108C1.6738 46.6551 1.3449 46.3262 1.08922 45.9443L0.673738 46.2225Z" stroke="#DBDBDB" stroke-dasharray="2 2"/>
  <rect x="18" y="23" width="12" height="2" rx="1" fill="#FF7B00"/>
  <rect x="23" y="30" width="12" height="2" rx="1" transform="rotate(-90 23 30)" fill="#FF7B00"/>
</svg>
