<svg xmlns="http://www.w3.org/2000/svg" width="34" height="34" viewBox="0 0 34 34" fill="none">
  <path d="M0.673738 32.2225C0.386418 31.7933 0.179953 31.3054 0.0761361 30.7806L0.56663 30.6836C0.52297 30.4629 0.5 30.2344 0.5 30V29.0714H0V27.2143H0.5V25.3571H0V23.5H0.5V21.6429H0V19.7857H0.5V17.9286H0V16.0714H0.5V14.2143H0V12.3571H0.5V10.5H0V8.64286H0.5V6.78571H0V4.92857H0.5V4C0.5 3.76561 0.52297 3.53708 0.56663 3.31639L0.0761361 3.21935C0.179953 2.69457 0.386418 2.2067 0.673738 1.77754L1.08922 2.0557C1.3449 1.6738 1.6738 1.3449 2.0557 1.08922L1.77754 0.673738C2.2067 0.386419 2.69457 0.179953 3.21935 0.0761362L3.31639 0.56663C3.53708 0.52297 3.76561 0.5 4 0.5H4.92857V0H6.78571V0.5H8.64286V0H10.5V0.5H12.3571V0H14.2143V0.5H16.0714V0H17.9286V0.5H19.7857V0H21.6429V0.5H23.5V0H25.3571V0.5H27.2143V0H29.0714V0.5H30C30.2344 0.5 30.4629 0.52297 30.6836 0.56663L30.7806 0.0761363C31.3054 0.179953 31.7933 0.386418 32.2225 0.673738L31.9443 1.08922C32.3262 1.3449 32.6551 1.6738 32.9108 2.0557L33.3263 1.77754C33.6136 2.2067 33.82 2.69457 33.9239 3.21935L33.4334 3.31639C33.477 3.53708 33.5 3.76561 33.5 4V4.92857H34V6.78571H33.5V8.64286H34V10.5H33.5V12.3571H34V14.2143H33.5V16.0714H34V17.9286H33.5V19.7857H34V21.6429H33.5V23.5H34V25.3571H33.5V27.2143H34V29.0714H33.5V30C33.5 30.2344 33.477 30.4629 33.4334 30.6836L33.9239 30.7806C33.82 31.3054 33.6136 31.7933 33.3263 32.2225L32.9108 31.9443C32.6551 32.3262 32.3262 32.6551 31.9443 32.9108L32.2225 33.3263C31.7933 33.6136 31.3054 33.82 30.7806 33.9239L30.6836 33.4334C30.4629 33.477 30.2344 33.5 30 33.5H29.0714V34H27.2143V33.5H25.3571V34H23.5V33.5H21.6429V34H19.7857V33.5H17.9286V34H16.0714V33.5H14.2143V34H12.3571V33.5H10.5V34H8.64286V33.5H6.78571V34H4.92857V33.5H4C3.76561 33.5 3.53708 33.477 3.31639 33.4334L3.21935 33.9239C2.69457 33.82 2.2067 33.6136 1.77754 33.3263L2.0557 32.9108C1.6738 32.6551 1.3449 32.3262 1.08922 31.9443L0.673738 32.2225Z" stroke="#DBDBDB" stroke-dasharray="2 2"/>
  <rect x="12" y="16" width="10" height="2" rx="1" fill="#FF4D4F"/>
</svg>
