<svg width="16" height="14" viewBox="0 0 16 14" fill="none" xmlns="http://www.w3.org/2000/svg">
<g id="Frame 3">
<path id="Union" d="M14 7C14 3.13401 10.866 1.18292e-06 7 0C3.13401 -2.14186e-06 1.18292e-06 3.134 0 7C-2.14186e-06 10.866 3.134 14 7 14C10.866 14 14 10.866 14 7ZM4.31629 4.30002C4.51214 4.10535 4.82872 4.10631 5.02339 4.30216L7.00001 6.29075L8.97663 4.30216C9.1713 4.10631 9.48789 4.10535 9.68374 4.30002C9.87959 4.49469 9.88054 4.81128 9.68587 5.00713L7.70499 7L9.68586 8.99287C9.88053 9.18872 9.87958 9.5053 9.68373 9.69997C9.48788 9.89465 9.1713 9.89369 8.97662 9.69784L7.00001 7.70925L5.0234 9.69784C4.82873 9.89369 4.51215 9.89464 4.3163 9.69997C4.12045 9.5053 4.11949 9.18872 4.31416 8.99287L6.29503 7L4.31415 5.00713C4.11948 4.81128 4.12044 4.49469 4.31629 4.30002Z" fill="#999999"/>
<path id="Union_2" d="M4.31653 4.29975C4.51238 4.10508 4.82897 4.10603 5.02364 4.30189L7.00026 6.29048L8.97688 4.30189C9.17155 4.10603 9.48813 4.10508 9.68398 4.29975C9.87983 4.49442 9.88079 4.811 9.68612 5.00685L7.70524 6.99973L9.68611 8.9926C9.88078 9.18845 9.87982 9.50503 9.68397 9.6997C9.48812 9.89437 9.17154 9.89342 8.97687 9.69757L7.00026 7.70898L5.02365 9.69757C4.82897 9.89342 4.51239 9.89437 4.31654 9.6997C4.12069 9.50503 4.11974 9.18845 4.31441 8.9926L6.29528 6.99973L4.3144 5.00685C4.11973 4.811 4.12068 4.49442 4.31653 4.29975Z" fill="white"/>
</g>
</svg>
