<svg width="12" height="12" viewBox="0 0 12 12" fill="none" xmlns="http://www.w3.org/2000/svg">
<path id="Union" fill-rule="evenodd" clip-rule="evenodd" d="M10.9502 10.2422C11.1455 10.4374 11.1455 10.754 10.9502 10.9493C10.755 11.1445 10.4384 11.1445 10.2431 10.9493L6.00057 6.7067L1.75801 10.9493C1.56274 11.1445 1.24616 11.1445 1.0509 10.9493C0.855638 10.754 0.855638 10.4374 1.0509 10.2422L5.29346 5.99959L1.05074 1.75687C0.855481 1.56161 0.855481 1.24503 1.05074 1.04977C1.24601 0.854505 1.56259 0.854505 1.75785 1.04977L6.00057 5.29249L10.2433 1.04977C10.4385 0.854505 10.7551 0.854505 10.9504 1.04977C11.1457 1.24503 11.1457 1.56161 10.9504 1.75687L6.70768 5.99959L10.9502 10.2422Z" fill="#999999"/>
</svg>
