<svg width="15" height="6" viewBox="0 0 15 6" fill="none" xmlns="http://www.w3.org/2000/svg">
<g id="&#229;&#136;&#135;&#229;&#155;&#190;">
<g id="Union">
<mask id="path-1-inside-1_9203_272336" fill="white">
<path fill-rule="evenodd" clip-rule="evenodd" d="M15 1.5H0V4C0 4.82843 3.35786 5.5 7.5 5.5C11.6421 5.5 15 4.82843 15 4V1.5Z"/>
</mask>
<path fill-rule="evenodd" clip-rule="evenodd" d="M15 1.5H0V4C0 4.82843 3.35786 5.5 7.5 5.5C11.6421 5.5 15 4.82843 15 4V1.5Z" fill="url(#paint0_linear_9203_272336)"/>
<path d="M0 1.5V0.5H-1V1.5H0ZM15 1.5H16V0.5H15V1.5ZM0 2.5H15V0.5H0V2.5ZM1 4V1.5H-1V4H1ZM7.5 4.5C5.47423 4.5 3.66804 4.33512 2.39282 4.08008C1.74697 3.95091 1.28913 3.80858 1.01686 3.67984C0.878188 3.61427 0.840517 3.57657 0.851344 3.58715C0.863839 3.59936 1 3.73989 1 4H-1C-1 4.46722 -0.758906 4.80995 -0.546597 5.01745C-0.335956 5.22333 -0.0789344 5.37401 0.161915 5.4879C0.648689 5.71807 1.2892 5.89896 2.00058 6.04124C3.43983 6.32909 5.38363 6.5 7.5 6.5V4.5ZM14 4C14 3.73989 14.1362 3.59936 14.1487 3.58715C14.1595 3.57657 14.1218 3.61427 13.9831 3.67984C13.7109 3.80858 13.253 3.95091 12.6072 4.08008C11.332 4.33512 9.52577 4.5 7.5 4.5V6.5C9.61637 6.5 11.5602 6.32909 12.9994 6.04124C13.7108 5.89896 14.3513 5.71807 14.8381 5.4879C15.0789 5.37401 15.336 5.22333 15.5466 5.01745C15.7589 4.80995 16 4.46722 16 4H14ZM14 1.5V4H16V1.5H14Z" fill="url(#paint1_linear_9203_272336)" mask="url(#path-1-inside-1_9203_272336)"/>
</g>
<path id="Ellipse 197" d="M14.1969 1.36815C14.3019 1.41782 14.3776 1.46271 14.4302 1.5C14.3776 1.53729 14.3019 1.58218 14.1969 1.63185C13.871 1.78595 13.3675 1.93792 12.7052 2.07037C11.389 2.33362 9.54842 2.5 7.5 2.5C5.45158 2.5 3.61099 2.33362 2.29476 2.07037C1.63252 1.93792 1.12902 1.78595 0.803123 1.63185C0.698067 1.58218 0.622358 1.53729 0.569782 1.5C0.622358 1.46271 0.698067 1.41782 0.803123 1.36815C1.12902 1.21405 1.63252 1.06208 2.29476 0.92963C3.61099 0.666385 5.45158 0.5 7.5 0.5C9.54842 0.5 11.389 0.666385 12.7052 0.92963C13.3675 1.06208 13.871 1.21405 14.1969 1.36815Z" fill="url(#paint2_linear_9203_272336)" stroke="url(#paint3_linear_9203_272336)"/>
</g>
<defs>
<linearGradient id="paint0_linear_9203_272336" x1="0" y1="3.5" x2="15" y2="3.5" gradientUnits="userSpaceOnUse">
<stop stop-color="#FF650D"/>
<stop offset="0.53" stop-color="#FFE39A"/>
<stop offset="1" stop-color="#FF650D"/>
</linearGradient>
<linearGradient id="paint1_linear_9203_272336" x1="8" y1="3.5" x2="8" y2="5.5" gradientUnits="userSpaceOnUse">
<stop stop-color="#FF711B"/>
<stop offset="1" stop-color="#F1CE86"/>
</linearGradient>
<linearGradient id="paint2_linear_9203_272336" x1="7" y1="2.54313e-08" x2="7" y2="3" gradientUnits="userSpaceOnUse">
<stop stop-color="#FF7B00"/>
<stop offset="1" stop-color="#FFBB7C"/>
</linearGradient>
<linearGradient id="paint3_linear_9203_272336" x1="8" y1="3" x2="8" y2="-2.54239e-08" gradientUnits="userSpaceOnUse">
<stop stop-color="#FFD78D"/>
<stop offset="1" stop-color="#F77700" stop-opacity="0"/>
</linearGradient>
</defs>
</svg>
