<svg width="16" height="14" viewBox="0 0 16 14" fill="none" xmlns="http://www.w3.org/2000/svg">
<path id="Union" fill-rule="evenodd" clip-rule="evenodd" d="M9.41359 1.25254C8.74562 0.762538 7.80689 0.906815 7.31689 1.57479L1.27006 9.81795C0.809561 10.4457 0.905886 11.3214 1.49182 11.8341L2.44465 12.6677C2.64801 12.8457 2.89425 12.9642 3.15656 13.0133V13.0389L15.0208 13.0389V12.0389L9.6044 12.0389L13.7947 6.32664C14.2847 5.65866 14.1404 4.71994 13.4724 4.22994L9.41359 1.25254ZM8.62088 11.689L8.3642 12.0389L3.55665 12.0389V12.0388H3.43236C3.31126 12.0388 3.19427 11.9949 3.10312 11.9151L2.1503 11.0815C1.95499 10.9106 1.92288 10.6187 2.07638 10.4094L3.72572 8.16102L8.62088 11.689ZM9.21238 10.8827L12.9884 5.73516C13.1517 5.5125 13.1036 5.19959 12.881 5.03626L8.82211 2.05886C8.59945 1.89552 8.28654 1.94362 8.12321 2.16627L4.31722 7.35467L9.21238 10.8827Z" fill="#1A1A1A"/>
</svg>
