<svg width="14" height="14" viewBox="0 0 14 14" fill="none" xmlns="http://www.w3.org/2000/svg">
<g id="&#229;&#155;&#190;&#230;&#160;&#135;">
<path id="Union" d="M14 7C14 3.13401 10.866 1.18292e-06 7 0C3.13401 -2.14186e-06 1.18292e-06 3.134 0 7C-2.14186e-06 10.866 3.134 14 7 14C10.866 14 14 10.866 14 7Z" fill="#FAAD14"/>
<path id="Union_2" d="M4.35355 9.68446C4.15829 9.4892 4.15829 9.17262 4.35355 8.97736L6.31195 7.01896L4.35365 5.06066C4.15838 4.8654 4.15838 4.54882 4.35365 4.35355C4.54891 4.15829 4.86549 4.15829 5.06075 4.35355L7.01905 6.31185L8.97736 4.35355C9.17262 4.15829 9.4892 4.15829 9.68446 4.35355C9.87972 4.54882 9.87972 4.8654 9.68446 5.06066L7.72616 7.01896L9.68456 8.97736C9.87982 9.17262 9.87982 9.4892 9.68455 9.68446C9.48929 9.87972 9.17271 9.87972 8.97745 9.68446L7.01905 7.72607L5.06066 9.68446C4.8654 9.87972 4.54882 9.87972 4.35355 9.68446Z" fill="white"/>
</g>
</svg>
