<svg width="16" height="16" viewBox="0 0 16 16" fill="none" xmlns="http://www.w3.org/2000/svg">
<g id="&#229;&#155;&#190;&#230;&#160;&#135;/16/&#233;&#148;&#153;&#232;&#175;&#175;">
<path id="Union" d="M15 8C15 4.13401 11.866 1 8 1C4.13401 0.999998 1 4.134 1 8C0.999998 11.866 4.134 15 8 15C11.866 15 15 11.866 15 8ZM8 4.0003C8.27614 4.0003 8.5 4.22416 8.5 4.5003V8.99999C8.5 9.27614 8.27614 9.49999 8 9.49999C7.72386 9.49999 7.5 9.27614 7.5 8.99999V4.5003C7.5 4.22416 7.72386 4.0003 8 4.0003ZM7.39429 11.6C7.39429 11.2686 7.66291 11 7.99429 11C8.32566 11 8.59429 11.2686 8.59429 11.6C8.59429 11.9314 8.32566 12.2 7.99429 12.2C7.66291 12.2 7.39429 11.9314 7.39429 11.6Z" fill="#FF4D4F"/>
</g>
</svg>
