<svg width="14" height="14" viewBox="0 0 14 14" fill="none" xmlns="http://www.w3.org/2000/svg">
<path id="Union" d="M6.90484 1.79168C9.8489 1.79168 12.2085 4.13834 12.2085 7C12.2085 9.86166 9.8489 12.2083 6.90484 12.2083C4.44328 12.2083 2.39031 10.5678 1.7835 8.35743L0.75 8.52608C1.44146 11.2402 3.93486 13.25 6.90484 13.25C10.4093 13.25 13.2502 10.4518 13.2502 7C13.2502 3.54822 10.4093 0.75 6.90484 0.75C4.80524 0.75 2.94382 1.75442 1.78883 3.30205L1.78883 1.64315H0.75V4.78964C0.75 5.06579 0.973858 5.28964 1.25 5.28964L4.37662 5.28964V4.24512H2.40357C3.33798 2.77514 4.99894 1.79168 6.90484 1.79168Z" fill="#999999"/>
</svg>
