<svg width="14" height="14" viewBox="0 0 14 14" fill="none" xmlns="http://www.w3.org/2000/svg">
<g id="Union">
<path d="M6.3999 10.6C6.3999 10.2686 6.66853 10 6.9999 10C7.33127 10 7.5999 10.2686 7.5999 10.6C7.5999 10.9314 7.33127 11.2 6.9999 11.2C6.66853 11.2 6.3999 10.9314 6.3999 10.6Z" fill="#999999"/>
<path d="M6.99995 3.0061C5.66231 3.0061 4.57495 4.09346 4.57495 5.4311H5.57495C5.57495 4.64574 6.21459 4.0061 6.99995 4.0061C7.78531 4.0061 8.42495 4.64574 8.42495 5.4311C8.42495 5.96885 7.98046 6.50808 7.40031 6.74376L7.39775 6.74481C6.86821 6.96335 6.5 7.48413 6.5 8.0925V9H7.5V8.0925C7.5 7.89828 7.61531 7.73731 7.77822 7.66961C8.60555 7.33289 9.42495 6.49869 9.42495 5.4311C9.42495 4.09346 8.33759 3.0061 6.99995 3.0061Z" fill="#999999"/>
<path d="M14 7C14 3.13401 10.866 1.18292e-06 7 0C3.13401 -2.14186e-06 1.18292e-06 3.134 0 7C-2.14186e-06 10.866 3.134 14 7 14C10.866 14 14 10.866 14 7ZM13 7C13 10.3137 10.3137 13 7 13C3.68629 13 0.999999 10.3137 1 7C1 3.68629 3.68629 0.999999 7 1C10.3137 1 13 3.68629 13 7Z" fill="#999999"/>
</g>
</svg>
