<svg width="18" height="125" viewBox="0 0 18 125" fill="none" xmlns="http://www.w3.org/2000/svg">
<path d="M16.4999 41.5V62.9995C16.4999 62.9995 16.4999 63 16.9999 63H16.5992C16.4999 63 16.4999 62.9995 16.4999 62.9995L16.4999 63.0005L16.4999 84.5C16.4999 86.857 15.5596 88.9415 14.0994 90.8961C12.6339 92.8577 10.671 94.6547 8.66743 96.4391C8.50964 96.5797 8.35155 96.7201 8.19342 96.8606L8.17521 96.8768C6.34799 98.5005 4.51842 100.126 3.11414 101.83C1.57994 103.692 0.500023 105.709 0.500024 108L0.5 124.996C0.5 124.999 0.5 125 1 125C1.5 125 1.5 124.999 1.5 124.996L1.50002 108C1.50002 106.041 2.4201 104.245 3.88588 102.466C5.23803 100.826 7.00916 99.2513 8.85147 97.6137L8.87908 97.5892C9.02982 97.4552 9.18104 97.3208 9.33252 97.1859C11.3289 95.4078 13.366 93.5486 14.9005 91.4946C16.4403 89.4335 17.4999 87.143 17.4999 84.5V63.0005L17.4999 62.9995V41.5C17.4999 38.857 16.4403 36.5665 14.9005 34.5054C13.366 32.4514 11.3289 30.5922 9.33252 28.8141C9.17179 28.671 9.01136 28.5284 8.85147 28.3863C7.00916 26.7487 5.23804 25.1745 3.88588 23.5336C2.4201 21.7548 1.50003 19.9591 1.50003 18L1.5 0.00308037C1.5 0.0010282 1.5 0 1 0C0.5 0 0.5 0.0010282 0.5 0.00308037L0.500026 18C0.500026 20.2909 1.57994 22.3077 3.11414 24.1695C4.51843 25.8737 6.34799 27.4995 8.17521 29.1232L8.19343 29.1394C8.35155 29.2799 8.50964 29.4203 8.66743 29.5609C10.671 31.3453 12.6339 33.1423 14.0994 35.1039C15.5596 37.0585 16.4999 39.143 16.4999 41.5Z" fill="#E8E8E8"/>
</svg>
