<svg width="300" height="300" viewBox="0 0 140 140" fill="none" xmlns="http://www.w3.org/2000/svg">
<path d="M33.2344 68.0562C33.2344 74.9306 35.9652 81.5235 40.8262 86.3844C45.6871 91.2454 52.28 93.9762 59.1544 93.9762C66.0288 93.9762 72.6216 91.2454 77.4826 86.3844C82.3435 81.5235 85.0744 74.9306 85.0744 68.0562C85.0744 61.1818 82.3435 54.589 77.4826 49.728C72.6216 44.8671 66.0288 42.1362 59.1544 42.1362C52.28 42.1362 45.6871 44.8671 40.8262 49.728C35.9652 54.589 33.2344 61.1818 33.2344 68.0562Z" fill="#FBD07B"/>
<path d="M59.1544 42.1362C54.0279 42.1362 49.0165 43.6564 44.754 46.5045C40.4915 49.3527 37.1693 53.4008 35.2074 58.1371C33.2456 62.8733 32.7323 68.085 33.7324 73.113C34.7326 78.141 37.2012 82.7595 40.8262 86.3844C44.4512 90.0094 49.0697 92.4781 54.0976 93.4782C59.1256 94.4783 64.3373 93.965 69.0735 92.0032C73.8098 90.0414 77.8579 86.7191 80.7061 82.4566C83.5542 78.1941 85.0744 73.1827 85.0744 68.0562C85.0744 61.1818 82.3435 54.589 77.4826 49.728C72.6217 44.8671 66.0288 42.1362 59.1544 42.1362ZM59.1544 90.0882C54.4765 90.0882 49.9036 88.7011 46.014 86.1021C42.1245 83.5032 39.093 79.8093 37.3028 75.4875C35.5126 71.1656 35.0442 66.41 35.9569 61.822C36.8695 57.2339 39.1221 53.0195 42.4299 49.7117C45.7377 46.4039 49.9521 44.1513 54.5401 43.2387C59.1282 42.3261 63.8838 42.7945 68.2056 44.5846C72.5275 46.3748 76.2214 49.4063 78.8203 53.2959C81.4192 57.1854 82.8064 61.7583 82.8064 66.4362C82.8064 72.7091 80.3145 78.7251 75.8789 83.1607C71.4433 87.5963 65.4273 90.0882 59.1544 90.0882Z" fill="#DCB567"/>
<path d="M51.3779 47.3202C51.3779 47.5755 51.5791 47.8283 51.9698 48.0642C52.3606 48.3 52.9334 48.5143 53.6555 48.6948C54.3775 48.8754 55.2348 49.0185 56.1782 49.1162C57.1216 49.2139 58.1328 49.2642 59.1539 49.2642C60.1751 49.2642 61.1862 49.2139 62.1297 49.1162C63.0731 49.0185 63.9303 48.8754 64.6524 48.6948C65.3745 48.5143 65.9472 48.3 66.338 48.0642C66.7288 47.8283 66.9299 47.5755 66.9299 47.3202C66.9299 47.0649 66.7288 46.8121 66.338 46.5763C65.9472 46.3404 65.3745 46.1261 64.6524 45.9456C63.9303 45.7651 63.0731 45.6219 62.1297 45.5242C61.1862 45.4265 60.1751 45.3762 59.1539 45.3762C58.1328 45.3762 57.1216 45.4265 56.1782 45.5242C55.2348 45.6219 54.3775 45.7651 53.6555 45.9456C52.9334 46.1261 52.3606 46.3404 51.9698 46.5763C51.5791 46.8121 51.3779 47.0649 51.3779 47.3202Z" fill="#FFEDC8"/>
<path opacity="0.15" d="M38.4189 99.1603C38.4189 99.6759 40.6036 100.17 44.4924 100.535C48.3811 100.899 53.6554 101.104 59.1549 101.104C64.6545 101.104 69.9288 100.899 73.8175 100.535C77.7063 100.17 79.8909 99.6759 79.8909 99.1603C79.8909 98.6447 77.7063 98.1503 73.8175 97.7857C69.9288 97.4211 64.6545 97.2163 59.1549 97.2163C53.6554 97.2163 48.3811 97.4211 44.4924 97.7857C40.6036 98.1503 38.4189 98.6447 38.4189 99.1603Z" fill="#45413C"/>
<path d="M33.2344 68.0562C33.2344 74.9306 35.9652 81.5235 40.8262 86.3844C45.6871 91.2454 52.28 93.9762 59.1544 93.9762C66.0288 93.9762 72.6216 91.2454 77.4826 86.3844C82.3435 81.5235 85.0744 74.9306 85.0744 68.0562C85.0744 61.1818 82.3435 54.589 77.4826 49.728C72.6216 44.8671 66.0288 42.1362 59.1544 42.1362C52.28 42.1362 45.6871 44.8671 40.8262 49.728C35.9652 54.589 33.2344 61.1818 33.2344 68.0562V68.0562Z" stroke="#45413C" stroke-width="1.296" stroke-linecap="round" stroke-linejoin="round"/>
<path d="M77.9468 74.5363C77.9468 75.612 76.4953 76.4803 74.7068 76.4803C72.9183 76.4803 71.4668 75.612 71.4668 74.5363C71.4668 73.4606 72.9183 72.5923 74.7068 72.5923C76.4953 72.5923 77.9468 73.4606 77.9468 74.5363Z" fill="#FFAA54"/>
<path d="M40.3623 74.536C40.3623 75.6117 41.8138 76.48 43.6023 76.48C45.3908 76.48 46.8423 75.6117 46.8423 74.536C46.8423 73.4604 45.3908 72.592 43.6023 72.592C41.8138 72.592 40.3623 73.4604 40.3623 74.536Z" fill="#FFAA54"/>
<path d="M41.0107 69.6762C41.0107 69.0747 41.2497 68.4978 41.675 68.0725C42.1004 67.6472 42.6772 67.4082 43.2787 67.4082C43.8803 67.4082 44.4571 67.6472 44.8825 68.0725C45.3078 68.4978 45.5467 69.0747 45.5467 69.6762" stroke="#45413C" stroke-width="1.296" stroke-linecap="round" stroke-linejoin="round"/>
<path d="M72.7627 69.6762C72.7627 69.0747 73.0016 68.4978 73.427 68.0725C73.8523 67.6472 74.4292 67.4082 75.0307 67.4082C75.6322 67.4082 76.2091 67.6472 76.6344 68.0725C77.0597 68.4978 77.2987 69.0747 77.2987 69.6762" stroke="#45413C" stroke-width="1.296" stroke-linecap="round" stroke-linejoin="round"/>
<!-- 星星 -->
<path d="M93.0709 48.8365L98.9547 46.8665C99.063 46.8279 99.1567 46.7567 99.2229 46.6628C99.2892 46.5688 99.3248 46.4566 99.3248 46.3417C99.3248 46.2267 99.2892 46.1145 99.2229 46.0206C99.1567 45.9266 99.063 45.8554 98.9547 45.8168L94.1206 44.2097C93.792 44.0983 93.4942 43.9112 93.251 43.6636C93.0079 43.416 92.8264 43.1148 92.721 42.7841L91.1139 37.9501C91.0743 37.8407 91.0021 37.7461 90.9071 37.6789C90.8122 37.6117 90.6989 37.5752 90.5826 37.5742C90.4675 37.574 90.3554 37.6103 90.2623 37.6779C90.1691 37.7454 90.0998 37.8407 90.0642 37.9501L88.4442 42.7841C88.3362 43.1176 88.1507 43.4206 87.9029 43.6684C87.655 43.9163 87.352 44.1018 87.0186 44.2097L82.1845 45.8168C82.0762 45.8554 81.9825 45.9266 81.9163 46.0206C81.85 46.1145 81.8145 46.2267 81.8145 46.3417C81.8145 46.4566 81.85 46.5688 81.9163 46.6628C81.9825 46.7567 82.0762 46.8279 82.1845 46.8665L87.0186 48.4865C87.3444 48.5954 87.6404 48.7785 87.8834 49.0214C88.1263 49.2643 88.3094 49.5604 88.4182 49.8862L90.0382 54.7203C90.0739 54.8297 90.1432 54.925 90.2363 54.9925C90.3295 55.06 90.4416 55.0963 90.5566 55.0961C90.673 55.0952 90.7862 55.0587 90.8812 54.9915C90.9762 54.9243 91.0483 54.8297 91.088 54.7203L93.0709 48.8365Z" fill="white" stroke="#45413C" stroke-width="1.296" stroke-linecap="round" stroke-linejoin="round" transform-origin="97px 60px">
    <!-- 动画: 放大 -->
    <animateTransform
      attributeName="transform"
      attributeType="XML"
      type="scale"
      values="1.1;1;1.1"
      dur="1500ms"
      repeatCount="indefinite"
    />
    </path>
<path d="M59.1539 87.5612C71.0771 87.5612 72.6712 82.5845 71.9714 78.4892C71.8211 77.8771 71.5416 77.3043 71.1517 76.8091C70.7618 76.314 70.2705 75.9079 69.7108 75.6183C69.1511 75.3286 68.5359 75.162 67.9065 75.1296C67.2771 75.0972 66.6481 75.1999 66.0616 75.4306C63.8348 76.1719 61.5008 76.5397 59.1539 76.5192C56.8071 76.5397 54.473 76.1719 52.2462 75.4306C51.6598 75.1999 51.0307 75.0972 50.4013 75.1296C49.7719 75.162 49.1567 75.3286 48.597 75.6183C48.0373 75.9079 47.546 76.314 47.1561 76.8091C46.7663 77.3043 46.4868 77.8771 46.3365 78.4892C45.6366 82.5845 47.2307 87.5612 59.1539 87.5612Z" fill="white" stroke="#45413C" stroke-width="1.296" stroke-linecap="round" stroke-linejoin="round"/>
<path d="M72.0879 79.4351C70.1935 80.3001 68.1865 80.8935 66.1263 81.1976C63.821 81.5689 61.4887 81.7466 59.1538 81.729C56.8189 81.7466 54.4866 81.5689 52.1813 81.1976C50.1211 80.8935 48.1141 80.3001 46.2197 79.4351" stroke="#45413C" stroke-width="1.296" stroke-linecap="round" stroke-linejoin="round"/>
<path d="M53.0371 75.6897L52.1817 81.1977L51.3652 86.4983" stroke="#45413C" stroke-width="1.296" stroke-linecap="round" stroke-linejoin="round"/>
<path d="M59.1553 87.5609V76.5449" stroke="#45413C" stroke-width="1.296" stroke-linecap="round" stroke-linejoin="round"/>
<path d="M65.2852 75.6899L66.1276 81.1979L66.944 86.4986" stroke="#45413C" stroke-width="1.296" stroke-linecap="round" stroke-linejoin="round"/>
<!-- 手势 -->
<g>
    <!-- 动画: 旋转 -->
    <animateTransform
      attributeName="transform"
      attributeType="XML"
      type="rotate"
    values="-20 97 84;-10 97 84;0 97 84;10 97 84;20 97 84;0 97 84;
    0 97 84;0 97 84;0 97 84;0 97 84;0 97 84;0 97 84;0 97 84;0 97 84;
    0 97 84;0 97 84;0 97 84;0 97 84;0 97 84;0 97 84;0 97 84;0 97 84;
    0 97 84;0 97 84;0 97 84;0 97 84;0 97 84;0 97 84;0 97 84;0 97 84;
    0 97 84;0 97 84;0 97 84;0 97 84;0 97 84;0 97 84;0 97 84;0 97 84;
    0 97 84;0 97 84;0 97 84;0 97 84;0 97 84;0 97 84;0 97 84;0 97 84;
    "
      dur="5500ms"
      repeatCount="indefinite"
    />
<path d="M97.9495 56.7062C97.4202 56.1703 96.6996 55.8665 95.9464 55.8619C95.1931 55.8572 94.4688 56.1519 93.9329 56.6813C93.3969 57.2106 93.0932 57.9312 93.0885 58.6844C93.0839 59.4377 93.3786 60.1619 93.9079 60.6979C96.7998 63.6285 98.9635 67.1969 100.225 71.1162C98.5733 69.5081 96.4575 68.4606 94.1774 68.1224C92.4923 67.8324 90.765 67.9021 89.1087 68.327C87.4525 68.7518 85.9049 69.5221 84.5674 70.5873C84.1992 70.9151 83.9226 71.3331 83.7646 71.8001C83.6067 72.2671 83.5728 72.7672 83.6664 73.2512C83.76 73.7352 83.9778 74.1866 84.2984 74.5611C84.6191 74.9356 85.0316 75.2203 85.4955 75.3873C86.0126 75.5847 86.5725 75.6425 87.1191 75.5549C87.6656 75.4673 88.1794 75.2374 88.609 74.8883C89.334 74.4033 90.1521 74.0747 91.0112 73.9235C91.8703 73.7723 92.7515 73.8018 93.5986 74.0101C94.9563 74.3079 96.1401 75.1328 96.8897 76.3034C97.6392 77.474 97.893 78.8944 97.5952 80.2521C97.2975 81.6099 96.4726 82.7937 95.302 83.5432C94.1314 84.2928 92.711 84.5466 91.3533 84.2488C90.1716 83.9803 89.0992 83.3596 88.2778 82.4688C87.4564 81.5779 86.9247 80.4587 86.7528 79.2592C86.7298 78.5727 86.4775 77.9137 86.0362 77.3873C85.5948 76.861 84.9899 76.4976 84.3179 76.3553C83.9188 76.2377 83.498 76.2131 83.0879 76.2834C82.6778 76.3536 82.2893 76.5169 81.9521 76.7607C81.6149 77.0044 81.338 77.3222 81.1427 77.6895C80.9473 78.0569 80.8387 78.4641 80.8252 78.88C80.8252 85.9752 86.683 94.3777 95.794 93.1004C103.398 92.0226 105.973 89.8571 107.001 80.2571C107.609 73.0921 104.626 63.5719 97.9495 56.7062Z" fill="#FFCEBF"/>
<path d="M94.2371 60.0892C94.778 59.6173 95.4783 59.3691 96.1957 59.3951C96.9131 59.421 97.5936 59.7192 98.099 60.2289C103.047 65.3676 106.198 71.9706 107.08 79.0497C107.28 72.0642 104.266 63.1927 97.9593 56.7062C97.7058 56.433 97.4008 56.2124 97.062 56.057C96.7232 55.9016 96.357 55.8145 95.9845 55.8006C95.2322 55.7725 94.4995 56.0444 93.9477 56.5566C93.3959 57.0687 93.0701 57.779 93.042 58.5314C93.0139 59.2837 93.2859 60.0164 93.798 60.5682C93.9256 60.3923 94.0729 60.2316 94.2371 60.0892Z" fill="#FFDCD1"/>
<path d="M94.1962 68.1128C96.455 68.463 98.5482 69.5096 100.184 71.1066C99.0785 67.6729 97.2781 64.5036 94.8947 61.796C94.6836 61.554 94.4213 61.362 94.1268 61.234C93.8324 61.1059 93.5131 61.0449 93.1922 61.0554C92.8712 61.0659 92.5566 61.1476 92.2712 61.2947C91.9857 61.4418 91.7365 61.6505 91.5417 61.9058C91.2432 62.3029 91.0911 62.791 91.1111 63.2875C91.1311 63.7839 91.322 64.2582 91.6515 64.6301C92.6086 65.7074 93.4606 66.8736 94.1962 68.1128Z" fill="#FFCEBF"/>
<path d="M91.373 62.2346C91.7639 62.1378 92.1739 62.1509 92.5578 62.2724C92.9417 62.3939 93.2845 62.6191 93.5485 62.9232C95.2211 64.8216 96.6094 66.9528 97.6699 69.25C98.6052 69.7444 99.4653 70.3694 100.225 71.1061C99.1194 67.6724 97.319 64.5031 94.9356 61.7955C94.7245 61.5535 94.4622 61.3616 94.1677 61.2335C93.8733 61.1054 93.554 61.0444 93.2331 61.0549C92.9121 61.0654 92.5975 61.1471 92.3121 61.2942C92.0266 61.4413 91.7775 61.65 91.5826 61.9053C91.5057 62.0104 91.4357 62.1204 91.373 62.2346Z" fill="#FFB59E"/>
<path d="M94.1962 68.1128C96.455 68.463 98.5482 69.5096 100.184 71.1066C99.0785 67.6729 97.2781 64.5036 94.8947 61.796C94.6836 61.554 94.4213 61.362 94.1268 61.234C93.8324 61.1059 93.5131 61.0449 93.1922 61.0554C92.8712 61.0659 92.5566 61.1476 92.2712 61.2947C91.9857 61.4418 91.7365 61.6505 91.5417 61.9058V61.9058C91.2432 62.3029 91.0911 62.791 91.1111 63.2875C91.1311 63.7839 91.322 64.2582 91.6515 64.6301C92.6086 65.7074 93.4606 66.8736 94.1962 68.1128V68.1128Z" stroke="#45413C" stroke-width="0.99792" stroke-linecap="round" stroke-linejoin="round"/>
<path d="M94.1755 71.665C96.5006 72.0043 101.44 74.0301 103.067 75.6068C102.416 73.6614 101.242 71.9329 99.6737 70.6109C98.1053 69.2889 96.2029 68.4244 94.1755 68.1124C92.4904 67.8224 90.7631 67.8921 89.1069 68.3169C87.4506 68.7417 85.903 69.512 84.5655 70.5773C84.0281 71.0608 83.6935 71.7297 83.6287 72.4496C83.5639 73.1696 83.7738 73.8875 84.2163 74.4592C86.5414 72.1141 90.4932 71.1261 94.1755 71.665Z" fill="#FFDCD1"/>
<path d="M100.225 71.1062C101.301 72.1394 102.159 73.3786 102.747 74.7501C103.335 76.1216 103.641 77.5973 103.647 79.0896" stroke="#45413C" stroke-width="0.99792" stroke-linecap="round" stroke-linejoin="round"/>
<path d="M97.9495 56.7062C97.4202 56.1703 96.6996 55.8665 95.9464 55.8619C95.1931 55.8572 94.4688 56.1519 93.9329 56.6813C93.3969 57.2106 93.0932 57.9312 93.0885 58.6844C93.0839 59.4377 93.3786 60.1619 93.9079 60.6979C96.7998 63.6285 98.9635 67.1969 100.225 71.1162C98.5733 69.5081 96.4575 68.4606 94.1774 68.1224C92.4923 67.8324 90.765 67.9021 89.1087 68.327C87.4525 68.7518 85.9049 69.5221 84.5674 70.5873C84.1992 70.9151 83.9226 71.3331 83.7646 71.8001C83.6067 72.2671 83.5728 72.7672 83.6664 73.2512C83.76 73.7352 83.9778 74.1866 84.2984 74.5611C84.6191 74.9356 85.0316 75.2203 85.4955 75.3873C86.0126 75.5847 86.5725 75.6425 87.1191 75.5549C87.6656 75.4673 88.1794 75.2374 88.609 74.8883C89.334 74.4033 90.1521 74.0747 91.0112 73.9235C91.8703 73.7723 92.7515 73.8018 93.5986 74.0101C94.9563 74.3079 96.1401 75.1328 96.8897 76.3034C97.6392 77.474 97.893 78.8944 97.5952 80.2521C97.2975 81.6099 96.4726 82.7937 95.302 83.5432C94.1314 84.2928 92.711 84.5466 91.3533 84.2488C90.1716 83.9803 89.0992 83.3596 88.2778 82.4688C87.4564 81.5779 86.9247 80.4587 86.7528 79.2592C86.7298 78.5727 86.4775 77.9137 86.0362 77.3873C85.5948 76.861 84.9899 76.4976 84.3179 76.3553C83.9188 76.2377 83.498 76.2131 83.0879 76.2834C82.6778 76.3536 82.2893 76.5169 81.9521 76.7607C81.6149 77.0044 81.338 77.3222 81.1427 77.6895C80.9473 78.0569 80.8387 78.4641 80.8252 78.88V78.88C80.8252 85.9752 86.683 94.3777 95.794 93.1004C103.398 92.0226 105.973 89.8571 107.001 80.2571C107.609 73.0921 104.626 63.5719 97.9495 56.7062Z" stroke="#45413C" stroke-width="0.99792" stroke-linecap="round" stroke-linejoin="round"/>
</g>
<!-- 底部阴影 -->
<path opacity="0.15" d="M83.3213 96.344C83.3213 96.741 84.5304 97.1218 86.6826 97.4025C88.8347 97.6832 91.7537 97.8409 94.7974 97.8409C97.841 97.8409 100.76 97.6832 102.912 97.4025C105.064 97.1218 106.273 96.741 106.273 96.344C106.273 95.9471 105.064 95.5663 102.912 95.2856C100.76 95.0049 97.841 94.8472 94.7974 94.8472C91.7537 94.8472 88.8347 95.0049 86.6826 95.2856C84.5304 95.5663 83.3213 95.9471 83.3213 96.344Z" fill="#45413C"/>
<!-- 惊叹 -->
<path d="M97.0107 34.758L100.203 33.762C100.237 33.7534 100.269 33.737 100.296 33.7142C100.323 33.6914 100.345 33.6628 100.359 33.6304C100.374 33.5981 100.381 33.5629 100.38 33.5274C100.378 33.492 100.369 33.4573 100.353 33.426L99.5307 32.04C99.5082 32.0124 99.4798 31.9901 99.4477 31.9749C99.4155 31.9596 99.3803 31.9517 99.3447 31.9517C99.3091 31.9517 99.2739 31.9596 99.2418 31.9749C99.2096 31.9901 99.1812 32.0124 99.1587 32.04L96.7947 34.44C96.7731 34.4745 96.762 34.5146 96.7627 34.5554C96.7635 34.5961 96.7761 34.6357 96.799 34.6695C96.8219 34.7032 96.8541 34.7295 96.8917 34.7452C96.9293 34.7609 96.9706 34.7654 97.0107 34.758Z" fill="#FFE500" stroke="#45413C" stroke-width="0.6" stroke-linecap="round" stroke-linejoin="round" transform-origin="97px 34px">

    <!-- 动画: 放大 -->
    <animateTransform
      attributeName="transform"
      attributeType="XML"
      type="scale"
      values="1.5;1;1.5"
      dur="1500ms"
      repeatCount="indefinite"
    />
    </path>
<path d="M95.2464 33.3241L96.8064 30.3721C96.8256 30.3419 96.8375 30.3077 96.8414 30.2722C96.8453 30.2367 96.841 30.2008 96.8288 30.1672C96.8166 30.1336 96.7969 30.1032 96.7712 30.0784C96.7455 30.0536 96.7144 30.035 96.6804 30.0241L95.1144 29.6221C95.0794 29.6156 95.0433 29.6172 95.0089 29.6268C94.9745 29.6364 94.9428 29.6537 94.9162 29.6775C94.8896 29.7012 94.8687 29.7307 94.8552 29.7638C94.8418 29.7968 94.836 29.8325 94.8384 29.8681V33.2221C94.8377 33.2708 94.8535 33.3183 94.8832 33.3569C94.9129 33.3955 94.9548 33.4229 95.002 33.4347C95.0493 33.4465 95.0991 33.442 95.1435 33.4219C95.1879 33.4018 95.2241 33.3674 95.2464 33.3241Z" fill="#FFE500" stroke="#45413C" stroke-width="0.6" stroke-linecap="round" stroke-linejoin="round" transform-origin="95px 33px">

    <!-- 动画: 放大 -->
    <animateTransform
      attributeName="transform"
      attributeType="XML"
      type="scale"
      values="1.5;1;1.5"
      dur="1500ms"
      repeatCount="indefinite"
    />
    </path>
</svg>
