<svg width="14" height="14" viewBox="0 0 14 14" fill="none" xmlns="http://www.w3.org/2000/svg">
<g id="Union">
<path d="M7 10.5C6.67783 10.5 6.41667 10.2388 6.41667 9.91667V7.58333H4.08333C3.76117 7.58333 3.5 7.32217 3.5 7C3.5 6.67783 3.76117 6.41667 4.08333 6.41667H6.41667V4.08333C6.41667 3.76117 6.67783 3.5 7 3.5C7.32217 3.5 7.58333 3.76117 7.58333 4.08333V6.41667H9.91667C10.2388 6.41667 10.5 6.67783 10.5 7C10.5 7.32217 10.2388 7.58333 9.91667 7.58333H7.58333V9.91667C7.58333 10.2388 7.32216 10.5 7 10.5Z" fill="#999999"/>
<path d="M1.16667 14C0.522334 14 0 13.4777 0 12.8333V1.16667C0 0.522334 0.522336 0 1.16667 0H12.8333C13.4777 0 14 0.522337 14 1.16667L14 12.8333C14 13.4777 13.4777 14 12.8333 14L1.16667 14ZM1.16667 12.8333L12.8333 12.8333L12.8333 1.16667L1.16667 1.16667L1.16667 12.8333Z" fill="#999999"/>
</g>
</svg>
