<svg width="48" height="48" viewBox="0 0 48 48" fill="none" xmlns="http://www.w3.org/2000/svg">
<g id="&#229;&#159;&#142;&#229;&#187;&#186;&#229;&#155;&#190;&#230;&#160;&#135;&#229;&#186;&#147;_&#232;&#181;&#132;&#230;&#150;&#153;1.6 1" clip-path="url(#clip0_8549_54916)">
<path id="Vector" d="M38.2041 48H9.79592C4.40816 48 0 43.5918 0 38.2041V9.79592C0 4.40816 4.40816 0 9.79592 0H38.2041C43.5918 0 48 4.40816 48 9.79592V38.2041C48 43.5918 43.5918 48 38.2041 48Z" fill="url(#paint0_linear_8549_54916)"/>
<path id="Vector_2" opacity="0.88" d="M34.2857 38.2043H13.7143C11.5592 38.2043 9.7959 36.441 9.7959 34.2859V25.8614C9.7959 25.1757 10.4816 24.7349 11.1183 24.9308C15.4286 26.4002 19.7388 27.9185 24 29.3879C28.3102 27.9185 32.6204 26.4002 36.8816 24.9308C37.5183 24.7349 38.2041 25.1757 38.2041 25.8614V34.2859C38.2041 36.441 36.4408 38.2043 34.2857 38.2043Z" fill="white"/>
<path id="Vector_3" opacity="0.4" d="M12.2449 15.1838C10.8734 15.1838 9.7959 16.2614 9.7959 17.6328V25.8614C9.7959 25.1757 10.4816 24.7349 11.1183 24.9308C11.5102 25.0777 11.902 25.1757 12.2449 25.3226V15.1838ZM35.7551 15.1838V25.3226C36.1469 25.1757 36.5388 25.0777 36.8816 24.9308C37.5183 24.7349 38.2041 25.1757 38.2041 25.8614V17.6328C38.2041 16.2614 37.1265 15.1838 35.7551 15.1838Z" fill="white"/>
<path id="Vector_4" opacity="0.6" d="M24.0002 29.3877C27.9186 28.0163 31.837 26.6939 35.7553 25.3224V12.7347C35.7553 11.1183 34.4329 9.7959 32.8165 9.7959H15.1839C13.5676 9.7959 12.2451 11.1183 12.2451 12.7347V25.3224C16.1635 26.6939 20.0819 28.0163 24.0002 29.3877Z" fill="white"/>
<path id="Vector_5" d="M24.0005 29.3875C27.0862 28.3099 30.2209 27.2324 33.3066 26.1548V15.1834C33.3066 13.5671 31.9841 12.2446 30.3678 12.2446H17.6331C16.0168 12.2446 14.6943 13.5671 14.6943 15.1834V26.1548C17.7801 27.2324 20.9147 28.3099 24.0005 29.3875Z" fill="white"/>
<path id="Vector_6" d="M20.8588 15.7075C21.6646 15.7075 22.3471 16.2311 22.5849 16.957H26.8562C28.0631 16.957 29.042 17.9048 29.042 19.0745C29.042 20.2033 28.1297 21.1263 26.9804 21.1884L26.8562 21.1911H21.2147C20.5518 21.1911 20.0149 21.7111 20.0149 22.3536C20.0149 22.9606 20.4967 23.4594 21.1109 23.5109L21.2147 23.5144H25.4478C25.5389 23.0834 25.7835 22.7001 26.1362 22.436C26.4888 22.1719 26.9254 22.0449 27.3646 22.0787C27.8039 22.1126 28.2159 22.3049 28.524 22.6198C28.832 22.9348 29.0151 23.351 29.0391 23.7909C29.0631 24.2308 28.9265 24.6645 28.6545 25.0111C28.3826 25.3578 27.994 25.5938 27.5611 25.6753C27.1281 25.7567 26.6803 25.6781 26.301 25.4539C25.9217 25.2298 25.6368 24.8755 25.4993 24.4569H21.2147C20.0149 24.456 19.0431 23.5135 19.0431 22.3527C19.0431 21.231 19.9492 20.3143 21.0913 20.2522L21.2147 20.2486H26.8562C27.5262 20.2486 28.0693 19.7223 28.0693 19.0736C28.0693 18.4568 27.5795 17.951 26.9556 17.9022L26.8562 17.8977H22.6364C22.5658 18.2337 22.4014 18.5428 22.1624 18.7891C21.9233 19.0355 21.6193 19.2091 21.2857 19.2898C20.952 19.3705 20.6023 19.355 20.2771 19.2451C19.9518 19.1352 19.6644 18.9354 19.4481 18.6689C19.2317 18.4023 19.0954 18.0799 19.0548 17.7391C19.0141 17.3982 19.0709 17.0528 19.2186 16.7429C19.3662 16.4329 19.5987 16.1712 19.889 15.988C20.1792 15.8047 20.5155 15.7075 20.8588 15.7075Z" fill="#FD8638"/>
</g>
<defs>
<linearGradient id="paint0_linear_8549_54916" x1="6.50179" y1="7.34729" x2="21.1964" y2="42.3437" gradientUnits="userSpaceOnUse">
<stop stop-color="#FF934C"/>
<stop offset="1" stop-color="#FC7A27"/>
</linearGradient>
<clipPath id="clip0_8549_54916">
<rect width="48" height="48" fill="white"/>
</clipPath>
</defs>
</svg>
