<svg width="10" height="14" viewBox="0 0 10 14" fill="none" xmlns="http://www.w3.org/2000/svg">
<path d="M4.97475 9.16866C4.05196 9.16834 3.19721 8.87728 2.49705 8.38213L2.51052 8.39114C1.59061 7.74232 0.945063 6.75747 0.75155 5.61868L0.748019 5.59354C0.707035 5.3698 0.683594 5.11232 0.683594 4.84934C0.683594 3.91789 0.977682 3.05512 1.47807 2.34881L1.469 2.3623C2.25997 1.25317 3.54212 0.538574 4.99111 0.538574C4.99625 0.538574 5.00133 0.538599 5.00644 0.538612H5.01494C5.94482 0.538612 6.80617 0.832124 7.51134 1.33158L7.49786 1.32253C8.60245 2.10953 9.31463 3.38526 9.31629 4.82744C9.30727 6.29615 8.57532 7.59224 7.45867 8.37841L7.44481 8.38767L7.4384 8.39231C6.75177 8.87797 5.89718 9.16861 4.97475 9.16866ZM5.00623 1.4117C5.00174 1.41167 4.99643 1.41166 4.99113 1.41166C3.83727 1.41166 2.81614 1.97998 2.19239 2.85196L2.18532 2.86236C1.79284 3.41605 1.55793 4.10548 1.55793 4.84976C1.55793 5.06005 1.57669 5.26599 1.61262 5.46593L1.60948 5.44489C1.76488 6.37153 2.27735 7.1561 2.99775 7.66657L3.0083 7.67367C3.55618 8.06192 4.23832 8.29432 4.97477 8.2944C5.7094 8.29377 6.38978 8.06212 6.94736 7.66822L6.9366 7.67543C7.8434 7.03947 8.43171 6.00286 8.44264 4.82825V4.82655C8.44139 3.67844 7.87461 2.66298 7.00592 2.04359L6.99547 2.0365C6.44349 1.64563 5.75631 1.41169 5.01452 1.41169L5.00623 1.4117ZM2.32283 7.13747L3.00943 7.6154C3.55703 8.00335 4.2387 8.2357 4.97465 8.23611C5.71076 8.23552 6.39252 8.00298 6.95076 7.60764L6.94008 7.61483L7.62665 7.1369V13.4613L4.97477 11.4376L2.32283 13.4613V7.13747ZM4.97475 9.11037H4.97195C4.32846 9.11037 3.71814 8.96819 3.17075 8.71353L3.19709 8.72455V11.697L4.97473 10.3402L6.75239 11.697V8.72454C6.23135 8.96821 5.62104 9.11037 4.97754 9.11037H4.97475Z" fill="#999999"/>
<path d="M5.6749 4.06891L4.9755 2.61182L4.27611 4.06892L2.76074 4.30203L3.86812 5.40941L3.5767 6.98307L4.9755 6.22537L6.37431 6.98307L6.08289 5.40941L7.19027 4.30203L5.6749 4.06891Z" fill="#FF7B00"/>
</svg>
