<svg width="164" height="69" viewBox="0 0 164 69" fill="none" xmlns="http://www.w3.org/2000/svg">
<path d="M0.443222 38.1539C0.443222 54.9881 37.0567 68.6349 82.2216 68.6349C127.387 68.6349 164 54.9881 164 38.1539C164 21.3197 127.387 7.67285 82.2216 7.67285C37.0567 7.67285 0.443222 21.3197 0.443222 38.1539Z" fill="url(#paint0_linear_5207_13812)"/>
<mask id="path-2-inside-1_5207_13812" fill="white">
  <path d="M0.443222 31.0211C0.443222 47.8553 37.0567 61.5021 82.2216 61.5021C127.387 61.5021 164 47.8553 164 31.0211C164 14.1869 127.387 0.540039 82.2216 0.540039C37.0567 0.540039 0.443222 14.1869 0.443222 31.0211Z">
  </path>
</mask>
<path d="M0.443222 31.0211C0.443222 47.8553 37.0567 61.5021 82.2216 61.5021C127.387 61.5021 164 47.8553 164 31.0211C164 14.1869 127.387 0.540039 82.2216 0.540039C37.0567 0.540039 0.443222 14.1869 0.443222 31.0211Z" fill="url(#paint1_linear_5207_13812)"/>
<path d="M1.44322 31.0211C1.44322 34.8385 3.5154 38.5968 7.53091 42.1354C11.5449 45.6726 17.4105 48.9037 24.7448 51.6374C39.4058 57.1019 59.7267 60.5021 82.2216 60.5021V62.5021C59.5516 62.5021 38.9833 59.0789 24.0463 53.5115C16.5816 50.7292 10.4711 47.3921 6.20863 43.6359C1.94772 39.8811 -0.556778 35.6207 -0.556778 31.0211H1.44322ZM82.2216 60.5021C104.717 60.5021 125.037 57.1019 139.698 51.6374C147.033 48.9037 152.898 45.6726 156.912 42.1354C160.928 38.5968 163 34.8385 163 31.0211H165C165 35.6207 162.496 39.8811 158.235 43.6359C153.972 47.3921 147.862 50.7292 140.397 53.5115C125.46 59.0789 104.892 62.5021 82.2216 62.5021V60.5021ZM163 31.0211C163 27.2036 160.928 23.4453 156.912 19.9067C152.898 16.3695 147.033 13.1384 139.698 10.4048C125.037 4.9402 104.717 1.54004 82.2216 1.54004V-0.459961C104.892 -0.459961 125.46 2.96329 140.397 8.5307C147.862 11.313 153.972 14.65 158.235 18.4062C162.496 22.161 165 26.4214 165 31.0211H163ZM82.2216 1.54004C59.7267 1.54004 39.4058 4.9402 24.7448 10.4048C17.4105 13.1384 11.5449 16.3695 7.53091 19.9067C3.5154 23.4453 1.44322 27.2036 1.44322 31.0211H-0.556778C-0.556778 26.4214 1.94772 22.161 6.20863 18.4062C10.4711 14.65 16.5816 11.313 24.0463 8.5307C38.9833 2.96329 59.5516 -0.459961 82.2216 -0.459961V1.54004Z" stroke="url(#paint2_angular_5207_13812)" 
      stroke-dasharray="50, 130">
  <animate attributeName="stroke-dashoffset" values="0;-176" dur="3s" repeatCount="indefinite" begin="0s" />
</path>
<defs>
<linearGradient id="paint0_linear_5207_13812" x1="82.2216" y1="-5.75105" x2="82.2216" y2="68.6349" gradientUnits="userSpaceOnUse">
<stop stop-color="white" stop-opacity="0"/>
<stop offset="1" stop-color="#2472DD" stop-opacity="0.12"/>
</linearGradient>
<linearGradient id="paint1_linear_5207_13812" x1="82.2216" y1="-12.8839" x2="82.2216" y2="61.5021" gradientUnits="userSpaceOnUse">
<stop stop-color="white" stop-opacity="0"/>
<stop offset="1" stop-color="#2472DD" stop-opacity="0.13"/>
</linearGradient>
<radialGradient id="paint2_angular_5207_13812" cx="0" cy="0" r="1" gradientUnits="userSpaceOnUse" gradientTransform="translate(82.2216 31.2511) rotate(90) scale(30.2511 81.1614)">
<stop offset="0.000278913" stop-color="white" stop-opacity="0"/>
<stop offset="0.0737531" stop-color="#C0D8FA" stop-opacity="0.09"/>
<stop offset="0.975419" stop-color="#286AC8" stop-opacity="0.37"/>
<stop offset="1" stop-color="white"/>
</radialGradient>
</defs>
</svg>
