<svg width="16" height="16" viewBox="0 0 16 16" fill="none" xmlns="http://www.w3.org/2000/svg">
<g id="&#229;&#155;&#190;&#230;&#160;&#135;/16/&#230;&#136;&#144;&#229;&#138;&#159;">
<path id="Union" d="M8 15C11.866 15 15 11.866 15 8C15 4.13401 11.866 1 8 1C4.13401 1 1 4.13401 1 8C1 11.866 4.13401 15 8 15ZM4.85322 8.55979C4.65814 8.36467 4.65815 8.04835 4.85326 7.85324C5.04836 7.65814 5.36467 7.65812 5.55979 7.85319L6.85857 9.15161C6.93668 9.2297 7.06331 9.22969 7.1414 9.15158L10.4388 5.85378C10.6341 5.65839 10.9509 5.65838 11.1463 5.85375C11.3416 6.04912 11.3416 6.36587 11.1462 6.56123L7.35359 10.3534C7.15831 10.5487 6.84171 10.5487 6.64647 10.3534L4.85322 8.55979Z" fill="#52C41A"/>
</g>
</svg>
