<svg width="15" height="14" viewBox="0 0 15 14" fill="#f99531" xmlns="http://www.w3.org/2000/svg">
<path id="Vector" fill-rule="evenodd" clip-rule="evenodd" d="M7.15713 0C5.89881 0 4.73582 0.312201 3.66719 0.936501C2.59956 1.5609 1.75538 2.4108 1.13566 3.4863C0.514938 4.5619 0.205078 5.7331 0.205078 7C0.205078 8.2669 0.514938 9.4381 1.13566 10.5137C1.75538 11.5892 2.59956 12.4391 3.66719 13.0635C4.73582 13.6878 5.89881 14 7.15713 14C8.41545 14 9.57844 13.6878 10.6471 13.0635C11.7147 12.4391 12.5589 11.5892 13.1786 10.5137C13.7993 9.4381 14.1092 8.2669 14.1092 7C14.1092 5.7331 13.7993 4.5619 13.1786 3.4863C12.5589 2.4108 11.7147 1.5609 10.6471 0.936501C9.57844 0.312201 8.41545 0 7.15713 0ZM13.1319 7C13.1319 7.8203 12.978 8.5996 12.6701 9.3379C12.3622 10.058 11.9322 10.696 11.38 11.252C10.8278 11.808 10.1942 12.2364 9.47912 12.5371C8.74617 12.8561 7.97152 13.0156 7.15713 13.0156C6.34275 13.0156 5.56809 12.8607 4.83515 12.5508C4.12008 12.2409 3.48645 11.808 2.93426 11.252C2.38207 10.696 1.95699 10.058 1.65806 9.3379C1.34124 8.5996 1.18233 7.8203 1.18233 7C1.18233 6.1797 1.33628 5.4004 1.64416 4.6621C1.95204 3.9421 2.38207 3.3041 2.93426 2.7481C3.48645 2.1921 4.12008 1.7637 4.83515 1.4629C5.56809 1.1439 6.34275 0.9844 7.15713 0.9844C7.97152 0.9844 8.74617 1.1393 9.47912 1.4492C10.1942 1.7591 10.8278 2.1921 11.38 2.7481C11.9322 3.3041 12.3573 3.9421 12.6562 4.6621C12.973 5.4004 13.1319 6.1797 13.1319 7ZM7.11641 3.5C7.25248 3.5 7.36768 3.4521 7.46302 3.3564C7.55737 3.2607 7.60505 3.1468 7.60505 3.0146C7.60505 2.8825 7.55737 2.7663 7.46302 2.666C7.36768 2.5657 7.25248 2.5156 7.11641 2.5156C6.98035 2.5156 6.86515 2.5657 6.7698 2.666C6.67546 2.7663 6.62778 2.8825 6.62778 3.0146C6.62778 3.1468 6.67546 3.2607 6.7698 3.3564C6.86515 3.4521 6.98035 3.5 7.11641 3.5ZM7.60505 4.8672V8.49826C7.60505 9.13562 8.12173 9.6523 8.75909 9.6523C8.89515 9.6523 9.01036 9.7002 9.1057 9.7959C9.20038 9.89163 9.24771 10.0078 9.24771 10.1445C9.24771 10.2812 9.20038 10.3975 9.1057 10.4932C9.01036 10.5889 8.89515 10.6367 8.75909 10.6367H5.47374C5.33767 10.6367 5.22247 10.5889 5.12713 10.4932C5.03178 10.3975 4.98412 10.2812 4.98412 10.1445C4.98412 10.0078 5.03178 9.89163 5.12713 9.7959C5.22247 9.7002 5.33767 9.6523 5.47374 9.6523C6.1111 9.6523 6.62778 9.13562 6.62778 8.49826V6.17478C6.62778 5.72446 6.26272 5.3594 5.8124 5.3594C5.67733 5.3594 5.56214 5.3092 5.46679 5.209C5.37145 5.1087 5.32378 4.9948 5.32378 4.8672C5.32378 4.7305 5.37145 4.6143 5.46679 4.5186C5.56214 4.4229 5.67733 4.375 5.8124 4.375H7.11641C7.25248 4.375 7.36768 4.4229 7.46302 4.5186C7.55737 4.6143 7.60505 4.7305 7.60505 4.8672Z" fill="#f99531"/>
</svg>
