<svg xmlns="http://www.w3.org/2000/svg" viewBox="0 0 93 85" fill="none">
  <path fill-rule="evenodd" clip-rule="evenodd" d="M23.7324 79.4077V12.5168C23.7324 9.96775 25.7988 7.90137 28.3478 7.90137H88.3792C90.9282 7.90137 92.9946 9.96775 92.9946 12.5168V79.4077C92.9946 81.9567 90.9282 84.0231 88.3792 84.0231H28.3478C25.7988 84.0231 23.7324 81.9567 23.7324 79.4077Z" fill="url(#paint0_linear_46_285507)"/>
  <path fill-rule="evenodd" clip-rule="evenodd" d="M51.336 -0.307617H65.7437C66.3822 -0.307617 66.8998 0.209993 66.8998 0.848497C66.8998 0.90593 66.8955 0.963283 66.887 1.02008L66.1021 6.2502C66.0171 6.8161 65.531 7.23473 64.9588 7.23473H52.1209C51.5486 7.23473 51.0625 6.8161 50.9776 6.2502L50.1926 1.02008C50.0979 0.388647 50.5329 -0.200051 51.1644 -0.294814C51.2212 -0.303338 51.2785 -0.307617 51.336 -0.307617Z" fill="url(#paint1_linear_46_285507)"/>
  <path fill-rule="evenodd" clip-rule="evenodd" d="M29.9766 76.4738V20.3343C29.9766 19.6664 30.518 19.125 31.1858 19.125H85.5196C86.1874 19.125 86.7288 19.6664 86.7288 20.3343V66.2297C86.7288 67.6471 86.0383 68.9757 84.8782 69.7902L73.6363 77.6831H31.1858C30.518 77.6831 29.9766 77.1417 29.9766 76.4738Z" fill="white"/>
  <path d="M73.6912 3.9668H43.0141C42.3181 3.9668 41.7539 4.53099 41.7539 5.22696V10.3972C41.7539 11.0931 42.3181 11.6573 43.0141 11.6573H73.6912C74.3872 11.6573 74.9514 11.0931 74.9514 10.3972V5.22696C74.9514 4.53099 74.3872 3.9668 73.6912 3.9668Z" fill="#FF7B00"/>
  <path fill-rule="evenodd" clip-rule="evenodd" d="M74.302 69.7646H84.9127L73.6719 77.6823V70.3947C73.6719 70.0467 73.954 69.7646 74.302 69.7646Z" fill="url(#paint2_linear_46_285507)"/>
  <path d="M37.8438 29.2207H78.8598" stroke="#E5E5E5" stroke-width="3.22472" stroke-linecap="round" stroke-linejoin="round"/>
  <path d="M37.8438 39.0635H78.8598" stroke="#E5E5E5" stroke-width="3.22472" stroke-linecap="round" stroke-linejoin="round"/>
  <path d="M37.8438 48.9062H61.0084" stroke="#E5E5E5" stroke-width="3.22472" stroke-linecap="round" stroke-linejoin="round"/>
  <path d="M53.6094 3.9668H63.4684" stroke="white" stroke-width="0.945123" stroke-linecap="round" stroke-linejoin="round"/>
  <path fill-rule="evenodd" clip-rule="evenodd" d="M11.8177 52.8488L12.5726 49.999H16.1997L16.7499 53.8328L13.024 81.2444H9.86719L11.3795 55.5829C11.434 54.6592 11.5807 53.7432 11.8177 52.8488Z" fill="#3A2721"/>
  <path fill-rule="evenodd" clip-rule="evenodd" d="M20.7985 53.5341L19.8532 49.999H15.7348L15.7329 56.0597L19.38 69.0421L19.1732 81.2444H22.33L24.0477 69.6389C24.1302 69.0816 24.1104 68.514 23.9893 67.9639L20.9448 54.1347C20.9005 53.9334 20.8517 53.7332 20.7985 53.5341Z" fill="#3A2721"/>
  <path fill-rule="evenodd" clip-rule="evenodd" d="M20.2823 51.771L18.5598 52.0819C16.9828 52.3665 15.3673 52.3647 13.7909 52.0766L12.1191 51.771L12.3958 50.7383L14.3908 50.9973C15.5754 51.1511 16.7747 51.1531 17.9597 51.0034L20.0573 50.7383L20.2823 51.771Z" fill="#171717"/>
  <path fill-rule="evenodd" clip-rule="evenodd" d="M13.0222 81.2441H9.86539L9.71301 83.5913C9.69794 83.8235 9.87396 84.0239 10.1062 84.039C10.1152 84.0396 10.1244 84.0399 10.1335 84.0399H15.2862C15.4485 84.0399 15.5801 83.9083 15.5801 83.746C15.5801 83.7052 15.5716 83.6649 15.5551 83.6275L15.4035 83.2834C15.1959 82.8122 14.7621 82.4795 14.2531 82.4012L12.8702 82.1886L13.0222 81.2441Z" fill="#171717"/>
  <path fill-rule="evenodd" clip-rule="evenodd" d="M22.3295 81.2441H19.1727V83.6186C19.1727 83.8513 19.3613 84.0399 19.594 84.0399H24.7315C24.8938 84.0399 25.0254 83.9083 25.0254 83.746C25.0254 83.7052 25.0169 83.6649 25.0004 83.6275L24.8488 83.2834C24.6416 82.813 24.2059 82.4832 23.6969 82.4114L22.1173 82.1886L22.3295 81.2441Z" fill="#171717"/>
  <path fill-rule="evenodd" clip-rule="evenodd" d="M21.1914 44.2021H11.2799L12.3837 50.6923L14.578 50.9712C15.803 51.1268 17.043 51.1221 18.2667 50.957L20.2295 50.6923L21.1914 44.2021Z" fill="#ECECEC"/>
  <path fill-rule="evenodd" clip-rule="evenodd" d="M23.1686 47.0595L22.9299 45.9992L28.3112 44.1942C28.4923 44.1335 28.6808 44.0972 28.8716 44.0863L29.4153 44.0554C29.5523 44.0476 29.6696 44.1523 29.6774 44.2893C29.6822 44.3729 29.6444 44.4533 29.5771 44.5031L25.1309 47.79C24.5759 48.2004 23.7932 48.0831 23.3829 47.528C23.2797 47.3884 23.2067 47.2289 23.1686 47.0595Z" fill="#FFB999"/>
  <path fill-rule="evenodd" clip-rule="evenodd" d="M28.1686 43.582L29.5742 44.5174L31.1887 43.3219L32.2961 43.2215L34.3425 43.0972C34.4286 43.0915 34.4938 43.0171 34.4881 42.931C34.4854 42.8895 34.4662 42.8509 34.4349 42.8236C34.0981 42.531 33.7322 42.3546 33.3374 42.2943C33.1259 42.262 32.7107 42.1986 32.0916 42.1041L31.5234 41.9311C31.2335 41.8429 30.9214 41.8629 30.6452 41.9876L29.8684 42.3382C29.3677 42.5725 28.8653 42.8419 28.3611 43.1466C27.8569 43.4513 27.7928 43.5965 28.1686 43.582Z" fill="#FFB999"/>
  <path fill-rule="evenodd" clip-rule="evenodd" d="M34.2825 43.0911C33.4078 43.0111 32.861 42.9543 32.642 42.9209C32.4229 42.8875 32.167 42.8217 31.8743 42.7235L31.1903 43.3221L31.4922 43.389C31.7778 43.4523 32.0738 43.4525 32.3595 43.3896C32.6486 43.3259 32.9401 43.274 33.2333 43.2341L34.2825 43.0911Z" fill="#FFA780"/>
  <path fill-rule="evenodd" clip-rule="evenodd" d="M9.76975 46.4441L10.1359 45.4208L5.18479 41.9652C4.76256 41.6706 4.19671 41.689 3.79457 42.0106C3.46829 42.2715 3.41529 42.7475 3.67619 43.0738C3.69785 43.1009 3.72135 43.1264 3.74652 43.1503L7.73297 46.93C8.2339 47.4049 9.025 47.3839 9.49994 46.883C9.61938 46.757 9.71127 46.6075 9.76975 46.4441Z" fill="#FFB999"/>
  <path fill-rule="evenodd" clip-rule="evenodd" d="M5.22933 42.3839L3.72025 43.141L2.26349 41.7576L1.1766 41.523L-0.839444 41.1502C-0.924207 41.1341 -0.979832 41.0523 -0.963687 40.9675C-0.955913 40.9267 -0.932204 40.8907 -0.8978 40.8674C-0.527795 40.618 -0.143195 40.4875 0.256002 40.4758C0.469861 40.4695 0.88977 40.4572 1.51573 40.4389L2.1008 40.3364C2.3993 40.2842 2.70662 40.3421 2.96558 40.4995L3.69379 40.9421C4.16221 41.2357 4.62807 41.5644 5.09136 41.9283C5.55466 42.2921 5.60065 42.444 5.22933 42.3839Z" fill="#FFB999"/>
  <path fill-rule="evenodd" clip-rule="evenodd" d="M-0.778281 41.1511C0.0996316 41.1782 0.649325 41.1886 0.8708 41.1821C1.09228 41.1756 1.35428 41.1414 1.65682 41.0797L2.2628 41.7571L1.95492 41.7868C1.66372 41.8148 1.3699 41.7789 1.094 41.6816C0.814887 41.5832 0.531881 41.4962 0.245686 41.4208L-0.778281 41.1511Z" fill="#FFA780"/>
  <path fill-rule="evenodd" clip-rule="evenodd" d="M4.17465 40.7516L10.2706 45.5544L9.93943 46.6032C9.70323 47.3512 8.90537 47.7661 8.15735 47.5299C7.9664 47.4696 7.79035 47.3696 7.64077 47.2365L2.49181 42.6539L4.17465 40.7516Z" fill="#ECECEC"/>
  <path fill-rule="evenodd" clip-rule="evenodd" d="M22.1468 40.4418C20.1918 39.7794 18.2479 39.4482 16.3151 39.4482C14.3676 39.4482 12.482 39.7845 10.6583 40.457C10.297 40.5904 9.99146 40.8421 9.79158 41.1713L7.71199 44.6027L9.75562 46.836L12.1513 44.3651H20.8189L21.2984 45.091L24.459 43.8823L23.1151 41.2747C22.9125 40.882 22.5653 40.5835 22.1468 40.4418Z" fill="#ECECEC"/>
  <path d="M17.7326 37.2725H15.0748L14.854 39.4347L16.3508 40.6058L17.748 39.4347L17.7326 37.2725Z" fill="#FFB999"/>
  <mask id="mask0_46_285507" style="mask-type:luminance" maskUnits="userSpaceOnUse" x="14" y="37" width="4" height="4">
    <path d="M17.7326 37.2725H15.0748L14.854 39.4347L16.3508 40.6058L17.748 39.4347L17.7326 37.2725Z" fill="white"/>
  </mask>
  <g mask="url(#mask0_46_285507)">
    <path fill-rule="evenodd" clip-rule="evenodd" d="M18.4492 37.1406L14.8424 37.2721L14.8808 38.8922L15.1102 38.9101C16.4719 39.0165 17.7727 38.3272 18.4492 37.1406Z" fill="#FF9667" fill-opacity="0.8"/>
  </g>
  <path fill-rule="evenodd" clip-rule="evenodd" d="M25.7305 46.4546L23.1197 41.2842L20.7288 44.6312L22.5824 47.2459L25.7305 46.4546Z" fill="#ECECEC"/>
  <path fill-rule="evenodd" clip-rule="evenodd" d="M28.7804 42.4122L22.1127 46.293L22.7252 47.5483C23.0692 48.2532 23.9196 48.5458 24.6246 48.2018C24.6821 48.1737 24.7377 48.1418 24.791 48.1062L30.4632 44.3145L28.7804 42.4122Z" fill="#ECECEC"/>
  <path fill-rule="evenodd" clip-rule="evenodd" d="M17.2536 41.501H16.2604L15.4104 51.6881L16.7561 53.4784L18.1035 51.6881L17.2536 41.501Z" fill="#A33300"/>
  <path fill-rule="evenodd" clip-rule="evenodd" d="M17.6602 40.1465H15.8542L16.2606 41.5009H17.2538L17.6602 40.1465Z" fill="#A33300"/>
  <path fill-rule="evenodd" clip-rule="evenodd" d="M17.7827 38.9824L16.6941 40.147L18.0466 41.0304L18.5215 39.5027L17.7827 38.9824Z" fill="#D3D3D3"/>
  <path fill-rule="evenodd" clip-rule="evenodd" d="M14.8574 38.9824L16.6933 40.147L15.5131 41.4035L14.1289 39.5027L14.8574 38.9824Z" fill="#D3D3D3"/>
  <path fill-rule="evenodd" clip-rule="evenodd" d="M17.6814 32.9648H17.6415C17.4466 32.443 16.8812 32.1611 16.3472 32.3193L14.8152 32.7733L14.6021 32.8441C14.1659 32.989 13.8859 33.4139 13.9248 33.8719L14.0425 35.2544C14.1091 36.0366 14.4799 36.7615 15.0752 37.2733L17.4624 36.5083C18.0168 36.3307 18.4205 35.8512 18.5012 35.2747L18.6661 34.0968C18.7422 33.553 18.3631 33.0505 17.8193 32.9744C17.7736 32.968 17.7275 32.9648 17.6814 32.9648Z" fill="#681E20"/>
  <path fill-rule="evenodd" clip-rule="evenodd" d="M14.9069 35.1959L15.2275 35.259V36.3742L14.9034 36.3002C14.5931 36.2292 14.373 35.9532 14.373 35.6349C14.373 35.3878 14.5734 35.1875 14.8204 35.1875C14.8495 35.1875 14.8784 35.1903 14.9069 35.1959Z" fill="#FFB999"/>
  <path fill-rule="evenodd" clip-rule="evenodd" d="M16.671 33.248C15.7306 33.248 14.9683 34.0104 14.9683 34.9507V36.5153C14.9683 37.4557 15.7306 38.218 16.671 38.218C17.611 38.2163 18.3721 37.454 18.3725 36.514L18.373 34.9507C18.3734 34.0107 17.6116 33.2484 16.6716 33.248L16.671 33.248Z" fill="#FFB999"/>
  <path opacity="0.5" fill-rule="evenodd" clip-rule="evenodd" d="M18.248 33.709C17.518 34.5729 16.258 34.7558 15.3124 34.1351L15.0158 33.9403L18.248 33.709Z" fill="#F4956A"/>
  <path fill-rule="evenodd" clip-rule="evenodd" d="M18.3923 34.9146C18.8261 33.6987 18.2309 33.0908 16.6066 33.0908C14.9823 33.0908 14.3686 33.8121 14.7652 35.2548C14.778 34.9829 14.8232 34.7662 14.9006 34.6048C15.0168 34.3626 15.192 33.9645 15.5021 33.9645C15.8122 33.9645 15.8794 34.1428 16.713 34.1428C17.2005 34.1428 17.6355 34.0535 18.0178 33.875C18.0686 33.9189 18.1359 34.0228 18.2198 34.1868C18.3037 34.3509 18.3612 34.5935 18.3923 34.9146Z" fill="#681E20"/>
  <defs>
    <linearGradient id="paint0_linear_46_285507" x1="3486.84" y1="7620.07" x2="3486.84" y2="7.90137" gradientUnits="userSpaceOnUse">
      <stop stop-color="#E7E7E7"/>
      <stop offset="1" stop-color="#DDDDDD"/>
    </linearGradient>
    <linearGradient id="paint1_linear_46_285507" x1="1722.19" y1="376.81" x2="50.1797" y2="376.81" gradientUnits="userSpaceOnUse">
      <stop stop-color="#FFA958"/>
      <stop offset="1" stop-color="#FF7B00"/>
    </linearGradient>
    <linearGradient id="paint2_linear_46_285507" x1="635.712" y1="69.7646" x2="635.712" y2="861.534" gradientUnits="userSpaceOnUse">
      <stop stop-color="#F6F6F6"/>
      <stop offset="1" stop-color="#EEEEEE"/>
    </linearGradient>
  </defs>
</svg>