<svg xmlns="http://www.w3.org/2000/svg" width="191" height="191" viewBox="0 0 191 191" fill="none">
    <path d="M147.769 100.404C145.918 119.953 133.124 137.66 113.444 144.822C93.7638 151.985 72.5811 146.645 58.5968 132.86M43.3226 89.4669C45.5435 70.3586 58.2237 53.1822 77.5316 46.1547C96.8395 39.1272 117.594 44.1344 131.578 57.3447" stroke="#52C41A" stroke-width="1.5"/>
    <path d="M169.002 92.6736L37.3657 140.585M152.964 49.5587L21.9375 97.2485" stroke="#52C41A" stroke-width="1.5" stroke-linecap="square"/>
    <circle cx="95.4876" cy="95.4875" r="73" transform="rotate(-20 95.4876 95.4875)" stroke="#52C41A" stroke-width="3"/>
    <path d="M163.004 94.859C163.263 122.664 146.192 148.866 118.575 158.918C90.9573 168.97 61.038 159.871 43.3638 138.404M27.9715 95.0546C28.1511 67.6471 45.137 41.983 72.402 32.0593C99.6671 22.1357 129.176 30.8772 146.93 51.7571" stroke="#52C41A"/>
    <path d="M107.288 127.905L111.24 132.249L116.893 130.66L113.984 135.76L117.242 140.646L111.492 139.455L107.852 144.063L107.208 138.227L101.701 136.189L107.052 133.773L107.288 127.905Z" fill="#52C41A"/>
    <path d="M95.043 136.312L96.3537 139.508L99.7983 139.767L97.1638 142.002L97.9819 145.358L95.043 143.542L92.104 145.358L92.9221 142.002L90.2877 139.767L93.7322 139.508L95.043 136.312Z" fill="#52C41A"/>
    <path d="M122.838 126.194L123.888 129.485L121.416 131.898L124.87 131.916L126.4 135.012L127.485 131.733L130.903 131.234L128.119 129.189L128.701 125.784L125.896 127.8L122.838 126.194Z" fill="#52C41A"/>
    <path d="M78.5577 48.9717L82.5098 53.315L88.163 51.726L85.2536 56.8268L88.5117 61.7123L82.7615 60.5215L79.122 65.1298L78.4775 59.2931L72.97 57.2558L78.322 54.8392L78.5577 48.9717Z" fill="#52C41A"/>
    <path d="M63.0998 58.5478L66.1581 60.1534L68.9633 58.1378L68.3813 61.5426L71.1652 63.5876L67.7471 64.0863L66.6625 67.3658L65.132 64.2691L61.6778 64.251L64.1499 61.8385L63.0998 58.5478Z" fill="#52C41A"/>
    <path d="M97.3242 46.0898L96.0135 49.2857L92.5689 49.5448L95.2034 51.779L94.3853 55.1349L97.3242 53.3198L100.263 55.1349L99.4451 51.779L102.08 49.5448L98.635 49.2857L97.3242 46.0898Z" fill="#52C41A"/>
    <path d="M92.4099 104.391C92.6579 104.504 92.9505 104.397 93.068 104.151L106.267 76.5314C106.737 75.5481 107.908 75.122 108.9 75.5732L109.704 75.9391C110.723 76.4026 111.163 77.612 110.681 78.622L95.6197 110.138C95.3847 110.63 94.7994 110.843 94.3034 110.617L75.4828 102.057C74.4639 101.593 74.0237 100.384 74.5063 99.374L74.8874 98.5766C75.3573 97.5933 76.5279 97.1672 77.52 97.6184L92.4099 104.391Z" fill="#52C41A"/>
</svg>