<svg xmlns="http://www.w3.org/2000/svg" width="191" height="191" viewBox="0 0 191 191" fill="none">
    <path d="M147.769 100.404C145.918 119.953 133.124 137.66 113.444 144.822C93.7638 151.985 72.5811 146.645 58.5968 132.86M43.3226 89.4669C45.5435 70.3586 58.2237 53.1822 77.5316 46.1547C96.8395 39.1272 117.594 44.1344 131.578 57.3447" stroke="#FAAD14" stroke-width="1.5"/>
    <path d="M169.002 92.6736L37.3657 140.585M152.964 49.5587L21.9375 97.2485" stroke="#FAAD14" stroke-width="1.5" stroke-linecap="square"/>
    <circle cx="95.4876" cy="95.4875" r="73" transform="rotate(-20 95.4876 95.4875)" stroke="#FAAD14" stroke-width="3"/>
    <path d="M163.004 94.859C163.263 122.664 146.192 148.866 118.575 158.918C90.9573 168.97 61.038 159.871 43.3638 138.404M27.9715 95.0546C28.1511 67.6471 45.137 41.983 72.402 32.0593C99.6671 22.1357 129.176 30.8772 146.93 51.7571" stroke="#FAAD14"/>
    <path d="M107.288 127.905L111.24 132.249L116.893 130.66L113.984 135.76L117.242 140.646L111.492 139.455L107.852 144.063L107.208 138.227L101.701 136.189L107.052 133.773L107.288 127.905Z" fill="#FAAD14"/>
    <path d="M95.043 136.312L96.3537 139.508L99.7983 139.767L97.1638 142.002L97.9819 145.358L95.043 143.542L92.104 145.358L92.9221 142.002L90.2877 139.767L93.7322 139.508L95.043 136.312Z" fill="#FAAD14"/>
    <path d="M122.838 126.194L123.888 129.485L121.416 131.898L124.87 131.916L126.4 135.012L127.485 131.733L130.903 131.234L128.119 129.189L128.701 125.784L125.896 127.8L122.838 126.194Z" fill="#FAAD14"/>
    <path d="M78.5577 48.9717L82.5098 53.315L88.163 51.726L85.2536 56.8268L88.5117 61.7123L82.7615 60.5215L79.122 65.1298L78.4775 59.2931L72.97 57.2558L78.322 54.8392L78.5577 48.9717Z" fill="#FAAD14"/>
    <path d="M63.0998 58.5478L66.1581 60.1534L68.9633 58.1378L68.3813 61.5426L71.1652 63.5876L67.7471 64.0863L66.6625 67.3658L65.132 64.2691L61.6778 64.251L64.1499 61.8385L63.0998 58.5478Z" fill="#FAAD14"/>
    <path d="M97.3242 46.0898L96.0135 49.2857L92.5689 49.5448L95.2034 51.779L94.3853 55.1349L97.3242 53.3198L100.263 55.1349L99.4451 51.779L102.08 49.5448L98.635 49.2857L97.3242 46.0898Z" fill="#FAAD14"/>
    <path d="M96.5491 98.4054L108.058 103.772C109.059 104.239 110.249 103.806 110.716 102.805L110.882 102.449C111.349 101.448 110.916 100.258 109.915 99.7909L98.4056 94.4242L103.772 82.915C104.239 81.9139 103.806 80.7239 102.805 80.2571L102.449 80.0911C101.448 79.6243 100.258 80.0574 99.7912 81.0585L94.4244 92.5677L82.9151 87.2008C81.914 86.734 80.724 87.1671 80.2572 88.1682L80.0912 88.5242C79.6244 89.5253 80.0575 90.7153 81.0586 91.1821L92.5679 96.5489L87.201 108.058C86.7342 109.059 87.1673 110.249 88.1684 110.716L88.5244 110.882C89.5255 111.349 90.7154 110.916 91.1822 109.915L96.5491 98.4054Z" fill="#FAAD14"/>
</svg>