<svg xmlns="http://www.w3.org/2000/svg" width="14" height="14" viewBox="0 0 14 14" fill="none">
  <path fill-rule="evenodd" clip-rule="evenodd" d="M2 0C1.17157 0 0.5 0.671573 0.5 1.5V12.5C0.5 13.3284 1.17157 14 2 14H6.5V13H2C1.72386 13 1.5 12.7761 1.5 12.5V1.5C1.5 1.22386 1.72386 1 2 1H11C11.2761 1 11.5 1.22386 11.5 1.5V7H12.5V1.5C12.5 0.671573 11.8284 0 11 0H2ZM13.3536 13.1464L12.0858 11.8787C12.3476 11.4835 12.5 11.0095 12.5 10.5C12.5 9.11929 11.3807 8 10 8C8.61929 8 7.5 9.11929 7.5 10.5C7.5 11.8807 8.61929 13 10 13C10.5095 13 10.9835 12.8476 11.3787 12.5858L12.6464 13.8536C12.8417 14.0488 13.1583 14.0488 13.3536 13.8536C13.5488 13.6583 13.5488 13.3417 13.3536 13.1464ZM10 12C10.8284 12 11.5 11.3284 11.5 10.5C11.5 9.67157 10.8284 9 10 9C9.17157 9 8.5 9.67157 8.5 10.5C8.5 11.3284 9.17157 12 10 12ZM3.5 4.5C3.5 4.22386 3.72386 4 4 4H9C9.27614 4 9.5 4.22386 9.5 4.5C9.5 4.77614 9.27614 5 9 5H4C3.72386 5 3.5 4.77614 3.5 4.5ZM3.5 8.5C3.5 8.22386 3.72386 8 4 8H6C6.27614 8 6.5 8.22386 6.5 8.5C6.5 8.77614 6.27614 9 6 9H4C3.72386 9 3.5 8.77614 3.5 8.5Z" fill="#344481"/>
</svg>
