<svg viewBox="0 0 76.7661 65.3612" xmlns="http://www.w3.org/2000/svg" xmlns:xlink="http://www.w3.org/1999/xlink" width="76.766144" height="65.361206" fill="none" customFrame="#000000">
	<defs>
		<linearGradient id="paint_linear_13" x1="21.0573692" x2="21.0573692" y1="-2.52146936e-12" y2="44.4016991" gradientUnits="userSpaceOnUse">
			<stop stop-color="rgb(227,138,255)" offset="0" stop-opacity="1" />
			<stop stop-color="rgb(213,77,255)" offset="1" stop-opacity="1" />
		</linearGradient>
		<g id="pixso_custom_effect_8">
			<effect visibility="visible" effectType="gaussianBlur" stdDeviation="19" />
		</g>
		<filter id="filter_8" width="64.082031" height="65.361206" x="0.000000" y="0.000000" filterUnits="userSpaceOnUse" customEffect="url(#pixso_custom_effect_8)" color-interpolation-filters="sRGB">
			<feFlood flood-opacity="0" result="BackgroundImageFix" />
			<feBlend result="shape" in="SourceGraphic" in2="BackgroundImageFix" mode="normal" />
			<feGaussianBlur stdDeviation="6.33333349" result="effect_layerBlur_1" />
		</filter>
		<g id="pixso_custom_effect_9">
			<effect visibility="visible" effectType="backgroundBlur" saturation="0" stdDeviation="24" />
		</g>
		<filter id="filter_9" width="40.960480" height="47.835815" x="24.852417" y="17.238647" filterUnits="userSpaceOnUse" customEffect="url(#pixso_custom_effect_9)" color-interpolation-filters="sRGB">
			<feFlood flood-opacity="0" result="BackgroundImageFix" />
			<feBlend result="shape" in="SourceGraphic" in2="BackgroundImageFix" mode="normal" />
		</filter>
		<clipPath id="outline_mask_4" transform="matrix(1,0,0,1,-24.8524,-17.2386)">
			<path d="M36.0861 17.2386L52.9351 17.2386Q53.0394 17.2386 53.1392 17.2595Q53.2391 17.2803 53.3346 17.3219Q53.4301 17.3635 53.5134 17.4225Q53.5966 17.4815 53.6675 17.5578L65.5453 30.3343C65.6313 30.4268 65.6974 30.5319 65.7436 30.6494C65.7898 30.767 65.8129 30.8889 65.8129 31.0152L65.8129 53.7844C65.8129 54.6398 65.7214 55.4747 65.5383 56.289L65.5383 56.2891Q65.3218 57.2519 64.9347 58.1762C64.6556 58.8429 64.3197 59.4719 63.9271 60.0632C63.5243 60.6699 63.0618 61.237 62.5397 61.7644C61.9733 62.3364 61.3606 62.8377 60.7017 63.268C60.1602 63.6217 59.5874 63.9276 58.9834 64.1856C58.3452 64.4582 57.6931 64.6681 57.0272 64.8153Q55.8546 65.0745 54.6246 65.0745L36.5626 65.0745Q35.3046 65.0745 34.1029 64.8145C33.3896 64.6602 32.6912 64.4373 32.0077 64.1456Q31.0608 63.7416 30.2114 63.188C29.5212 62.7382 28.8792 62.2144 28.2855 61.6165C27.7264 61.0534 27.2326 60.4473 26.8039 59.7981C26.404 59.1923 26.0608 58.5491 25.7745 57.8683C25.4969 57.2084 25.282 56.5347 25.1298 55.847Q24.8524 54.5943 24.8524 53.2802L24.8524 28.5746Q24.8524 27.3391 25.1081 26.159L25.1081 26.1589Q25.3273 25.1467 25.7347 24.1752Q26.1498 23.185 26.7312 22.3045L26.7312 22.3044Q27.3432 21.3776 28.1393 20.5722Q29.0079 19.6936 30.0201 19.0362L30.0201 19.0362Q30.8199 18.5167 31.7093 18.1353Q32.6959 17.7123 33.7258 17.4888L33.7258 17.4888Q34.8788 17.2386 36.0861 17.2386Z" fill="rgb(255,255,255)" fill-rule="evenodd" />
		</clipPath>
		<linearGradient id="paint_linear_14" x1="29.0799561" x2="70.9020691" y1="18.4755859" y2="57.7419548" gradientUnits="userSpaceOnUse">
			<stop stop-color="rgb(255,255,255)" offset="0" stop-opacity="0.25" />
			<stop stop-color="rgb(255,255,255)" offset="1" stop-opacity="0" />
		</linearGradient>
		<g id="pixso_custom_effect_10">
			<effect visibility="visible" effectType="backgroundBlur" saturation="0" stdDeviation="15" />
			<effect x="5.000000" y="5.000000" visibility="visible" fill="rgb(255,148,63)" fill-opacity="0.5" effectType="dropShadow" showShadowBehind="1" stdDeviation="10" radius="0" />
		</g>
		<filter id="filter_10" width="31.306213" height="31.785767" x="45.459900" y="16.077759" filterUnits="userSpaceOnUse" customEffect="url(#pixso_custom_effect_10)" color-interpolation-filters="sRGB">
			<feFlood flood-opacity="0" result="BackgroundImageFix" />
			<feColorMatrix result="hardAlpha" in="SourceAlpha" type="matrix" values="0 0 0 0 0 0 0 0 0 0 0 0 0 0 0 0 0 0 127 0 " />
			<feOffset dx="5.000000" dy="5.000000" in="hardAlpha" />
			<feGaussianBlur stdDeviation="3.33333325" />
			<feColorMatrix type="matrix" values="0 0 0 0 1 0 0 0 0 0.580392 0 0 0 0 0.247059 0 0 0 0.5 0 " />
			<feBlend result="effect_dropShadow_1" in2="BackgroundImageFix" mode="normal" />
			<feBlend result="shape" in="SourceGraphic" in2="effect_dropShadow_1" mode="normal" />
		</filter>
		<clipPath id="outline_mask_5" transform="matrix(1,0,0,1,-45.4599,-16.0778)">
			<path d="M55.0368 32.845C56.6183 32.861 58.8171 32.8679 60.6823 32.861C61.6376 32.8587 62.1232 31.706 61.4606 31.0115C59.0644 28.4952 54.7781 23.9918 52.3252 21.4158C51.6467 20.7031 50.46 21.1935 50.46 22.1813L50.46 28.2224C50.46 30.7572 52.5271 32.845 55.0368 32.845Z" fill="rgb(255,255,255)" fill-rule="evenodd" />
		</clipPath>
		<linearGradient id="paint_linear_15" x1="60.9645844" x2="48.3694534" y1="23.2061615" y2="23.6001091" gradientUnits="userSpaceOnUse">
			<stop stop-color="rgb(255,255,255)" offset="0" stop-opacity="1" />
			<stop stop-color="rgb(255,255,255)" offset="1" stop-opacity="0.200000003" />
		</linearGradient>
		<linearGradient id="paint_linear_16" x1="52.2597275" x2="59.8376236" y1="22.4509411" y2="31.4544544" gradientUnits="userSpaceOnUse">
			<stop stop-color="rgb(255,255,255)" offset="0" stop-opacity="0.25" />
			<stop stop-color="rgb(255,255,255)" offset="1" stop-opacity="0" />
		</linearGradient>
		<linearGradient id="paint_linear_17" x1="58.452858" x2="24.3372574" y1="40.1008148" y2="41.2224808" gradientUnits="userSpaceOnUse">
			<stop stop-color="rgb(255,255,255)" offset="0" stop-opacity="1" />
			<stop stop-color="rgb(255,255,255)" offset="1" stop-opacity="0.200000003" />
		</linearGradient>
	</defs>
	<g id="Paper Plus">
		<g id="Bg">
			<path id="Union" d="M26.2351 0L9.91336 0C9.889 0 9.86466 8.92704e-05 9.84034 0.000267502C4.40249 0.0161215 5.72205e-05 4.47235 5.72205e-05 9.96831L5.72178e-05 9.97826C1.90827e-05 9.98967 0 10.0011 0 10.0125L0 33.9448C0 39.717 4.65994 44.4013 10.375 44.4013L20.1264 44.4013C20.1578 44.4014 20.1892 44.4015 20.2206 44.4015L27.8278 44.4015C27.8521 44.4015 27.8765 44.4014 27.9008 44.4013C33.3387 44.3854 37.7411 39.9292 37.7411 34.4332L37.7411 34.4209C37.7411 34.4103 37.7412 34.3997 37.7412 34.389L37.7412 10.4567C37.7412 4.68457 33.0812 0.000228882 27.3662 0.000228882L26.2353 0.000228635L26.2351 0Z" fill="url(#paint_linear_13)" fill-rule="evenodd" transform="matrix(0.945148,-0.326644,0.326644,0.945148,6.57977,18.8035)" />
			<g filter="url(#filter_8)">
				<path id="Path" d="M5.72932 0L9.79916 0C13.2122 0 16.4642 1.45183 18.7428 3.99287C20.7191 6.19675 21.8121 9.05272 21.8121 12.0129L21.8121 20.631C21.8121 23.9298 19.2587 26.6034 16.1082 26.6034L5.9961 26.6034C2.69316 26.6034 0 23.7968 0 20.3383L0 5.99907C0 2.70025 2.56613 0 5.72932 0Z" opacity="0.5" fill="rgb(213,77,255)" fill-rule="evenodd" transform="matrix(-0.945148,0.326644,-0.326643,-0.945148,46.6984,42.5015)" />
			</g>
		</g>
		<g id="Icon">
			<g data-pixso-skip-parse="true">
				<foreignObject width="40.960480" height="47.835815" x="24.852417" y="17.238647">
					<div xmlns="http://www.w3.org/1999/xhtml" style="clip-path:url(#outline_mask_4);height:100%;backdrop-filter:blur(12.000000px);width:100%;-webkit-backdrop-filter:blur(12.000000px);" />
				</foreignObject>
			</g>
			<g filter="url(#filter_9)">
				<path id="Path" d="M36.0861 18.2386L52.9351 18.2386L64.8129 31.0152L64.8129 53.7844C64.8129 59.468 60.252 64.0745 54.6246 64.0745L36.5626 64.0745C30.6629 64.0745 25.8524 59.2388 25.8524 53.2802L25.8524 28.5746C25.8524 22.891 30.436 18.2386 36.0861 18.2386Z" fill="rgb(213,77,255)" fill-opacity="0.349999994" fill-rule="evenodd" />
				<path id="Path" d="M52.9351 17.2386L36.0861 17.2386C35.2812 17.2386 34.4945 17.322 33.7258 17.4888C33.0392 17.6378 32.3671 17.8533 31.7093 18.1353C31.1164 18.3896 30.5533 18.6899 30.0201 19.0362C29.3453 19.4745 28.7184 19.9865 28.1393 20.5722C27.6086 21.1091 27.1392 21.6865 26.7312 22.3044C26.3436 22.8914 26.0115 23.515 25.7347 24.1752C25.4631 24.8229 25.2542 25.4841 25.1081 26.159C24.9376 26.9457 24.8524 27.751 24.8524 28.5746L24.8524 53.2802C24.8524 54.1563 24.9449 55.0119 25.1298 55.847C25.282 56.5347 25.4969 57.2084 25.7745 57.8683C26.0608 58.5491 26.404 59.1923 26.8039 59.7981C27.2326 60.4473 27.7264 61.0534 28.2855 61.6165C28.8792 62.2144 29.5212 62.7382 30.2114 63.188C30.7777 63.557 31.3765 63.8763 32.0077 64.1456C32.6912 64.4373 33.3896 64.6602 34.1029 64.8145C34.904 64.9879 35.7239 65.0745 36.5626 65.0745L54.6246 65.0745C55.4446 65.0745 56.2454 64.9881 57.0272 64.8153C57.6931 64.6681 58.3452 64.4582 58.9834 64.1856C59.5874 63.9276 60.1602 63.6217 60.7017 63.268C61.3606 62.8377 61.9733 62.3364 62.5397 61.7644C63.0618 61.237 63.5243 60.6699 63.9271 60.0632C64.3197 59.4719 64.6556 58.8429 64.9347 58.1762C65.1928 57.5599 65.394 56.9309 65.5383 56.289C65.7214 55.4747 65.8129 54.6398 65.8129 53.7844L65.8129 31.0152C65.8129 30.8889 65.7898 30.767 65.7436 30.6494C65.6974 30.5319 65.6313 30.4268 65.5453 30.3343L53.6675 17.5578C53.5729 17.456 53.462 17.3774 53.3346 17.3219C53.2072 17.2664 53.0741 17.2386 52.9351 17.2386ZM52.9351 18.2386L36.0861 18.2386C30.436 18.2386 25.8524 22.891 25.8524 28.5746L25.8524 53.2802C25.8524 59.2388 30.6629 64.0745 36.5626 64.0745L54.6246 64.0745C60.252 64.0745 64.8129 59.468 64.8129 53.7844L64.8129 31.0152L52.9351 18.2386Z" fill="url(#paint_linear_14)" fill-rule="evenodd" />
			</g>
			<g data-pixso-skip-parse="true">
				<foreignObject width="31.306213" height="31.785767" x="45.459900" y="16.077759">
					<div xmlns="http://www.w3.org/1999/xhtml" style="clip-path:url(#outline_mask_5);height:100%;backdrop-filter:blur(7.500000px);width:100%;-webkit-backdrop-filter:blur(7.500000px);" />
				</foreignObject>
			</g>
			<g filter="url(#filter_10)">
				<path id="Fill 15" d="M55.0368 32.845C56.6183 32.861 58.8171 32.8679 60.6823 32.861C61.6376 32.8587 62.1232 31.706 61.4606 31.0115C59.0644 28.4952 54.7781 23.9918 52.3252 21.4158C51.6467 20.7031 50.46 21.1935 50.46 22.1813L50.46 28.2224C50.46 30.7572 52.5271 32.845 55.0368 32.845Z" fill="url(#paint_linear_15)" fill-rule="nonzero" />
				<path id="Fill 15" d="M60.6823 32.861C58.8171 32.8679 56.6183 32.861 55.0368 32.845C52.5271 32.845 50.46 30.7572 50.46 28.2224L50.46 22.1813C50.46 21.1935 51.6467 20.7031 52.3252 21.4158C54.7781 23.9918 59.0644 28.4952 61.4606 31.0115C62.1232 31.706 61.6376 32.8587 60.6823 32.861ZM60.6818 32.461L60.6813 32.461L58.639 32.4634L55.0368 32.445C54.5013 32.445 54.0014 32.3542 53.5369 32.1727C53.0093 31.9665 52.5275 31.6432 52.0915 31.2028C51.6697 30.7768 51.3563 30.3075 51.1512 29.7948C50.957 29.3095 50.86 28.7854 50.86 28.2224L50.86 22.1813C50.86 22.0191 50.8978 21.8831 50.9736 21.7731C51.0452 21.6689 51.1508 21.5882 51.2904 21.5307C51.4303 21.4731 51.5617 21.457 51.6845 21.4824C51.8105 21.5085 51.9275 21.5782 52.0355 21.6916L56.5478 26.4313L61.1712 31.2877C61.2764 31.398 61.3406 31.5158 61.3637 31.6412C61.3868 31.7668 61.3687 31.8999 61.3095 32.0406C61.2499 32.1821 61.1669 32.2878 61.0604 32.3579C60.9565 32.4262 60.8303 32.4606 60.6818 32.461Z" fill="url(#paint_linear_16)" fill-rule="evenodd" />
			</g>
			<path id="矢量 7" d="M38.147 47.4756L35.9932 47.4636L33.7786 44.2304L32.3843 44.2304L32.3843 47.4756L30.5798 47.4756L30.5798 38.4756L33.73 38.4756C34.4429 38.4756 35.0687 38.5947 35.6074 38.8328C36.1461 39.069 36.5602 39.4072 36.8498 39.8475Q36.9789 40.0415 37.0699 40.2519L37.0699 40.252Q37.2873 40.7548 37.2873 41.3515C37.2873 41.9259 37.1374 42.4302 36.8377 42.8645C36.54 43.2988 36.1218 43.631 35.5831 43.8612L38.147 47.4756ZM47.0561 47.4756L43.3712 38.4756L41.7916 38.4756L38.2222 47.4756L40.0236 47.4756L40.7952 45.4222L44.3433 45.4222L45.1392 47.4756L47.0561 47.4756ZM46.0979 38.4756L53.4372 38.4756L53.4372 40.0606L50.6758 40.0606L50.6758 47.4756L48.8592 47.4756L48.8592 40.0606L46.0979 40.0606L46.0979 38.4756ZM56.3117 43.6751L60.0087 43.6751L60.0087 42.138L56.3117 42.138L56.3117 40.0246L60.4431 40.0246L60.4431 38.4756L54.5073 38.4756L54.5073 47.4756L60.5798 47.4756L60.5798 45.9145L56.3117 45.9145L56.3117 43.6751ZM32.3843 39.9886L32.3843 42.7174L33.5174 42.7174C34.048 42.7174 34.4895 42.6054 34.8419 42.3812C35.1942 42.1551 35.3704 41.8118 35.3704 41.3515C35.3704 40.8852 35.1963 40.5419 34.8479 40.3218Q34.3254 39.9886 33.5174 39.9886L32.3843 39.9886ZM42.5389 40.7361L43.757 43.8972L41.3572 43.8972L42.5389 40.7361Z" fill="url(#paint_linear_17)" fill-rule="evenodd" />
		</g>
	</g>
</svg>
