<svg width="93" height="85" viewBox="0 0 93 85" fill="none" xmlns="http://www.w3.org/2000/svg">
<path fill-rule="evenodd" clip-rule="evenodd" d="M23.7334 79.4078V12.5169C23.7334 9.9679 25.7998 7.90152 28.3488 7.90152H88.3801C90.9292 7.90152 92.9955 9.9679 92.9955 12.5169V79.4078C92.9955 81.9568 90.9292 84.0232 88.3801 84.0232H28.3488C25.7998 84.0232 23.7334 81.9568 23.7334 79.4078Z" fill="url(#paint0_linear_10943_192023)"/>
<path fill-rule="evenodd" clip-rule="evenodd" d="M51.3364 -0.307709H65.7442C66.3827 -0.307709 66.9003 0.209901 66.9003 0.848405C66.9003 0.905838 66.896 0.963191 66.8875 1.01999L66.1026 6.2501C66.0176 6.81601 65.5315 7.23464 64.9593 7.23464H52.1214C51.5491 7.23464 51.063 6.81601 50.978 6.2501L50.1931 1.01999C50.0984 0.388555 50.5334 -0.200143 51.1649 -0.294905C51.2217 -0.303429 51.279 -0.307709 51.3364 -0.307709Z" fill="url(#paint1_linear_10943_192023)"/>
<path fill-rule="evenodd" clip-rule="evenodd" d="M29.9771 76.4734V20.3339C29.9771 19.666 30.5185 19.1246 31.1863 19.1246H85.52C86.1879 19.1246 86.7293 19.666 86.7293 20.3339V66.2293C86.7293 67.6467 86.0388 68.9753 84.8787 69.7898L73.6368 77.6827H31.1863C30.5185 77.6827 29.9771 77.1413 29.9771 76.4734Z" fill="white"/>
<path d="M73.6922 3.96629H43.015C42.3191 3.96629 41.7549 4.53048 41.7549 5.22645V10.3967C41.7549 11.0926 42.3191 11.6568 43.015 11.6568H73.6922C74.3882 11.6568 74.9524 11.0926 74.9524 10.3967V5.22645C74.9524 4.53048 74.3882 3.96629 73.6922 3.96629Z" fill="#FF7B00"/>
<path fill-rule="evenodd" clip-rule="evenodd" d="M74.3024 69.765H84.9132L73.6724 77.6827V70.3951C73.6724 70.0471 73.9545 69.765 74.3024 69.765Z" fill="url(#paint2_linear_10943_192023)"/>
<path d="M37.8452 29.2206H78.8612" stroke="#E5E5E5" stroke-width="3.22472" stroke-linecap="round" stroke-linejoin="round"/>
<path d="M37.8452 39.0634H78.8612" stroke="#E5E5E5" stroke-width="3.22472" stroke-linecap="round" stroke-linejoin="round"/>
<path d="M37.8452 48.9062H61.0098" stroke="#E5E5E5" stroke-width="3.22472" stroke-linecap="round" stroke-linejoin="round"/>
<path d="M53.6104 3.96629H63.4694" stroke="white" stroke-width="0.945123" stroke-linecap="round" stroke-linejoin="round"/>
<path fill-rule="evenodd" clip-rule="evenodd" d="M11.8192 52.8495L12.5741 49.9997H16.2012L16.7514 53.8335L13.0255 81.2451H9.86865L11.381 55.5836C11.4354 54.6599 11.5822 53.744 11.8192 52.8495Z" fill="#3A2721"/>
<path fill-rule="evenodd" clip-rule="evenodd" d="M20.7999 53.5348L19.8546 49.9997H15.7362L15.7344 56.0604L19.3815 69.0428L19.1747 81.2451H22.3315L24.0492 69.6396C24.1317 69.0824 24.1118 68.5147 23.9907 67.9646L20.9463 54.1354C20.902 53.9341 20.8532 53.7339 20.7999 53.5348Z" fill="#3A2721"/>
<path fill-rule="evenodd" clip-rule="evenodd" d="M20.2843 51.7719L18.5618 52.0828C16.9847 52.3674 15.3693 52.3656 13.7928 52.0774L12.1211 51.7719L12.3977 50.7392L14.3928 50.9982C15.5773 51.1519 16.7766 51.154 17.9617 51.0042L20.0593 50.7392L20.2843 51.7719Z" fill="#171717"/>
<path fill-rule="evenodd" clip-rule="evenodd" d="M13.0246 81.2451H9.86783L9.71545 83.5923C9.70038 83.8245 9.8764 84.0249 10.1086 84.04C10.1177 84.0406 10.1268 84.0409 10.1359 84.0409H15.2886C15.4509 84.0409 15.5825 83.9093 15.5825 83.747C15.5825 83.7062 15.574 83.6659 15.5576 83.6285L15.4059 83.2844C15.1983 82.8132 14.7645 82.4805 14.2555 82.4022L12.8726 82.1896L13.0246 81.2451Z" fill="#171717"/>
<path fill-rule="evenodd" clip-rule="evenodd" d="M22.3314 81.2451H19.1746V83.6196C19.1746 83.8522 19.3633 84.0409 19.596 84.0409H24.7335C24.8958 84.0409 25.0273 83.9093 25.0273 83.747C25.0273 83.7062 25.0188 83.6659 25.0024 83.6285L24.8508 83.2844C24.6435 82.814 24.2078 82.4842 23.6989 82.4124L22.1192 82.1896L22.3314 81.2451Z" fill="#171717"/>
<path fill-rule="evenodd" clip-rule="evenodd" d="M21.1938 44.2034H11.2824L12.3862 50.6935L14.5805 50.9724C15.8054 51.128 17.0454 51.1233 18.2692 50.9583L20.2319 50.6935L21.1938 44.2034Z" fill="#ECECEC"/>
<path fill-rule="evenodd" clip-rule="evenodd" d="M23.1698 47.0598L22.9311 45.9995L28.3124 44.1945C28.4936 44.1338 28.682 44.0975 28.8728 44.0866L29.4166 44.0557C29.5535 44.0479 29.6708 44.1526 29.6786 44.2895C29.6834 44.3732 29.6457 44.4535 29.5783 44.5033L25.1322 47.7903C24.5771 48.2007 23.7945 48.0834 23.3841 47.5283C23.2809 47.3887 23.2079 47.2292 23.1698 47.0598Z" fill="#FFB999"/>
<path fill-rule="evenodd" clip-rule="evenodd" d="M28.1711 43.5826L29.5767 44.518L31.1911 43.3225L32.2985 43.2221L34.345 43.0978C34.4311 43.0921 34.4962 43.0177 34.4906 42.9316C34.4878 42.8901 34.4687 42.8515 34.4374 42.8242C34.1005 42.5316 33.7347 42.3552 33.3399 42.2949C33.1284 42.2626 32.7131 42.1992 32.094 42.1047L31.5258 41.9317C31.2359 41.8435 30.9238 41.8636 30.6476 41.9882L29.8709 42.3388C29.3702 42.5731 28.8677 42.8426 28.3636 43.1473C27.8594 43.452 27.7952 43.5971 28.1711 43.5826Z" fill="#FFB999"/>
<path fill-rule="evenodd" clip-rule="evenodd" d="M34.2837 43.0916C33.4091 43.0115 32.8622 42.9548 32.6432 42.9214C32.4241 42.8879 32.1682 42.8221 31.8755 42.7239L31.1915 43.3225L31.4934 43.3895C31.7791 43.4528 32.0751 43.453 32.3608 43.39C32.6498 43.3263 32.9413 43.2745 33.2345 43.2345L34.2837 43.0916Z" fill="#FFA780"/>
<path fill-rule="evenodd" clip-rule="evenodd" d="M9.76853 46.4451L10.1347 45.4218L5.18357 41.9662C4.76134 41.6715 4.19549 41.69 3.79335 42.0115C3.46707 42.2725 3.41407 42.7485 3.67497 43.0748C3.69663 43.1018 3.72013 43.1274 3.7453 43.1513L7.73175 46.931C8.23267 47.4059 9.02378 47.3849 9.49872 46.884C9.61816 46.758 9.71005 46.6085 9.76853 46.4451Z" fill="#FFB999"/>
<path fill-rule="evenodd" clip-rule="evenodd" d="M5.22811 42.3843L3.71903 43.1414L2.26227 41.758L1.17538 41.5235L-0.840665 41.1507C-0.925427 41.1345 -0.981052 41.0527 -0.964908 40.968C-0.957134 40.9271 -0.933424 40.8911 -0.899021 40.8678C-0.529016 40.6185 -0.144416 40.4879 0.254781 40.4762C0.46864 40.47 0.888549 40.4577 1.51451 40.4393L2.09958 40.3369C2.39808 40.2846 2.7054 40.3425 2.96436 40.4999L3.69257 40.9426C4.16099 41.2361 4.62684 41.5648 5.09014 41.9287C5.55344 42.2926 5.59943 42.4444 5.22811 42.3843Z" fill="#FFB999"/>
<path fill-rule="evenodd" clip-rule="evenodd" d="M-0.778769 41.152C0.0991434 41.1791 0.648837 41.1895 0.870312 41.183C1.09179 41.1765 1.3538 41.1423 1.65634 41.0806L2.26231 41.758L1.95444 41.7877C1.66323 41.8157 1.36941 41.7798 1.09351 41.6826C0.814398 41.5841 0.531392 41.4971 0.245197 41.4217L-0.778769 41.152Z" fill="#FFA780"/>
<path fill-rule="evenodd" clip-rule="evenodd" d="M4.17538 40.7523L10.2713 45.5551L9.94016 46.6038C9.70396 47.3518 8.9061 47.7667 8.15808 47.5305C7.96713 47.4702 7.79108 47.3702 7.6415 47.2371L2.49254 42.6545L4.17538 40.7523Z" fill="#ECECEC"/>
<path fill-rule="evenodd" clip-rule="evenodd" d="M22.1487 40.4425C20.1937 39.7801 18.2498 39.4489 16.317 39.4489C14.3696 39.4489 12.4839 39.7852 10.6602 40.4577C10.2989 40.5911 9.99341 40.8428 9.79354 41.1719L7.71395 44.6034L9.75757 46.8367L12.1533 44.3658H20.8208L21.3003 45.0917L24.4609 43.883L23.117 41.2754C22.9145 40.8827 22.5673 40.5842 22.1487 40.4425Z" fill="#ECECEC"/>
<path d="M17.7341 37.2737H15.0763L14.8555 39.4359L16.3523 40.6071L17.7495 39.4359L17.7341 37.2737Z" fill="#FFB999"/>
<mask id="mask0_10943_192023" style="mask-type:luminance" maskUnits="userSpaceOnUse" x="14" y="37" width="4" height="4">
<path d="M17.7341 37.2737H15.0763L14.8555 39.4359L16.3523 40.6071L17.7495 39.4359L17.7341 37.2737Z" fill="white"/>
</mask>
<g mask="url(#mask0_10943_192023)">
<path fill-rule="evenodd" clip-rule="evenodd" d="M18.4512 37.1422L14.8443 37.2737L14.8828 38.8937L15.1121 38.9117C16.4738 39.0181 17.7746 38.3288 18.4512 37.1422Z" fill="#FF9667" fill-opacity="0.8"/>
</g>
<path fill-rule="evenodd" clip-rule="evenodd" d="M25.7319 46.4552L23.1211 41.2848L20.7302 44.6318L22.5839 47.2465L25.7319 46.4552Z" fill="#ECECEC"/>
<path fill-rule="evenodd" clip-rule="evenodd" d="M28.7824 42.4134L22.1146 46.2942L22.7272 47.5495C23.0712 48.2544 23.9216 48.5471 24.6265 48.203C24.6841 48.1749 24.7397 48.143 24.793 48.1074L30.4652 44.3157L28.7824 42.4134Z" fill="#ECECEC"/>
<path fill-rule="evenodd" clip-rule="evenodd" d="M17.2553 41.502H16.2621L15.4121 51.6891L16.7578 53.4794L18.1052 51.6891L17.2553 41.502Z" fill="#A33300"/>
<path fill-rule="evenodd" clip-rule="evenodd" d="M17.6626 40.1475H15.8567L16.263 41.502H17.2562L17.6626 40.1475Z" fill="#A33300"/>
<path fill-rule="evenodd" clip-rule="evenodd" d="M17.7852 38.983L16.6965 40.1475L18.0491 41.031L18.5239 39.5033L17.7852 38.983Z" fill="#D3D3D3"/>
<path fill-rule="evenodd" clip-rule="evenodd" d="M14.8608 38.983L16.6968 40.1475L15.5165 41.4041L14.1323 39.5033L14.8608 38.983Z" fill="#D3D3D3"/>
<path fill-rule="evenodd" clip-rule="evenodd" d="M17.6831 32.9652H17.6433C17.4483 32.4434 16.8829 32.1615 16.3489 32.3197L14.817 32.7737L14.6038 32.8445C14.1676 32.9894 13.8876 33.4144 13.9265 33.8723L14.0442 35.2548C14.1108 36.0371 14.4816 36.762 15.0769 37.2737L17.4641 36.5087C18.0185 36.3311 18.4222 35.8517 18.5029 35.2751L18.6678 34.0972C18.7439 33.5534 18.3648 33.0509 17.821 32.9748C17.7753 32.9684 17.7293 32.9652 17.6831 32.9652Z" fill="#681E20"/>
<path fill-rule="evenodd" clip-rule="evenodd" d="M14.9086 35.1967L15.2292 35.2598V36.375L14.9051 36.301C14.5948 36.23 14.3748 35.954 14.3748 35.6357C14.3748 35.3886 14.5751 35.1883 14.8222 35.1883C14.8512 35.1883 14.8801 35.1911 14.9086 35.1967Z" fill="#FFB999"/>
<path fill-rule="evenodd" clip-rule="evenodd" d="M16.6722 33.2484C15.7318 33.2484 14.9695 34.0107 14.9695 34.951V36.5156C14.9695 37.456 15.7318 38.2183 16.6722 38.2183C17.6122 38.2166 18.3734 37.4543 18.3737 36.5143L18.3743 34.951C18.3746 34.011 17.6128 33.2487 16.6728 33.2484L16.6722 33.2484Z" fill="#FFB999"/>
<path opacity="0.5" fill-rule="evenodd" clip-rule="evenodd" d="M18.2505 33.709C17.5205 34.5729 16.2604 34.7558 15.3149 34.1351L15.0182 33.9404L18.2505 33.709Z" fill="#F4956A"/>
<path fill-rule="evenodd" clip-rule="evenodd" d="M18.3943 34.9153C18.8281 33.6994 18.2328 33.0915 16.6086 33.0915C14.9843 33.0915 14.3705 33.8128 14.7672 35.2555C14.78 34.9836 14.8251 34.7669 14.9026 34.6055C15.0188 34.3633 15.1939 33.9652 15.504 33.9652C15.8141 33.9652 15.8813 34.1435 16.7149 34.1435C17.2025 34.1435 17.6374 34.0542 18.0197 33.8757C18.0705 33.9196 18.1379 34.0235 18.2217 34.1875C18.3056 34.3516 18.3631 34.5942 18.3943 34.9153Z" fill="#681E20"/>
<defs>
<linearGradient id="paint0_linear_10943_192023" x1="3486.84" y1="7620.07" x2="3486.84" y2="7.90152" gradientUnits="userSpaceOnUse">
<stop stop-color="#E7E7E7"/>
<stop offset="1" stop-color="#DDDDDD"/>
</linearGradient>
<linearGradient id="paint1_linear_10943_192023" x1="1722.19" y1="376.81" x2="50.1802" y2="376.81" gradientUnits="userSpaceOnUse">
<stop stop-color="#FFA958"/>
<stop offset="1" stop-color="#FF7B00"/>
</linearGradient>
<linearGradient id="paint2_linear_10943_192023" x1="635.713" y1="69.765" x2="635.713" y2="861.534" gradientUnits="userSpaceOnUse">
<stop stop-color="#F6F6F6"/>
<stop offset="1" stop-color="#EEEEEE"/>
</linearGradient>
</defs>
</svg>
